<svg preserveAspectRatio="none" width="100%" height="100%" overflow="visible" style="display: block;" viewBox="0 0 24 24" fill="none" xmlns="http://www.w3.org/2000/svg">
<g id="ac_unit">
<mask id="mask0_9957_22002" style="mask-type:alpha" maskUnits="userSpaceOnUse" x="0" y="0" width="24" height="24">
<rect id="Bounding box" width="24" height="24" fill="var(--fill-0, #D9D9D9)"/>
</mask>
<g mask="url(#mask0_9957_22002)">
<path id="ac_unit_2" d="M11.3718 16.8988L8.05575 20.1918C7.94208 20.3054 7.79883 20.3612 7.626 20.359C7.45317 20.3568 7.3065 20.2962 7.186 20.177C7.05567 20.0565 6.9905 19.9098 6.9905 19.7368C6.9905 19.5639 7.05567 19.4123 7.186 19.282L11.3718 15.0962V12.6283H8.90375L4.74025 16.7918C4.62658 16.9054 4.48333 16.9639 4.3105 16.9673C4.13767 16.9708 3.98825 16.9108 3.86225 16.7873C3.73742 16.6668 3.67333 16.52 3.67 16.347C3.6665 16.1742 3.73058 16.0241 3.86225 15.8968L7.10125 12.6283H2.85325C2.68525 12.6283 2.54275 12.5688 2.42575 12.45C2.30858 12.3312 2.25 12.1812 2.25 12C2.25 11.832 2.30942 11.6853 2.42825 11.56C2.54708 11.4345 2.69708 11.3718 2.87825 11.3718H7.10125L3.80825 8.08075C3.68775 7.96025 3.6275 7.81358 3.6275 7.64075C3.6275 7.46792 3.69267 7.31633 3.823 7.186C3.9435 7.0655 4.09025 7.00525 4.26325 7.00525C4.43608 7.00525 4.58767 7.0655 4.718 7.186L8.90375 11.3718H11.3718V8.8935L7.20825 4.755C7.09458 4.64133 7.03883 4.49808 7.041 4.32525C7.04317 4.15242 7.10383 4.00083 7.223 3.8705C7.3435 3.75 7.49025 3.68975 7.66325 3.68975C7.83608 3.68975 7.98825 3.75 8.11975 3.8705L11.3718 7.08475V2.87825C11.3718 2.71025 11.4312 2.56358 11.55 2.43825C11.6688 2.31275 11.8188 2.25 12 2.25C12.168 2.25 12.3147 2.31275 12.44 2.43825C12.5655 2.56358 12.6283 2.71025 12.6283 2.87825V7.08475L15.9193 3.823C16.0398 3.7025 16.1864 3.64225 16.3593 3.64225C16.5321 3.64225 16.6837 3.7025 16.814 3.823C16.9277 3.95333 16.9845 4.105 16.9845 4.278C16.9845 4.45083 16.9243 4.5975 16.8038 4.718L12.6283 8.8935V11.3718H15.1065L19.2553 7.223C19.3689 7.10933 19.5122 7.0525 19.685 7.0525C19.8578 7.0525 20.0094 7.11425 20.1398 7.23775C20.2603 7.35825 20.3205 7.505 20.3205 7.678C20.3205 7.85083 20.2603 7.9975 20.1398 8.118L16.9153 11.3718H21.1218C21.2898 11.3718 21.4364 11.4345 21.5618 11.56C21.6873 11.6853 21.75 11.832 21.75 12C21.75 12.1812 21.6873 12.3312 21.5618 12.45C21.4364 12.5688 21.2898 12.6283 21.1218 12.6283H16.9153L20.1668 15.9443C20.2873 16.0579 20.3475 16.2012 20.3475 16.374C20.3475 16.5468 20.2873 16.6901 20.1668 16.8038C20.0433 16.9368 19.895 17.0043 19.722 17.0065C19.5492 17.0085 19.4025 16.9443 19.282 16.814L15.1065 12.6283H12.6283V15.0962L16.814 19.3173C16.9345 19.4309 16.9948 19.5742 16.9948 19.747C16.9948 19.92 16.9296 20.0683 16.7992 20.1918C16.6856 20.3191 16.5423 20.3828 16.3695 20.3828C16.1967 20.3828 16.05 20.3225 15.9295 20.202L12.6283 16.8988V21.1468C12.6283 21.3148 12.5655 21.4573 12.44 21.5743C12.3147 21.6914 12.168 21.75 12 21.75C11.8188 21.75 11.6688 21.6906 11.55 21.5718C11.4312 21.4529 11.3718 21.3029 11.3718 21.1218V16.8988Z" fill="var(--fill-0, #464646)"/>
</g>
</g>
</svg>
