<svg preserveAspectRatio="none" width="100%" height="100%" overflow="visible" style="display: block;" viewBox="0 0 18 18" fill="none" xmlns="http://www.w3.org/2000/svg">
<g id="account_circle">
<mask id="mask0_9969_22330" style="mask-type:alpha" maskUnits="userSpaceOnUse" x="0" y="0" width="18" height="18">
<rect id="Bounding box" width="18" height="18" fill="var(--fill-0, #D9D9D9)"/>
</mask>
<g mask="url(#mask0_9969_22330)">
<path id="account_circle_2" d="M4.51725 12.9692C5.15475 12.4962 5.84925 12.1226 6.60075 11.8485C7.35213 11.5745 8.15187 11.4375 9 11.4375C9.84813 11.4375 10.6479 11.5745 11.3993 11.8485C12.1508 12.1226 12.8453 12.4962 13.4828 12.9692C13.949 12.4567 14.3184 11.8634 14.5911 11.1894C14.8637 10.5154 15 9.78563 15 9C15 7.3375 14.4156 5.92188 13.2469 4.75313C12.0781 3.58438 10.6625 3 9 3C7.3375 3 5.92188 3.58438 4.75313 4.75313C3.58438 5.92188 3 7.3375 3 9C3 9.78563 3.13631 10.5154 3.40894 11.1894C3.68156 11.8634 4.051 12.4567 4.51725 12.9692ZM9.00019 9.5625C8.31544 9.5625 7.738 9.3275 7.26787 8.8575C6.79762 8.38738 6.5625 7.80994 6.5625 7.12519C6.5625 6.44044 6.7975 5.863 7.2675 5.39287C7.73763 4.92262 8.31506 4.6875 8.99981 4.6875C9.68456 4.6875 10.262 4.9225 10.7321 5.3925C11.2024 5.86262 11.4375 6.44006 11.4375 7.12481C11.4375 7.80956 11.2025 8.387 10.7325 8.85713C10.2624 9.32738 9.68494 9.5625 9.00019 9.5625ZM9 16.125C8.01063 16.125 7.0825 15.9389 6.21562 15.5668C5.34875 15.1947 4.59469 14.6879 3.95344 14.0466C3.31206 13.3885 2.80531 12.6325 2.43319 11.7656C2.06106 10.8987 1.875 9.97688 1.875 9C1.875 8.01063 2.06106 7.0825 2.43319 6.21562C2.80531 5.34875 3.31206 4.59469 3.95344 3.95344C4.59469 3.31206 5.34875 2.80531 6.21562 2.43319C7.0825 2.06106 8.01063 1.875 9 1.875C9.98937 1.875 10.9175 2.06106 11.7844 2.43319C12.6513 2.80531 13.4053 3.31206 14.0466 3.95344C14.6879 4.59469 15.1947 5.34875 15.5668 6.21562C15.9389 7.0825 16.125 8.01063 16.125 9C16.125 9.98937 15.9389 10.9175 15.5668 11.7844C15.1947 12.6513 14.6879 13.4053 14.0466 14.0466C13.4053 14.6879 12.6513 15.1947 11.7844 15.5668C10.9175 15.9389 9.98937 16.125 9 16.125ZM9 15C9.67687 15 10.3295 14.8911 10.9579 14.6734C11.5862 14.4555 12.1442 14.1509 12.6317 13.7597C12.1442 13.3827 11.5935 13.0889 10.9796 12.8784C10.3656 12.6678 9.70575 12.5625 9 12.5625C8.29425 12.5625 7.63319 12.6666 7.01681 12.8747C6.40044 13.0829 5.85094 13.3779 5.36831 13.7597C5.85581 14.1509 6.41375 14.4555 7.04212 14.6734C7.6705 14.8911 8.32313 15 9 15ZM9 8.4375C9.37313 8.4375 9.68513 8.312 9.936 8.061C10.187 7.81013 10.3125 7.49813 10.3125 7.125C10.3125 6.75187 10.187 6.43988 9.936 6.189C9.68513 5.938 9.37313 5.8125 9 5.8125C8.62687 5.8125 8.31487 5.938 8.064 6.189C7.813 6.43988 7.6875 6.75187 7.6875 7.125C7.6875 7.49813 7.813 7.81013 8.064 8.061C8.31487 8.312 8.62687 8.4375 9 8.4375Z" fill="var(--fill-0, #1E1D1D)"/>
</g>
</g>
</svg>
