<svg width="20" height="20" viewBox="0 0 20 20" fill="none" xmlns="http://www.w3.org/2000/svg">
<mask id="mask0_9957_2874" style="mask-type:alpha" maskUnits="userSpaceOnUse" x="0" y="0" width="20" height="20">
<rect width="20" height="20" fill="#D9D9D9"/>
</mask>
<g mask="url(#mask0_9957_2874)">
<path d="M4.5 18C3.80556 18 3.21528 17.7569 2.72917 17.2708C2.24306 16.7847 2 16.1944 2 15.5C2 14.9583 2.16667 14.4722 2.5 14.0417C2.83333 13.6111 3.25 13.2986 3.75 13.1042V6.85417C3.25 6.65972 2.83333 6.35069 2.5 5.92708C2.16667 5.50347 2 5.02778 2 4.5C2 3.79167 2.24306 3.19792 2.72917 2.71875C3.21528 2.23958 3.80556 2 4.5 2C5.04167 2 5.52431 2.16319 5.94792 2.48958C6.37153 2.81597 6.68056 3.23611 6.875 3.75H13.1458C13.3264 3.22222 13.6319 2.79861 14.0625 2.47917C14.4931 2.15972 14.9722 2 15.5 2C16.2083 2 16.8021 2.23958 17.2812 2.71875C17.7604 3.19792 18 3.79167 18 4.5C18 5.02778 17.8403 5.50694 17.5208 5.9375C17.2014 6.36806 16.7778 6.67361 16.25 6.85417V13.125C16.7639 13.3194 17.184 13.6285 17.5104 14.0521C17.8368 14.4757 18 14.9583 18 15.5C18 16.1944 17.7604 16.7847 17.2812 17.2708C16.8021 17.7569 16.2083 18 15.5 18C14.9722 18 14.4931 17.8333 14.0625 17.5C13.6319 17.1667 13.3194 16.75 13.125 16.25H6.875C6.68056 16.75 6.37153 17.1667 5.94792 17.5C5.52431 17.8333 5.04167 18 4.5 18ZM4.5 5.5C4.78333 5.5 5.02083 5.40417 5.2125 5.2125C5.40417 5.02083 5.5 4.78333 5.5 4.5C5.5 4.21667 5.40417 3.97917 5.2125 3.7875C5.02083 3.59583 4.78333 3.5 4.5 3.5C4.21667 3.5 3.97917 3.59583 3.7875 3.7875C3.59583 3.97917 3.5 4.21667 3.5 4.5C3.5 4.78333 3.59583 5.02083 3.7875 5.2125C3.97917 5.40417 4.21667 5.5 4.5 5.5ZM15.5 5.5C15.7833 5.5 16.0208 5.40417 16.2125 5.2125C16.4042 5.02083 16.5 4.78333 16.5 4.5C16.5 4.21667 16.4042 3.97917 16.2125 3.7875C16.0208 3.59583 15.7833 3.5 15.5 3.5C15.2167 3.5 14.9792 3.59583 14.7875 3.7875C14.5958 3.97917 14.5 4.21667 14.5 4.5C14.5 4.78333 14.5958 5.02083 14.7875 5.2125C14.9792 5.40417 15.2167 5.5 15.5 5.5ZM6.875 14.75H13.1458C13.2788 14.3607 13.4856 14.0237 13.7665 13.7392C14.0472 13.4547 14.375 13.2431 14.75 13.1042V6.85417C14.375 6.71528 14.0443 6.50771 13.7579 6.23146C13.4717 5.95521 13.2607 5.62806 13.125 5.25H6.875C6.74208 5.62806 6.53521 5.95521 6.25437 6.23146C5.97368 6.50771 5.63889 6.71528 5.25 6.85417V13.125C5.63583 13.2586 5.96972 13.4664 6.25167 13.7483C6.53361 14.0303 6.74139 14.3642 6.875 14.75ZM15.5 16.5C15.7833 16.5 16.0208 16.4042 16.2125 16.2125C16.4042 16.0208 16.5 15.7833 16.5 15.5C16.5 15.2167 16.4042 14.9792 16.2125 14.7875C16.0208 14.5958 15.7833 14.5 15.5 14.5C15.2167 14.5 14.9792 14.5958 14.7875 14.7875C14.5958 14.9792 14.5 15.2167 14.5 15.5C14.5 15.7833 14.5958 16.0208 14.7875 16.2125C14.9792 16.4042 15.2167 16.5 15.5 16.5ZM4.5 16.5C4.78333 16.5 5.02083 16.4042 5.2125 16.2125C5.40417 16.0208 5.5 15.7833 5.5 15.5C5.5 15.2167 5.40417 14.9792 5.2125 14.7875C5.02083 14.5958 4.78333 14.5 4.5 14.5C4.21667 14.5 3.97917 14.5958 3.7875 14.7875C3.59583 14.9792 3.5 15.2167 3.5 15.5C3.5 15.7833 3.59583 16.0208 3.7875 16.2125C3.97917 16.4042 4.21667 16.5 4.5 16.5Z" fill="#464646"/>
</g>
</svg>
