<svg preserveAspectRatio="none" width="100%" height="100%" overflow="visible" style="display: block;" viewBox="0 0 22 22" fill="none" xmlns="http://www.w3.org/2000/svg">
<g id="activity_zone">
<mask id="mask0_9957_22047" style="mask-type:alpha" maskUnits="userSpaceOnUse" x="0" y="0" width="22" height="22">
<rect id="Bounding box" width="22" height="22" fill="var(--fill-0, #D9D9D9)"/>
</mask>
<g mask="url(#mask0_9957_22047)">
<path id="activity_zone_2" d="M4.95 19.8C4.18611 19.8 3.53681 19.5326 3.00208 18.9979C2.46736 18.4632 2.2 17.8139 2.2 17.05C2.2 16.4542 2.38333 15.9194 2.75 15.4458C3.11667 14.9722 3.575 14.6285 4.125 14.4146V7.53958C3.575 7.32569 3.11667 6.98576 2.75 6.51979C2.38333 6.05382 2.2 5.53056 2.2 4.95C2.2 4.17083 2.46736 3.51771 3.00208 2.99063C3.53681 2.46354 4.18611 2.2 4.95 2.2C5.54583 2.2 6.07674 2.37951 6.54271 2.73854C7.00868 3.09757 7.34861 3.55972 7.5625 4.125H14.4604C14.659 3.54444 14.9951 3.07847 15.4688 2.72708C15.9424 2.37569 16.4694 2.2 17.05 2.2C17.8292 2.2 18.4823 2.46354 19.0094 2.99063C19.5365 3.51771 19.8 4.17083 19.8 4.95C19.8 5.53056 19.6243 6.05764 19.2729 6.53125C18.9215 7.00486 18.4556 7.34097 17.875 7.53958V14.4375C18.4403 14.6514 18.9024 14.9913 19.2615 15.4573C19.6205 15.9233 19.8 16.4542 19.8 17.05C19.8 17.8139 19.5365 18.4632 19.0094 18.9979C18.4823 19.5326 17.8292 19.8 17.05 19.8C16.4694 19.8 15.9424 19.6167 15.4688 19.25C14.9951 18.8833 14.6514 18.425 14.4375 17.875H7.5625C7.34861 18.425 7.00868 18.8833 6.54271 19.25C6.07674 19.6167 5.54583 19.8 4.95 19.8ZM4.95 6.05C5.26167 6.05 5.52292 5.94458 5.73375 5.73375C5.94458 5.52292 6.05 5.26167 6.05 4.95C6.05 4.63833 5.94458 4.37708 5.73375 4.16625C5.52292 3.95542 5.26167 3.85 4.95 3.85C4.63833 3.85 4.37708 3.95542 4.16625 4.16625C3.95542 4.37708 3.85 4.63833 3.85 4.95C3.85 5.26167 3.95542 5.52292 4.16625 5.73375C4.37708 5.94458 4.63833 6.05 4.95 6.05ZM17.05 6.05C17.3617 6.05 17.6229 5.94458 17.8338 5.73375C18.0446 5.52292 18.15 5.26167 18.15 4.95C18.15 4.63833 18.0446 4.37708 17.8338 4.16625C17.6229 3.95542 17.3617 3.85 17.05 3.85C16.7383 3.85 16.4771 3.95542 16.2663 4.16625C16.0554 4.37708 15.95 4.63833 15.95 4.95C15.95 5.26167 16.0554 5.52292 16.2663 5.73375C16.4771 5.94458 16.7383 6.05 17.05 6.05ZM7.5625 16.225H14.4604C14.6066 15.7968 14.8342 15.4261 15.1431 15.1131C15.4519 14.8002 15.8125 14.5674 16.225 14.4146V7.53958C15.8125 7.38681 15.4487 7.15848 15.1337 6.8546C14.8188 6.55073 14.5868 6.19086 14.4375 5.775H7.5625C7.41629 6.19086 7.18873 6.55073 6.87981 6.8546C6.57105 7.15848 6.20278 7.38681 5.775 7.53958V14.4375C6.19942 14.5845 6.56669 14.813 6.87683 15.1232C7.18697 15.4333 7.41553 15.8006 7.5625 16.225ZM17.05 18.15C17.3617 18.15 17.6229 18.0446 17.8338 17.8338C18.0446 17.6229 18.15 17.3617 18.15 17.05C18.15 16.7383 18.0446 16.4771 17.8338 16.2663C17.6229 16.0554 17.3617 15.95 17.05 15.95C16.7383 15.95 16.4771 16.0554 16.2663 16.2663C16.0554 16.4771 15.95 16.7383 15.95 17.05C15.95 17.3617 16.0554 17.6229 16.2663 17.8338C16.4771 18.0446 16.7383 18.15 17.05 18.15ZM4.95 18.15C5.26167 18.15 5.52292 18.0446 5.73375 17.8338C5.94458 17.6229 6.05 17.3617 6.05 17.05C6.05 16.7383 5.94458 16.4771 5.73375 16.2663C5.52292 16.0554 5.26167 15.95 4.95 15.95C4.63833 15.95 4.37708 16.0554 4.16625 16.2663C3.95542 16.4771 3.85 16.7383 3.85 17.05C3.85 17.3617 3.95542 17.6229 4.16625 17.8338C4.37708 18.0446 4.63833 18.15 4.95 18.15Z" fill="var(--fill-0, #1447D4)"/>
</g>
</g>
</svg>
