<svg preserveAspectRatio="none" width="100%" height="100%" overflow="visible" style="display: block;" viewBox="0 0 17 17" fill="none" xmlns="http://www.w3.org/2000/svg">
<g id="add">
<mask id="mask0_9969_22446" style="mask-type:alpha" maskUnits="userSpaceOnUse" x="0" y="0" width="17" height="17">
<rect id="Bounding box" width="17" height="17" fill="var(--fill-0, #D9D9D9)"/>
</mask>
<g mask="url(#mask0_9969_22446)">
<path id="add_2" d="M7.79159 9.20802H4.24992C4.04923 9.20802 3.881 9.14013 3.74523 9.00437C3.60947 8.86861 3.54159 8.70038 3.54159 8.49968C3.54159 8.29899 3.60947 8.13076 3.74523 7.995C3.881 7.85923 4.04923 7.79135 4.24992 7.79135H7.79159V4.24968C7.79159 4.04899 7.85947 3.88076 7.99523 3.745C8.131 3.60923 8.29923 3.54135 8.49992 3.54135C8.70062 3.54135 8.86884 3.60923 9.00461 3.745C9.14037 3.88076 9.20825 4.04899 9.20825 4.24968V7.79135H12.7499C12.9506 7.79135 13.1188 7.85923 13.2546 7.995C13.3904 8.13076 13.4583 8.29899 13.4583 8.49968C13.4583 8.70038 13.3904 8.86861 13.2546 9.00437C13.1188 9.14013 12.9506 9.20802 12.7499 9.20802H9.20825V12.7497C9.20825 12.9504 9.14037 13.1186 9.00461 13.2544C8.86884 13.3901 8.70062 13.458 8.49992 13.458C8.29923 13.458 8.131 13.3901 7.99523 13.2544C7.85947 13.1186 7.79159 12.9504 7.79159 12.7497V9.20802Z" fill="var(--fill-0, #FFFFFF)"/>
</g>
</g>
</svg>
