<svg preserveAspectRatio="none" width="100%" height="100%" overflow="visible" style="display: block;" viewBox="0 0 19.4446 18.9585" fill="none" xmlns="http://www.w3.org/2000/svg">
<g id="add">
<mask id="mask0_9972_22820" style="mask-type:alpha" maskUnits="userSpaceOnUse" x="0" y="0" width="20" height="19">
<rect id="Bounding box" x="9.76562e-05" y="-7.32422e-05" width="19.4446" height="18.9585" fill="var(--fill-0, #D9D9D9)"/>
</mask>
<g mask="url(#mask0_9972_22820)">
<path id="add_2" d="M8.79084 10.2691H4.84115C4.61734 10.2691 4.42973 10.1934 4.27832 10.042C4.12692 9.89056 4.05122 9.70295 4.05122 9.47914C4.05122 9.25532 4.12692 9.06771 4.27832 8.91631C4.42973 8.7649 4.61734 8.6892 4.84115 8.6892H8.79084V4.73952C8.79084 4.5157 8.86654 4.32809 9.01794 4.17669C9.16935 4.02528 9.35696 3.94958 9.58077 3.94958C9.80459 3.94958 9.9922 4.02528 10.1436 4.17669C10.295 4.32809 10.3707 4.5157 10.3707 4.73952V8.6892H14.3204C14.5442 8.6892 14.7318 8.7649 14.8832 8.91631C15.0346 9.06771 15.1103 9.25532 15.1103 9.47914C15.1103 9.70295 15.0346 9.89056 14.8832 10.042C14.7318 10.1934 14.5442 10.2691 14.3204 10.2691H10.3707V14.2188C10.3707 14.4426 10.295 14.6302 10.1436 14.7816C9.9922 14.933 9.80459 15.0087 9.58077 15.0087C9.35696 15.0087 9.16935 14.933 9.01794 14.7816C8.86654 14.6302 8.79084 14.4426 8.79084 14.2188V10.2691Z" fill="var(--fill-0, #1447D4)"/>
</g>
</g>
</svg>
