<svg width="24" height="24" viewBox="0 0 24 24" fill="none" xmlns="http://www.w3.org/2000/svg">
<mask id="mask0_9177_19859" style="mask-type:alpha" maskUnits="userSpaceOnUse" x="0" y="0" width="24" height="24">
<rect width="24" height="24" fill="#D9D9D9"/>
</mask>
<g mask="url(#mask0_9177_19859)">
<path d="M11.9959 6.90538C10.5402 6.90538 9.1208 7.13821 7.73764 7.60388C6.35447 8.06971 5.08872 8.74904 3.94039 9.64188C3.67155 9.84988 3.36947 9.95029 3.03414 9.94313C2.69897 9.93579 2.41272 9.81063 2.17539 9.56763C1.94339 9.33463 1.83347 9.05463 1.84564 8.72763C1.85797 8.40079 1.99297 8.13504 2.25064 7.93038C3.63314 6.82388 5.15964 5.97721 6.83014 5.39038C8.50064 4.80371 10.2228 4.51038 11.9966 4.51038C13.7868 4.51038 15.5127 4.80371 17.1744 5.39038C18.8361 5.97721 20.361 6.82388 21.7491 7.93038C22.0068 8.13504 22.1418 8.40079 22.1541 8.72763C22.1663 9.05463 22.0564 9.33463 21.8244 9.56763C21.5871 9.81063 21.3008 9.93579 20.9656 9.94313C20.6303 9.95029 20.3282 9.84988 20.0594 9.64188C18.9036 8.74904 17.6392 8.06971 16.2664 7.60388C14.8937 7.13821 13.4702 6.90538 11.9959 6.90538ZM11.9999 12.7124C11.2841 12.7124 10.5957 12.8128 9.93489 13.0136C9.27389 13.2145 8.65172 13.5025 8.06839 13.8776C7.79289 14.0541 7.49472 14.1345 7.17389 14.1186C6.85322 14.1028 6.58189 13.9818 6.35989 13.7556C6.14422 13.5421 6.03789 13.2805 6.04089 12.9709C6.04389 12.6614 6.17297 12.4162 6.42814 12.2354C7.24214 11.6499 8.12189 11.2025 9.06739 10.8931C10.0127 10.5836 10.9895 10.4289 11.9976 10.4289C13.0123 10.4289 13.9946 10.5852 14.9446 10.8979C15.8946 11.2105 16.7767 11.6628 17.5909 12.2546C17.8417 12.4355 17.9713 12.679 17.9796 12.9854C17.988 13.2917 17.8811 13.5516 17.6591 13.7651C17.4308 13.9915 17.1562 14.1125 16.8354 14.1284C16.5147 14.1442 16.2166 14.0639 15.9409 13.8874C15.3576 13.5057 14.7349 13.2145 14.0729 13.0136C13.4111 12.8128 12.7201 12.7124 11.9999 12.7124ZM11.9984 19.4899C11.5451 19.4899 11.1606 19.3305 10.8451 19.0119C10.5295 18.693 10.3716 18.3091 10.3716 17.8601C10.3716 17.4068 10.53 17.0224 10.8466 16.7069C11.1631 16.3912 11.5481 16.2334 12.0014 16.2334C12.4547 16.2334 12.8391 16.3917 13.1546 16.7084C13.4703 17.0249 13.6281 17.4098 13.6281 17.8631C13.6281 18.3121 13.4698 18.6955 13.1531 19.0131C12.8366 19.331 12.4517 19.4899 11.9984 19.4899Z" fill="#464646"/>
</g>
</svg>
