<svg width="48" height="48" viewBox="0 0 48 48" fill="none" xmlns="http://www.w3.org/2000/svg">
<g clip-path="url(#clip0_10051_39626)">
<path d="M35.9653 16.5633V11.2617H34.5574V46.5925H29.2087V38.9917H30.8037V40.54H32.2117V37.5839H15.7891V40.54H17.197V38.9917H18.792V46.5925H17.2437V48.0005H47.9771V16.5633H35.9653ZM27.801 46.5926H20.2001V38.9918H23.2966V43.543H24.7045V38.9918H27.801V46.5926ZM46.5692 46.5926H35.9653V17.9712H46.5692V46.5926Z" fill="#1447D4"/>
<path d="M13.4431 10.4636H24.7508V9.05561H13.4431V7.46055H34.5572V9.00892H35.9651V6.05261H32.9622V3.04969H24.7041V0H23.2962V3.04969H14.2874V6.05261H12.0352V16.5628H0.0234375V21.0207H1.43138V17.9708H12.0352V46.5922H1.43138V23.2729H0.0234375V48H14.9913V46.5921H13.443L13.4431 10.4636ZM15.6953 4.45763H31.5542V6.05261H15.6953V4.45763Z" fill="#1447D4"/>
<path d="M20.1999 12.0586H15.7891V16.4694H20.1999V12.0586ZM18.792 15.0615H17.197V13.4665H18.792V15.0615Z" fill="#1447D4"/>
<path d="M26.2058 12.0586H21.7949V16.4694H26.2058V12.0586ZM24.7979 15.0615H23.203V13.4665H24.7979V15.0615Z" fill="#1447D4"/>
<path d="M27.8008 16.4694H32.2116V12.0586H27.8008V16.4694ZM29.2087 13.4665H30.8037V15.0615H29.2087V13.4665Z" fill="#1447D4"/>
<path d="M20.1999 18.0645H15.7891V22.4753H20.1999V18.0645ZM18.792 21.0674H17.197V19.4724H18.792V21.0674Z" fill="#1447D4"/>
<path d="M21.7949 22.4753H26.2058V18.0645H21.7949V22.4753ZM23.2028 19.4724H24.7977V21.0674H23.2028V19.4724Z" fill="#1447D4"/>
<path d="M27.8008 22.4753H32.2116V18.0645H27.8008V22.4753ZM29.2087 19.4724H30.8037V21.0674H29.2087V19.4724Z" fill="#1447D4"/>
<path d="M20.1999 24.0703H15.7891V28.4812H20.1999V24.0703ZM18.792 27.0733H17.197V25.4783H18.792V27.0733Z" fill="#1447D4"/>
<path d="M21.7949 28.4812H26.2058V24.0703H21.7949V28.4812ZM23.2028 25.4783H24.7977V27.0732H23.2028V25.4783Z" fill="#1447D4"/>
<path d="M27.8008 28.4812H32.2116V24.0703H27.8008V28.4812ZM29.2087 25.4783H30.8037V27.0732H29.2087V25.4783Z" fill="#1447D4"/>
<path d="M15.7891 34.487H20.1999V30.0762H15.7891V34.487ZM17.197 31.484H18.792V33.079H17.197V31.484Z" fill="#1447D4"/>
<path d="M21.7949 34.487H26.2058V30.0762H21.7949V34.487ZM23.2028 31.484H24.7977V33.079H23.2028V31.484Z" fill="#1447D4"/>
<path d="M27.8008 34.487H32.2116V30.0762H27.8008V34.487ZM29.2087 31.484H30.8037V33.079H29.2087V31.484Z" fill="#1447D4"/>
<path d="M44.9743 19.5654H37.5605V23.9763H44.9743V19.5654ZM43.5664 22.5683H38.9685V20.9734H43.5664V22.5683Z" fill="#1447D4"/>
<path d="M44.9743 25.5713H37.5605V29.9821H44.9743V25.5713ZM43.5664 28.5743H38.9685V26.9793H43.5664V28.5743Z" fill="#1447D4"/>
<path d="M44.9743 31.5771H37.5605V35.988H44.9743V31.5771ZM43.5664 34.5801H38.9685V32.9851H43.5664V34.5801Z" fill="#1447D4"/>
<path d="M44.9743 37.583H37.5605V41.9939H44.9743V37.583ZM43.5664 40.5859H38.9685V38.9909H43.5664V40.5859Z" fill="#1447D4"/>
<path d="M10.4401 19.5654H3.02637V23.9763H10.4401V19.5654ZM9.03229 22.5683H4.43431V20.9734H9.03219L9.03229 22.5683Z" fill="#1447D4"/>
<path d="M3.02637 29.9821H10.4401V25.5713H3.02637V29.9821ZM4.43431 26.9792H9.03219V28.5742H4.43431V26.9792Z" fill="#1447D4"/>
<path d="M3.02637 35.988H10.4401V31.5771H3.02637V35.988ZM4.43431 32.9851H9.03219V34.5801H4.43431V32.9851Z" fill="#1447D4"/>
<path d="M3.02637 41.9939H10.4401V37.583H3.02637V41.9939ZM4.43431 38.9909H9.03219V40.5859H4.43431V38.9909Z" fill="#1447D4"/>
<path d="M27.7535 9.05566H26.252V10.4636H27.7535V9.05566Z" fill="#1447D4"/>
<path d="M30.7564 9.05566H29.2549V10.4636H30.7564V9.05566Z" fill="#1447D4"/>
<path d="M17.196 42.041H15.7881V43.5425H17.196V42.041Z" fill="#1447D4"/>
<path d="M32.2116 42.041H30.8037V43.5425H32.2116V42.041Z" fill="#1447D4"/>
<path d="M10.4868 43.5898H2.97949V44.9978H10.4868V43.5898Z" fill="#1447D4"/>
<path d="M45.0199 43.5898H37.5127V44.9978H45.0199V43.5898Z" fill="#1447D4"/>
</g>
<defs>
<clipPath id="clip0_10051_39626">
<rect width="48" height="48" fill="white"/>
</clipPath>
</defs>
</svg>
