<svg width="18" height="18" viewBox="0 0 18 18" fill="none" xmlns="http://www.w3.org/2000/svg">
<mask id="mask0_10575_11880" style="mask-type:alpha" maskUnits="userSpaceOnUse" x="0" y="0" width="18" height="18">
<rect width="18" height="18" fill="#D9D9D9"/>
</mask>
<g mask="url(#mask0_10575_11880)">
<path d="M4.04508 15.3002C3.67333 15.3002 3.3562 15.168 3.0937 14.9036C2.8312 14.6393 2.69995 14.3214 2.69995 13.9502V6.7502C2.69995 6.37895 2.83195 6.06113 3.09595 5.79676C3.35983 5.53238 3.67708 5.4002 4.0477 5.4002H5.39564V4.0502C5.39564 3.67895 5.52758 3.36113 5.79145 3.09676C6.05545 2.83238 6.37326 2.7002 6.74489 2.7002H10.7986C11.1703 2.7002 11.4884 2.83238 11.753 3.09676C12.0176 3.36113 12.15 3.67895 12.15 4.0502V8.1002H13.95C14.3212 8.1002 14.639 8.23238 14.9034 8.49676C15.1678 8.76113 15.3 9.07895 15.3 9.4502V13.9502C15.3 14.3214 15.1678 14.6393 14.9034 14.9036C14.639 15.168 14.3212 15.3002 13.95 15.3002H9.89995V12.6002H8.09995V15.3002H4.04508ZM4.04995 13.9502H5.39995V12.6002H4.04995V13.9502ZM4.04995 11.0252H5.39995V9.6752H4.04995V11.0252ZM4.04995 8.1002H5.39995V6.7502H4.04995V8.1002ZM6.74995 11.0252H8.09995V9.6752H6.74995V11.0252ZM6.74995 8.1002H8.09995V6.7502H6.74995V8.1002ZM6.74995 5.4002H8.09995V4.0502H6.74995V5.4002ZM9.44995 11.0252H10.8V9.6752H9.44995V11.0252ZM9.44995 8.1002H10.8V6.7502H9.44995V8.1002ZM9.44995 5.4002H10.8V4.0502H9.44995V5.4002ZM12.6 13.9502H13.95V12.6002H12.6V13.9502ZM12.6 11.0252H13.95V9.6752H12.6V11.0252Z" fill="#1E1D1D"/>
</g>
</svg>
