<svg preserveAspectRatio="none" width="100%" height="100%" overflow="visible" style="display: block;" viewBox="0 0 24 24" fill="none" xmlns="http://www.w3.org/2000/svg">
<g id="apartment">
<mask id="mask0_9969_22426" style="mask-type:alpha" maskUnits="userSpaceOnUse" x="0" y="0" width="24" height="24">
<rect id="Bounding box" width="24" height="24" fill="var(--fill-0, #D9D9D9)"/>
</mask>
<g mask="url(#mask0_9969_22426)">
<path id="apartment_2" d="M5.39352 20.4005C4.89737 20.4005 4.46274 20.223 4.08985 19.8688C3.71695 19.5146 3.52952 19.0795 3.52952 18.5645V9.00048C3.52952 8.48548 3.71714 8.05048 4.09033 7.69631C4.46352 7.34214 4.89868 7.16452 5.39519 7.16452H7.19952V5.40048C7.19952 4.88548 7.38714 4.45048 7.76033 4.09631C8.13352 3.74214 8.56868 3.56452 9.06519 3.56452H14.3995C14.896 3.56452 15.3308 3.74214 15.7042 4.09631C16.0776 4.45048 16.2652 4.88548 16.2652 5.40048V10.8005H18.6652C19.1617 10.8005 19.5966 10.9781 19.9697 11.3323C20.3429 11.6865 20.5295 12.1215 20.5295 12.6365V18.5645C20.5295 19.0795 20.3429 19.5146 19.9697 19.8688C19.5966 20.223 19.1617 20.4005 18.6652 20.4005H13.2995V16.9005H10.8995V20.4005H5.39352ZM5.39952 18.5645H7.19952V16.9005H5.39952V18.5645ZM5.39952 14.6345H7.19952V12.8995H5.39952V14.6345ZM5.39952 10.8005H7.19952V9.00048H5.39952V10.8005ZM9.00048 14.6345H10.8005V12.8995H9.00048V14.6345ZM9.00048 10.8005H10.8005V9.00048H9.00048V10.8005ZM9.00048 7.16452H10.8005V5.40048H9.00048V7.16452ZM16.9345 18.5645H18.6652V16.9005H16.9345V18.5645ZM16.9345 14.6345H18.6652V12.8995H16.9345V14.6345Z" fill="var(--fill-0, #1447D4)"/>
</g>
</g>
</svg>
