<svg width="17" height="17" viewBox="0 0 17 17" fill="none" xmlns="http://www.w3.org/2000/svg">
<mask id="mask0_9226_19965" style="mask-type:alpha" maskUnits="userSpaceOnUse" x="0" y="0" width="17" height="17">
<rect width="17" height="17" fill="#D9D9D9"/>
</mask>
<g mask="url(#mask0_9226_19965)">
<path d="M3.54167 14.875C3.15208 14.875 2.81858 14.7363 2.54115 14.4589C2.26372 14.1814 2.125 13.8479 2.125 13.4583V6.375C2.125 5.98542 2.26372 5.65191 2.54115 5.37448C2.81858 5.09705 3.15208 4.95833 3.54167 4.95833H4.95833V3.54167C4.95833 3.15208 5.09705 2.81858 5.37448 2.54115C5.65191 2.26372 5.98542 2.125 6.375 2.125H10.625C11.0146 2.125 11.3481 2.26372 11.6255 2.54115C11.903 2.81858 12.0417 3.15208 12.0417 3.54167V7.79167H13.4583C13.8479 7.79167 14.1814 7.93038 14.4589 8.20781C14.7363 8.48524 14.875 8.81875 14.875 9.20833V13.4583C14.875 13.8479 14.7363 14.1814 14.4589 14.4589C14.1814 14.7363 13.8479 14.875 13.4583 14.875H9.20833V12.0417H7.79167V14.875H3.54167ZM3.54167 13.4583H4.95833V12.0417H3.54167V13.4583ZM3.54167 10.625H4.95833V9.20833H3.54167V10.625ZM3.54167 7.79167H4.95833V6.375H3.54167V7.79167ZM6.375 10.625H7.79167V9.20833H6.375V10.625ZM6.375 7.79167H7.79167V6.375H6.375V7.79167ZM6.375 4.95833H7.79167V3.54167H6.375V4.95833ZM9.20833 10.625H10.625V9.20833H9.20833V10.625ZM9.20833 7.79167H10.625V6.375H9.20833V7.79167ZM9.20833 4.95833H10.625V3.54167H9.20833V4.95833ZM12.0417 13.4583H13.4583V12.0417H12.0417V13.4583ZM12.0417 10.625H13.4583V9.20833H12.0417V10.625Z" fill="#04247B"/>
</g>
</svg>
