<svg preserveAspectRatio="none" width="100%" height="100%" overflow="visible" style="display: block;" viewBox="0 0 18 18" fill="none" xmlns="http://www.w3.org/2000/svg">
<g id="apartment">
<mask id="mask0_9969_22346" style="mask-type:alpha" maskUnits="userSpaceOnUse" x="0" y="0" width="18" height="18">
<rect id="Bounding box" width="18" height="18" fill="var(--fill-0, #D9D9D9)"/>
</mask>
<g mask="url(#mask0_9969_22346)">
<path id="apartment_2" d="M4.04513 15.3C3.67338 15.3 3.35625 15.1678 3.09375 14.9034C2.83125 14.6391 2.7 14.3213 2.7 13.95V6.75C2.7 6.37875 2.832 6.06094 3.096 5.79656C3.35988 5.53219 3.67713 5.4 4.04775 5.4H5.39569V4.05C5.39569 3.67875 5.52763 3.36094 5.7915 3.09656C6.0555 2.83219 6.37331 2.7 6.74494 2.7H10.7987C11.1703 2.7 11.4884 2.83219 11.7531 3.09656C12.0177 3.36094 12.15 3.67875 12.15 4.05V8.1H13.95C14.3213 8.1 14.6391 8.23219 14.9034 8.49656C15.1678 8.76094 15.3 9.07875 15.3 9.45V13.95C15.3 14.3213 15.1678 14.6391 14.9034 14.9034C14.6391 15.1678 14.3213 15.3 13.95 15.3H9.9V12.6H8.1V15.3H4.04513ZM4.05 13.95H5.4V12.6H4.05V13.95ZM4.05 11.025H5.4V9.675H4.05V11.025ZM4.05 8.1H5.4V6.75H4.05V8.1ZM6.75 11.025H8.1V9.675H6.75V11.025ZM6.75 8.1H8.1V6.75H6.75V8.1ZM6.75 5.4H8.1V4.05H6.75V5.4ZM9.45 11.025H10.8V9.675H9.45V11.025ZM9.45 8.1H10.8V6.75H9.45V8.1ZM9.45 5.4H10.8V4.05H9.45V5.4ZM12.6 13.95H13.95V12.6H12.6V13.95ZM12.6 11.025H13.95V9.675H12.6V11.025Z" fill="var(--fill-0, #1E1D1D)"/>
</g>
</g>
</svg>
