<svg width="17" height="17" viewBox="0 0 17 17" fill="none" xmlns="http://www.w3.org/2000/svg">
<path d="M12.8315 15.8581C11.9915 16.7024 11.0744 16.5691 10.1916 16.1691C9.2573 15.7603 8.40018 15.7425 7.41449 16.1691C6.18024 16.7202 5.52883 16.5602 4.79171 15.8581C0.608962 11.3875 1.22609 4.57948 5.97453 4.33063C7.13164 4.39284 7.93733 4.98832 8.61446 5.04165C9.62586 4.82834 10.5944 4.21509 11.6744 4.29508C12.9686 4.40173 13.9457 4.935 14.5886 5.89487C11.9144 7.55689 12.5486 11.2098 15 12.2319C14.5114 13.565 13.8772 14.8893 12.8229 15.867L12.8315 15.8581ZM8.52875 4.2773C8.40018 2.29533 9.95157 0.65998 11.7344 0.5C11.9829 2.79304 9.72871 4.4995 8.52875 4.2773Z" fill="black"/>
</svg>
