<svg width="25" height="25" viewBox="0 0 25 25" fill="none" xmlns="http://www.w3.org/2000/svg">
<mask id="mask0_10319_36743" style="mask-type:alpha" maskUnits="userSpaceOnUse" x="0" y="0" width="25" height="25">
<rect x="25" y="25" width="25" height="25" transform="rotate(-180 25 25)" fill="#D9D9D9"/>
</mask>
<g mask="url(#mask0_10319_36743)">
<path d="M8.15365 11.4583L19.7943 11.4583C20.0894 11.4583 20.3368 11.5582 20.5365 11.7578C20.7361 11.9575 20.8359 12.2049 20.8359 12.5C20.8359 12.7951 20.7361 13.0425 20.5365 13.2422C20.3368 13.4418 20.0894 13.5417 19.7943 13.5417L8.15365 13.5417L13.2578 18.6458C13.4661 18.8542 13.566 19.0972 13.5573 19.375C13.5486 19.6528 13.4401 19.8958 13.2318 20.1042C13.0234 20.2951 12.7804 20.395 12.5026 20.4037C12.2248 20.4123 11.9818 20.3125 11.7734 20.1042L4.89844 13.2292C4.79427 13.125 4.72049 13.0122 4.67708 12.8906C4.63368 12.7691 4.61198 12.6389 4.61198 12.5C4.61198 12.3611 4.63368 12.2309 4.67708 12.1094C4.72049 11.9879 4.79427 11.875 4.89844 11.7708L11.7734 4.89584C11.9644 4.70487 12.2031 4.60938 12.4896 4.60938C12.776 4.60938 13.0234 4.70487 13.2318 4.89584C13.4401 5.10418 13.5443 5.35157 13.5443 5.63803C13.5443 5.92449 13.4401 6.17188 13.2318 6.38022L8.15365 11.4583Z" fill="#1447D4"/>
</g>
</svg>
