<svg width="25" height="25" viewBox="0 0 25 25" fill="none" xmlns="http://www.w3.org/2000/svg">
<mask id="mask0_10064_43423" style="mask-type:alpha" maskUnits="userSpaceOnUse" x="0" y="0" width="25" height="25">
<rect x="25" y="25" width="25" height="25" transform="rotate(-180 25 25)" fill="#D9D9D9"/>
</mask>
<g mask="url(#mask0_10064_43423)">
<path d="M8.15072 11.4585L19.7913 11.4585C20.0865 11.4585 20.3339 11.5583 20.5335 11.7579C20.7332 11.9576 20.833 12.205 20.833 12.5001C20.833 12.7953 20.7332 13.0427 20.5335 13.2423C20.3339 13.442 20.0865 13.5418 19.7913 13.5418L8.15072 13.5418L13.2549 18.646C13.4632 18.8543 13.563 19.0974 13.5544 19.3751C13.5457 19.6529 13.4372 19.896 13.2288 20.1043C13.0205 20.2953 12.7775 20.3951 12.4997 20.4038C12.2219 20.4125 11.9788 20.3126 11.7705 20.1043L4.89551 13.2293C4.79134 13.1251 4.71756 13.0123 4.67415 12.8908C4.63075 12.7692 4.60905 12.639 4.60905 12.5001C4.60905 12.3612 4.63075 12.231 4.67416 12.1095C4.71756 11.988 4.79134 11.8751 4.89551 11.771L11.7705 4.89597C11.9615 4.70499 12.2002 4.60951 12.4867 4.60951C12.7731 4.60951 13.0205 4.70499 13.2288 4.89597C13.4372 5.1043 13.5413 5.35169 13.5413 5.63815C13.5413 5.92461 13.4372 6.17201 13.2288 6.38034L8.15072 11.4585Z" fill="#1447D4"/>
</g>
</svg>
