<svg width="12" height="12" viewBox="0 0 12 12" fill="none" xmlns="http://www.w3.org/2000/svg">
<mask id="mask0_9139_3761" style="mask-type:alpha" maskUnits="userSpaceOnUse" x="0" y="0" width="12" height="12">
<rect width="12" height="12" fill="#D9D9D9"/>
</mask>
<g mask="url(#mask0_9139_3761)">
<path d="M8.3135 6.375H2.625C2.51858 6.375 2.4295 6.33909 2.35775 6.26725C2.28592 6.1955 2.25 6.10642 2.25 6C2.25 5.89359 2.28592 5.8045 2.35775 5.73275C2.4295 5.66092 2.51858 5.625 2.625 5.625H8.3135L5.72887 3.04038C5.65454 2.96605 5.61783 2.87904 5.61875 2.77938C5.61975 2.67971 5.659 2.59109 5.7365 2.5135C5.81408 2.44109 5.90192 2.40359 6 2.401C6.09808 2.39842 6.18592 2.43592 6.2635 2.5135L9.43363 5.68363C9.48046 5.73046 9.51346 5.77984 9.53262 5.83175C9.55187 5.88367 9.5615 5.93975 9.5615 6C9.5615 6.06025 9.55187 6.11634 9.53262 6.16825C9.51346 6.22017 9.48046 6.26955 9.43363 6.31638L6.2635 9.4865C6.19425 9.55575 6.1085 9.59117 6.00625 9.59275C5.904 9.59434 5.81408 9.55892 5.7365 9.4865C5.659 9.40892 5.62025 9.31984 5.62025 9.21925C5.62025 9.11859 5.659 9.02946 5.7365 8.95188L8.3135 6.375Z" fill="#464646"/>
</g>
</svg>
