<svg preserveAspectRatio="none" width="100%" height="100%" overflow="visible" style="display: block;" viewBox="0 0 20 20" fill="none" xmlns="http://www.w3.org/2000/svg">
<g id="arrow_forward">
<mask id="mask0_9969_22434" style="mask-type:alpha" maskUnits="userSpaceOnUse" x="0" y="0" width="20" height="20">
<rect id="Bounding box" x="1.00537e-06" y="6.55651e-07" width="20" height="20" fill="var(--fill-0, #D9D9D9)"/>
</mask>
<g mask="url(#mask0_9969_22434)">
<path id="arrow_forward_2" d="M13.4794 10.8333H4.16693C3.93082 10.8333 3.7329 10.7535 3.57318 10.5937C3.41346 10.434 3.33359 10.2361 3.33359 10C3.33359 9.76389 3.41346 9.56597 3.57318 9.40625C3.7329 9.24653 3.93082 9.16667 4.16693 9.16667H13.4794L9.3961 5.08333C9.22943 4.91667 9.14957 4.72222 9.15651 4.5C9.16346 4.27778 9.25026 4.08333 9.41693 3.91667C9.5836 3.76389 9.77804 3.68403 10.0003 3.67708C10.2225 3.67014 10.4169 3.75 10.5836 3.91667L16.0836 9.41667C16.1669 9.5 16.226 9.59028 16.2607 9.6875C16.2954 9.78472 16.3128 9.88889 16.3128 10C16.3128 10.1111 16.2954 10.2153 16.2607 10.3125C16.226 10.4097 16.1669 10.5 16.0836 10.5833L10.5836 16.0833C10.4308 16.2361 10.2398 16.3125 10.0107 16.3125C9.78151 16.3125 9.5836 16.2361 9.41693 16.0833C9.25026 15.9167 9.16693 15.7187 9.16693 15.4896C9.16693 15.2604 9.25026 15.0625 9.41693 14.8958L13.4794 10.8333Z" fill="var(--fill-0, #04247B)"/>
</g>
</g>
</svg>
