<svg width="18" height="18" viewBox="0 0 18 18" fill="none" xmlns="http://www.w3.org/2000/svg">
<mask id="mask0_9222_11698" style="mask-type:alpha" maskUnits="userSpaceOnUse" x="0" y="0" width="18" height="18">
<rect x="18" y="18" width="18" height="18" transform="rotate(-180 18 18)" fill="#464646"/>
</mask>
<g mask="url(#mask0_9222_11698)">
<path d="M5.86875 8.24992L14.25 8.24992C14.4625 8.24992 14.6406 8.32179 14.7844 8.46554C14.9281 8.60929 15 8.78742 15 8.99992C15 9.21242 14.9281 9.39054 14.7844 9.53429C14.6406 9.67804 14.4625 9.74992 14.25 9.74992L5.86875 9.74992L9.54375 13.4249C9.69375 13.5749 9.76563 13.7499 9.75938 13.9499C9.75313 14.1499 9.675 14.3249 9.525 14.4749C9.375 14.6124 9.2 14.6843 9 14.6905C8.8 14.6968 8.625 14.6249 8.475 14.4749L3.525 9.52492C3.45 9.44992 3.39688 9.36867 3.36563 9.28117C3.33438 9.19367 3.31875 9.09992 3.31875 8.99992C3.31875 8.89992 3.33438 8.80617 3.36563 8.71867C3.39688 8.63117 3.45 8.54992 3.525 8.47492L8.475 3.52492C8.6125 3.38742 8.78438 3.31867 8.99063 3.31867C9.19688 3.31867 9.375 3.38742 9.525 3.52492C9.675 3.67492 9.75 3.85304 9.75 4.05929C9.75 4.26554 9.675 4.44367 9.525 4.59367L5.86875 8.24992Z" fill="#707070"/>
</g>
</svg>
