<svg width="17" height="17" viewBox="0 0 17 17" fill="none" xmlns="http://www.w3.org/2000/svg">
<mask id="mask0_10162_11650" style="mask-type:alpha" maskUnits="userSpaceOnUse" x="0" y="0" width="17" height="17">
<rect width="17" height="17" fill="#D9D9D9"/>
</mask>
<g mask="url(#mask0_10162_11650)">
<path d="M7.86236 11.1562V4.03705C7.86236 3.85654 7.9231 3.70519 8.04458 3.58301C8.16606 3.46094 8.31658 3.3999 8.49615 3.3999C8.67571 3.3999 8.82747 3.46094 8.95143 3.58301C9.07539 3.70519 9.13736 3.85654 9.13736 4.03705V11.1562L12.2577 8.03577C12.3851 7.90838 12.5344 7.84469 12.7056 7.84469C12.8768 7.84469 13.0301 7.90962 13.1657 8.03949C13.2899 8.16935 13.3519 8.31987 13.3519 8.49105C13.3519 8.66223 13.2881 8.81163 13.1603 8.93925L8.94417 13.1501C8.8803 13.2139 8.81112 13.2605 8.73662 13.29C8.66213 13.3195 8.58227 13.3343 8.49703 13.3343C8.41191 13.3343 8.33205 13.3195 8.25744 13.29C8.18294 13.2605 8.11618 13.2162 8.05716 13.1572L3.84257 8.94261C3.71271 8.81275 3.65073 8.66223 3.65663 8.49105C3.66254 8.31987 3.72759 8.16935 3.85178 8.03949C3.98731 7.90962 4.14167 7.84469 4.31485 7.84469C4.48792 7.84469 4.63744 7.90962 4.76341 8.03949L7.86236 11.1562Z" fill="white"/>
</g>
</svg>
