<svg width="17" height="17" viewBox="0 0 17 17" fill="none" xmlns="http://www.w3.org/2000/svg">
<mask id="mask0_10526_19704" style="mask-type:alpha" maskUnits="userSpaceOnUse" x="0" y="0" width="17" height="17">
<rect width="17" height="17" fill="#D9D9D9"/>
</mask>
<g mask="url(#mask0_10526_19704)">
<path d="M7.86236 11.1563V4.03717C7.86236 3.85666 7.9231 3.70532 8.04458 3.58313C8.16606 3.46106 8.31658 3.40002 8.49615 3.40002C8.67571 3.40002 8.82747 3.46106 8.95143 3.58313C9.07539 3.70532 9.13736 3.85666 9.13736 4.03717V11.1563L12.2577 8.03589C12.3851 7.90851 12.5344 7.84482 12.7056 7.84482C12.8768 7.84482 13.0301 7.90975 13.1657 8.03961C13.2899 8.16947 13.3519 8.31999 13.3519 8.49117C13.3519 8.66235 13.2881 8.81175 13.1603 8.93937L8.94417 13.1502C8.8803 13.214 8.81112 13.2606 8.73662 13.2901C8.66213 13.3196 8.58227 13.3344 8.49703 13.3344C8.41191 13.3344 8.33205 13.3196 8.25744 13.2901C8.18294 13.2606 8.11618 13.2163 8.05716 13.1573L3.84257 8.94273C3.71271 8.81287 3.65073 8.66235 3.65663 8.49117C3.66254 8.31999 3.72759 8.16947 3.85178 8.03961C3.98731 7.90975 4.14167 7.84482 4.31485 7.84482C4.48792 7.84482 4.63744 7.90975 4.76341 8.03961L7.86236 11.1563Z" fill="#1E1D1D"/>
</g>
</svg>
