<svg preserveAspectRatio="none" width="100%" height="100%" overflow="visible" style="display: block;" viewBox="0 0 18 18" fill="none" xmlns="http://www.w3.org/2000/svg">
<g id="arrow">
<mask id="mask0_9967_23318" style="mask-type:alpha" maskUnits="userSpaceOnUse" x="0" y="0" width="18" height="18">
<rect id="Bounding box" width="18" height="18" fill="var(--fill-0, #D9D9D9)"/>
</mask>
<g mask="url(#mask0_9967_23318)">
<path id="arrow_2" d="M12.1308 9.75H3.74953C3.53703 9.75 3.35891 9.67812 3.21516 9.53437C3.07141 9.39062 2.99953 9.2125 2.99953 9C2.99953 8.7875 3.07141 8.60937 3.21516 8.46562C3.35891 8.32187 3.53703 8.25 3.74953 8.25H12.1308L8.45578 4.575C8.30578 4.425 8.23391 4.25 8.24016 4.05C8.24641 3.85 8.32453 3.675 8.47453 3.525C8.62453 3.3875 8.79953 3.31562 8.99953 3.30937C9.19953 3.30312 9.37453 3.375 9.52453 3.525L14.4745 8.475C14.5495 8.55 14.6027 8.63125 14.6339 8.71875C14.6652 8.80625 14.6808 8.9 14.6808 9C14.6808 9.1 14.6652 9.19375 14.6339 9.28125C14.6027 9.36875 14.5495 9.45 14.4745 9.525L9.52453 14.475C9.38703 14.6125 9.21516 14.6812 9.00891 14.6812C8.80266 14.6812 8.62453 14.6125 8.47453 14.475C8.32453 14.325 8.24953 14.1469 8.24953 13.9406C8.24953 13.7344 8.32453 13.5562 8.47453 13.4062L12.1308 9.75Z" fill="var(--fill-0, #1E1D1D)"/>
</g>
</g>
</svg>
