<svg width="18" height="18" viewBox="0 0 18 18" fill="none" xmlns="http://www.w3.org/2000/svg">
<mask id="mask0_9177_19851" style="mask-type:alpha" maskUnits="userSpaceOnUse" x="0" y="0" width="18" height="18">
<rect width="18" height="18" fill="#D9D9D9"/>
</mask>
<g mask="url(#mask0_9177_19851)">
<path d="M8.32463 11.8125V4.2746C8.32463 4.08348 8.38894 3.92323 8.51756 3.79385C8.64619 3.6646 8.80556 3.59998 8.99569 3.59998C9.18581 3.59998 9.3465 3.6646 9.47775 3.79385C9.609 3.92323 9.67463 4.08348 9.67463 4.2746V11.8125L12.9786 8.50854C13.1134 8.37366 13.2715 8.30623 13.4528 8.30623C13.634 8.30623 13.7964 8.37498 13.9399 8.51248C14.0714 8.64998 14.1371 8.80935 14.1371 8.9906C14.1371 9.17185 14.0695 9.33004 13.9343 9.46516L9.47006 13.9237C9.40244 13.9912 9.32919 14.0406 9.25031 14.0719C9.17144 14.1031 9.08688 14.1187 8.99663 14.1187C8.9065 14.1187 8.82194 14.1031 8.74294 14.0719C8.66406 14.0406 8.59338 13.9937 8.53088 13.9312L4.06838 9.46873C3.93088 9.33123 3.86525 9.17185 3.8715 8.9906C3.87775 8.80935 3.94663 8.64998 4.07813 8.51248C4.22163 8.37498 4.38506 8.30623 4.56844 8.30623C4.75169 8.30623 4.91 8.37498 5.04338 8.51248L8.32463 11.8125Z" fill="#1447D4"/>
</g>
</svg>
