<svg preserveAspectRatio="none" width="100%" height="100%" overflow="visible" style="display: block;" viewBox="0 0 9.6957 9.93437" fill="none" xmlns="http://www.w3.org/2000/svg">
<path id="arrow_downward" d="M4.20611 7.75625V0.637145C4.20611 0.456639 4.26685 0.305292 4.38833 0.183105C4.50981 0.0610352 4.66033 0 4.8399 0C5.01946 0 5.17122 0.0610352 5.29518 0.183105C5.41914 0.305292 5.48111 0.456639 5.48111 0.637145V7.75625L8.6015 4.63586C8.72888 4.50848 8.87816 4.44479 9.04934 4.44479C9.22052 4.44479 9.37388 4.50972 9.50941 4.63958C9.6336 4.76944 9.6957 4.91997 9.6957 5.09115C9.6957 5.26233 9.63183 5.41173 9.50409 5.53934L5.28792 9.75021C5.22405 9.81396 5.15487 9.86059 5.08037 9.8901C5.00588 9.91962 4.92602 9.93437 4.84078 9.93437C4.75566 9.93437 4.6758 9.91962 4.60119 9.8901C4.52669 9.86059 4.45993 9.81632 4.40091 9.75729L0.186322 5.54271C0.0564613 5.41285 -0.00551781 5.26233 0.000384964 5.09115C0.00628774 4.91997 0.0713364 4.76944 0.195531 4.63958C0.331059 4.50972 0.485416 4.44479 0.658604 4.44479C0.831673 4.44479 0.981191 4.50972 1.10716 4.63958L4.20611 7.75625Z" fill="var(--fill-0, #1E1D1D)"/>
</svg>
