<svg preserveAspectRatio="none" width="100%" height="100%" overflow="visible" style="display: block;" viewBox="0 0 10.266 10.5188" fill="none" xmlns="http://www.w3.org/2000/svg">
<path id="arrow_downward" d="M4.45353 8.2125V0.674625C4.45353 0.4835 4.51785 0.323251 4.64647 0.193876C4.7751 0.0646255 4.93447 0 5.1246 0C5.31472 0 5.47541 0.0646255 5.60666 0.193876C5.73791 0.323251 5.80353 0.4835 5.80353 0.674625V8.2125L9.10747 4.90856C9.24235 4.77369 9.40041 4.70625 9.58166 4.70625C9.76291 4.70625 9.92528 4.775 10.0688 4.9125C10.2003 5.05 10.266 5.20938 10.266 5.39063C10.266 5.57188 10.1984 5.73006 10.0632 5.86519L5.59897 10.3237C5.53135 10.3912 5.4581 10.4406 5.37922 10.4719C5.30035 10.5031 5.21578 10.5188 5.12553 10.5188C5.03541 10.5188 4.95085 10.5031 4.87185 10.4719C4.79297 10.4406 4.72228 10.3938 4.65978 10.3313L0.197283 5.86875C0.0597826 5.73125 -0.00584239 5.57188 0.000407609 5.39063C0.00665761 5.20938 0.0755327 5.05 0.207033 4.9125C0.350533 4.775 0.51397 4.70625 0.697345 4.70625C0.880595 4.70625 1.03891 4.775 1.17228 4.9125L4.45353 8.2125Z" fill="var(--fill-0, #1447D4)"/>
</svg>
