<svg width="20" height="20" viewBox="0 0 20 20" fill="none" xmlns="http://www.w3.org/2000/svg">
<mask id="mask0_9957_2884" style="mask-type:alpha" maskUnits="userSpaceOnUse" x="0" y="0" width="20" height="20">
<rect width="20" height="20" fill="#D9D9D9"/>
</mask>
<g mask="url(#mask0_9957_2884)">
<path d="M5 18C4.71667 18 4.47917 17.9042 4.2875 17.7125C4.09583 17.5208 4 17.2833 4 17H3.5C3.0875 17 2.73438 16.8533 2.44063 16.5598C2.14688 16.2665 2 15.9138 2 15.5017V11.7558C2 11.5436 2.07187 11.3646 2.21562 11.2188C2.35938 11.0729 2.5375 11 2.75 11H5C6.75736 11 7.74264 11 9.5 11H15V4.33333C15 4.09722 14.9236 3.89931 14.7708 3.73958C14.6181 3.57986 14.4236 3.5 14.1875 3.5C14.0069 3.5 13.8472 3.55208 13.7083 3.65625C13.5694 3.76042 13.4375 3.875 13.3125 4L12.6875 4.625C12.7569 4.88944 12.7604 5.15 12.6979 5.40667C12.6354 5.66333 12.5069 5.88194 12.3125 6.0625L10.1875 3.9375C10.3681 3.74306 10.5833 3.61458 10.8333 3.55208C11.0833 3.48958 11.3403 3.49306 11.6042 3.5625L12.4792 2.70833C12.6986 2.48611 12.9489 2.3125 13.23 2.1875C13.5112 2.0625 13.8096 2 14.125 2C14.7917 2 15.3542 2.23611 15.8125 2.70833C16.2708 3.18056 16.5 3.75 16.5 4.41667V11H17.2456C17.4569 11 17.6354 11.0719 17.7812 11.2158C17.9271 11.3599 18 11.5382 18 11.7508V15.5054C18 15.9185 17.8531 16.2708 17.5594 16.5625C17.2656 16.8542 16.9125 17 16.5 17H16C16 17.2833 15.9042 17.5208 15.7125 17.7125C15.5208 17.9042 15.2833 18 15 18H5ZM3.5 15.5H16.5V12.5H3.5V15.5Z" fill="#464646"/>
</g>
</svg>
