<svg preserveAspectRatio="none" width="100%" height="100%" overflow="visible" style="display: block;" viewBox="0 0 22 22" fill="none" xmlns="http://www.w3.org/2000/svg">
<g id="bathtub">
<mask id="mask0_9957_22079" style="mask-type:alpha" maskUnits="userSpaceOnUse" x="0" y="0" width="22" height="22">
<rect id="Bounding box" width="22" height="22" fill="var(--fill-0, #D9D9D9)"/>
</mask>
<g mask="url(#mask0_9957_22079)">
<path id="bathtub_2" d="M5.5 19.8C5.18833 19.8 4.92708 19.6946 4.71625 19.4838C4.50542 19.2729 4.4 19.0117 4.4 18.7H3.85C3.39625 18.7 3.00781 18.5386 2.68469 18.2158C2.36156 17.8931 2.2 17.5051 2.2 17.0518V12.9314C2.2 12.698 2.27906 12.501 2.43719 12.3406C2.59531 12.1802 2.79125 12.1 3.025 12.1H5.5C7.4331 12.1 8.5169 12.1 10.45 12.1H16.5V4.76667C16.5 4.50694 16.416 4.28924 16.2479 4.11354C16.0799 3.93785 15.866 3.85 15.6063 3.85C15.4076 3.85 15.2319 3.90729 15.0792 4.02188C14.9264 4.13646 14.7813 4.2625 14.6438 4.4L13.9563 5.0875C14.0326 5.37839 14.0365 5.665 13.9677 5.94733C13.899 6.22967 13.7576 6.47014 13.5438 6.66875L11.2063 4.33125C11.4049 4.11736 11.6417 3.97604 11.9167 3.90729C12.1917 3.83854 12.4743 3.84236 12.7646 3.91875L13.7271 2.97917C13.9685 2.73472 14.2438 2.54375 14.553 2.40625C14.8624 2.26875 15.1905 2.2 15.5375 2.2C16.2708 2.2 16.8896 2.45972 17.3938 2.97917C17.8979 3.49861 18.15 4.125 18.15 4.85833V12.1H18.9702C19.2026 12.1 19.399 12.1791 19.5594 12.3374C19.7198 12.4958 19.8 12.692 19.8 12.9259V17.056C19.8 17.5103 19.6384 17.8979 19.3153 18.2188C18.9922 18.5396 18.6038 18.7 18.15 18.7H17.6C17.6 19.0117 17.4946 19.2729 17.2838 19.4838C17.0729 19.6946 16.8117 19.8 16.5 19.8H5.5ZM3.85 17.05H18.15V13.75H3.85V17.05Z" fill="var(--fill-0, #1447D4)"/>
</g>
</g>
</svg>
