<svg preserveAspectRatio="none" width="100%" height="100%" overflow="visible" style="display: block;" viewBox="0 0 22 22" fill="none" xmlns="http://www.w3.org/2000/svg">
<g id="bed">
<mask id="mask0_9957_22087" style="mask-type:alpha" maskUnits="userSpaceOnUse" x="0" y="0" width="22" height="22">
<rect id="Bounding box" width="22" height="22" fill="var(--fill-0, #D9D9D9)"/>
</mask>
<g mask="url(#mask0_9957_22087)">
<path id="bed_2" d="M2.2 15.675V11.55C2.2 11.1528 2.29549 10.7785 2.48646 10.4271C2.67743 10.0757 2.94861 9.81597 3.3 9.64792V7.7C3.3 7.08889 3.51389 6.56944 3.94167 6.14167C4.36944 5.71389 4.88889 5.5 5.5 5.5H9.625C9.88717 5.5 10.1322 5.54201 10.3602 5.62604C10.5881 5.71007 10.8014 5.83611 11 6.00417C11.1986 5.83611 11.4119 5.71007 11.6398 5.62604C11.8678 5.54201 12.1128 5.5 12.375 5.5H16.5C17.1111 5.5 17.6306 5.71389 18.0583 6.14167C18.4861 6.56944 18.7 7.08889 18.7 7.7V9.64792C19.0514 9.81597 19.3226 10.0757 19.5135 10.4271C19.7045 10.7785 19.8 11.1528 19.8 11.55V15.675C19.8 15.9088 19.7214 16.1047 19.5642 16.2628C19.407 16.4209 19.2122 16.5 18.9798 16.5C18.7474 16.5 18.551 16.4209 18.3906 16.2628C18.2302 16.1047 18.15 15.9088 18.15 15.675V14.85H3.85V15.6702C3.85 15.9026 3.7714 16.099 3.61419 16.2594C3.45698 16.4198 3.26219 16.5 3.02981 16.5C2.79744 16.5 2.60104 16.4209 2.44063 16.2628C2.28021 16.1047 2.2 15.9088 2.2 15.675ZM11.825 9.35H17.05V7.7C17.05 7.54417 16.9973 7.41354 16.8919 7.30813C16.7865 7.20271 16.6558 7.15 16.5 7.15H12.375C12.2192 7.15 12.0885 7.20271 11.9831 7.30813C11.8777 7.41354 11.825 7.54417 11.825 7.7V9.35ZM4.95 9.35H10.175V7.7C10.175 7.54417 10.1223 7.41354 10.0169 7.30813C9.91146 7.20271 9.78083 7.15 9.625 7.15H5.5C5.34417 7.15 5.21354 7.20271 5.10813 7.30813C5.00271 7.41354 4.95 7.54417 4.95 7.7V9.35ZM3.85 13.2H18.15V11.55C18.15 11.3942 18.0973 11.2635 17.9919 11.1581C17.8865 11.0527 17.7558 11 17.6 11H4.4C4.24417 11 4.11354 11.0527 4.00813 11.1581C3.90271 11.2635 3.85 11.3942 3.85 11.55V13.2Z" fill="var(--fill-0, #1447D4)"/>
</g>
</g>
</svg>
