<svg width="20" height="20" viewBox="0 0 20 20" fill="none" xmlns="http://www.w3.org/2000/svg">
<mask id="mask0_9957_2879" style="mask-type:alpha" maskUnits="userSpaceOnUse" x="0" y="0" width="20" height="20">
<rect width="20" height="20" fill="#D9D9D9"/>
</mask>
<g mask="url(#mask0_9957_2879)">
<path d="M2 14.25V10.5C2 10.1389 2.08681 9.79861 2.26042 9.47917C2.43403 9.15972 2.68056 8.92361 3 8.77083V7C3 6.44444 3.19444 5.97222 3.58333 5.58333C3.97222 5.19444 4.44444 5 5 5H8.75C8.98833 5 9.21111 5.03819 9.41833 5.11458C9.62556 5.19097 9.81944 5.30556 10 5.45833C10.1806 5.30556 10.3744 5.19097 10.5817 5.11458C10.7889 5.03819 11.0117 5 11.25 5H15C15.5556 5 16.0278 5.19444 16.4167 5.58333C16.8056 5.97222 17 6.44444 17 7V8.77083C17.3194 8.92361 17.566 9.15972 17.7396 9.47917C17.9132 9.79861 18 10.1389 18 10.5V14.25C18 14.4625 17.9285 14.6406 17.7856 14.7844C17.6427 14.9281 17.4656 15 17.2544 15C17.0431 15 16.8646 14.9281 16.7188 14.7844C16.5729 14.6406 16.5 14.4625 16.5 14.25V13.5H3.5V14.2456C3.5 14.4569 3.42854 14.6354 3.28563 14.7812C3.14271 14.9271 2.96563 15 2.75438 15C2.54313 15 2.36458 14.9281 2.21875 14.7844C2.07292 14.6406 2 14.4625 2 14.25ZM10.75 8.5H15.5V7C15.5 6.85833 15.4521 6.73958 15.3562 6.64375C15.2604 6.54792 15.1417 6.5 15 6.5H11.25C11.1083 6.5 10.9896 6.54792 10.8938 6.64375C10.7979 6.73958 10.75 6.85833 10.75 7V8.5ZM4.5 8.5H9.25V7C9.25 6.85833 9.20208 6.73958 9.10625 6.64375C9.01042 6.54792 8.89167 6.5 8.75 6.5H5C4.85833 6.5 4.73958 6.54792 4.64375 6.64375C4.54792 6.73958 4.5 6.85833 4.5 7V8.5ZM3.5 12H16.5V10.5C16.5 10.3583 16.4521 10.2396 16.3562 10.1438C16.2604 10.0479 16.1417 10 16 10H4C3.85833 10 3.73958 10.0479 3.64375 10.1438C3.54792 10.2396 3.5 10.3583 3.5 10.5V12Z" fill="#464646"/>
</g>
</svg>
