<svg width="25" height="25" viewBox="0 0 25 25" fill="none" xmlns="http://www.w3.org/2000/svg">
<mask id="mask0_9226_19419" style="mask-type:alpha" maskUnits="userSpaceOnUse" x="0" y="0" width="25" height="25">
<rect width="25" height="25" fill="#D9D9D9"/>
</mask>
<g mask="url(#mask0_9226_19419)">
<path d="M7.29232 13.5417V21.875C7.29232 22.1701 7.19249 22.4175 6.99284 22.6172C6.79319 22.8168 6.54579 22.9167 6.25065 22.9167C5.95551 22.9167 5.70812 22.8168 5.50846 22.6172C5.30881 22.4175 5.20898 22.1701 5.20898 21.875V4.16667C5.20898 3.87153 5.30881 3.62413 5.50846 3.42448C5.70812 3.22483 5.95551 3.125 6.25065 3.125H20.3392C20.5302 3.125 20.6994 3.1684 20.847 3.25521C20.9946 3.34201 21.1118 3.45486 21.1986 3.59375C21.2854 3.73264 21.3418 3.88455 21.3678 4.04948C21.3939 4.21441 21.3722 4.38368 21.3027 4.55729L19.7923 8.33333L21.3027 12.1094C21.3722 12.283 21.3939 12.4523 21.3678 12.6172C21.3418 12.7821 21.2854 12.934 21.1986 13.0729C21.1118 13.2118 20.9946 13.3247 20.847 13.4115C20.6994 13.4983 20.5302 13.5417 20.3392 13.5417H7.29232ZM7.29232 11.4583H18.8027L17.8652 9.11458C17.7611 8.87153 17.709 8.61111 17.709 8.33333C17.709 8.05556 17.7611 7.79514 17.8652 7.55208L18.8027 5.20833H7.29232V11.4583Z" fill="#1447D4"/>
</g>
</svg>
