<svg width="18" height="18" viewBox="0 0 18 18" fill="none" xmlns="http://www.w3.org/2000/svg">
<mask id="mask0_10448_43582" style="mask-type:alpha" maskUnits="userSpaceOnUse" x="0" y="0" width="18" height="18">
<rect width="18" height="18" fill="#D9D9D9"/>
</mask>
<g mask="url(#mask0_10448_43582)">
<path d="M7.91226 13.6495L11.7935 8.99954H8.79351L9.33726 4.74329L5.86851 9.74954H8.47476L7.91226 13.6495ZM7.18251 10.8745H4.90082C4.64882 10.8745 4.46419 10.763 4.34694 10.5398C4.22957 10.3168 4.24401 10.102 4.39026 9.89522L9.30407 2.80641C9.40507 2.66504 9.53394 2.56835 9.69069 2.51635C9.84732 2.46447 10.0103 2.46885 10.1795 2.52947C10.3488 2.58997 10.4726 2.69354 10.5509 2.84016C10.6293 2.98679 10.6584 3.14472 10.6381 3.31397L10.0743 7.87454H12.8724C13.1396 7.87454 13.3281 7.99429 13.4377 8.23379C13.5473 8.47316 13.5151 8.69622 13.3411 8.90297L7.90794 15.4105C7.79932 15.5394 7.66663 15.6228 7.50988 15.6608C7.35313 15.6987 7.20026 15.6835 7.05126 15.6153C6.90226 15.547 6.78663 15.4427 6.70438 15.3023C6.62213 15.162 6.59113 15.0072 6.61138 14.8379L7.18251 10.8745Z" fill="#1E1D1D"/>
</g>
</svg>
