<svg width="28" height="28" viewBox="0 0 28 28" fill="none" xmlns="http://www.w3.org/2000/svg">
<mask id="mask0_10301_43605" style="mask-type:alpha" maskUnits="userSpaceOnUse" x="0" y="0" width="28" height="28">
<rect width="28" height="28" fill="#D9D9D9"/>
</mask>
<g mask="url(#mask0_10301_43605)">
<path d="M12.3081 21.2325L18.3456 13.9992H13.679L14.5248 7.37834L9.12895 15.1658H13.1831L12.3081 21.2325ZM11.173 16.9158H7.62366C7.23166 16.9158 6.94446 16.7423 6.76208 16.3952C6.57949 16.0483 6.60195 15.7141 6.82945 15.3925L14.4732 4.36542C14.6303 4.1455 14.8307 3.9951 15.0746 3.91421C15.3182 3.83352 15.5717 3.84032 15.835 3.93463C16.0982 4.02874 16.2908 4.18984 16.4127 4.41792C16.5347 4.646 16.5799 4.89169 16.5484 5.15496L15.6713 12.2492H20.0239C20.4396 12.2492 20.7327 12.4354 20.9032 12.808C21.0738 13.1804 21.0237 13.5274 20.753 13.849L12.3014 23.9718C12.1324 24.1723 11.926 24.3021 11.6822 24.3612C11.4384 24.4201 11.2006 24.3965 10.9688 24.2903C10.737 24.1842 10.5571 24.0219 10.4292 23.8035C10.3013 23.5852 10.253 23.3444 10.2845 23.0811L11.173 16.9158Z" fill="#FFD900"/>
</g>
</svg>
