<svg preserveAspectRatio="none" width="100%" height="100%" overflow="visible" style="display: block;" viewBox="0 0 18 18" fill="none" xmlns="http://www.w3.org/2000/svg">
<g id="bolt">
<mask id="mask0_9970_22467" style="mask-type:alpha" maskUnits="userSpaceOnUse" x="0" y="0" width="18" height="18">
<rect id="Bounding box" width="18" height="18" fill="var(--fill-0, #D9D9D9)"/>
</mask>
<g mask="url(#mask0_9970_22467)">
<path id="bolt_2" d="M7.9125 13.65L11.7938 9H8.79375L9.3375 4.74375L5.86875 9.75H8.475L7.9125 13.65ZM7.18275 10.875H4.90106C4.64906 10.875 4.46444 10.7634 4.34719 10.5403C4.22981 10.3173 4.24425 10.1024 4.3905 9.89569L9.30431 2.80687C9.40531 2.6655 9.53419 2.56881 9.69094 2.51681C9.84756 2.46494 10.0105 2.46931 10.1797 2.52994C10.349 2.59044 10.4728 2.694 10.5512 2.84062C10.6296 2.98725 10.6586 3.14519 10.6384 3.31444L10.0746 7.875H12.8726C13.1399 7.875 13.3283 7.99475 13.4379 8.23425C13.5476 8.47362 13.5154 8.69669 13.3414 8.90344L7.90819 15.411C7.79956 15.5399 7.66688 15.6233 7.51013 15.6613C7.35338 15.6992 7.2005 15.684 7.0515 15.6157C6.9025 15.5475 6.78687 15.4432 6.70462 15.3028C6.62237 15.1624 6.59137 15.0076 6.61162 14.8384L7.18275 10.875Z" fill="var(--fill-0, white)"/>
</g>
</g>
</svg>
