<svg width="18" height="18" viewBox="0 0 18 18" fill="none" xmlns="http://www.w3.org/2000/svg">
<mask id="mask0_10301_39993" style="mask-type:alpha" maskUnits="userSpaceOnUse" x="0" y="0" width="18" height="18">
<rect width="18" height="18" fill="#D9D9D9"/>
</mask>
<g mask="url(#mask0_10301_39993)">
<path d="M2.25 16.5C1.8375 16.5 1.48438 16.3531 1.19063 16.0594C0.896875 15.7656 0.75 15.4125 0.75 15V7.5C0.75 7.2875 0.821875 7.10938 0.965625 6.96563C1.10938 6.82188 1.2875 6.75 1.5 6.75C1.7125 6.75 1.89062 6.82188 2.03437 6.96563C2.17813 7.10938 2.25 7.2875 2.25 7.5V15H14.25C14.4625 15 14.6406 15.0719 14.7844 15.2156C14.9281 15.3594 15 15.5375 15 15.75C15 15.9625 14.9281 16.1406 14.7844 16.2844C14.6406 16.4281 14.4625 16.5 14.25 16.5H2.25ZM5.25 13.5C4.8375 13.5 4.48438 13.3531 4.19063 13.0594C3.89688 12.7656 3.75 12.4125 3.75 12V4.5C3.75 4.2875 3.82187 4.10938 3.96562 3.96562C4.10938 3.82187 4.2875 3.75 4.5 3.75H7.5V2.25C7.5 1.8375 7.64688 1.48438 7.94063 1.19063C8.23438 0.896875 8.5875 0.75 9 0.75H12C12.4125 0.75 12.7656 0.896875 13.0594 1.19063C13.3531 1.48438 13.5 1.8375 13.5 2.25V3.75H16.5C16.7125 3.75 16.8906 3.82187 17.0344 3.96562C17.1781 4.10938 17.25 4.2875 17.25 4.5V12C17.25 12.4125 17.1031 12.7656 16.8094 13.0594C16.5156 13.3531 16.1625 13.5 15.75 13.5H5.25ZM5.25 12H15.75V5.25H5.25V12ZM9 3.75H12V2.25H9V3.75Z" fill="#1C1B1F"/>
</g>
</svg>
