<svg preserveAspectRatio="none" width="100%" height="100%" overflow="visible" style="display: block;" viewBox="0 0 24 24" fill="none" xmlns="http://www.w3.org/2000/svg">
<g id="camera_outdoor">
<mask id="mask0_9957_22083" style="mask-type:alpha" maskUnits="userSpaceOnUse" x="0" y="0" width="24" height="24">
<rect id="Bounding box" width="24" height="24" fill="var(--fill-0, #D9D9D9)"/>
</mask>
<g mask="url(#mask0_9957_22083)">
<path id="camera_outdoor_2" d="M12.6475 18.173C12.4392 18.173 12.2632 18.1001 12.1195 17.9542C11.9757 17.8084 11.9037 17.6313 11.9037 17.423V13.3012C11.9037 13.0972 11.9757 12.9223 12.1195 12.7765C12.2632 12.6307 12.4392 12.5577 12.6475 12.5577H16.8333C17.0374 12.5577 17.2124 12.6307 17.3583 12.7765C17.5041 12.9223 17.577 13.0972 17.577 13.3012V14.718L18.927 13.9782C19.0582 13.9056 19.1865 13.907 19.312 13.9825C19.4373 14.0578 19.5 14.1712 19.5 14.3225V16.4082C19.5 16.5552 19.4384 16.6675 19.3152 16.745C19.1922 16.8227 19.0628 16.8252 18.927 16.7525L17.577 16.0127V17.423C17.577 17.6313 17.5041 17.8084 17.3583 17.9542C17.2124 18.1001 17.0374 18.173 16.8333 18.173H12.6475ZM4.5 18.9357V10.032C4.5 9.78149 4.55433 9.54649 4.663 9.32699C4.77183 9.10732 4.92692 8.92565 5.12825 8.78199L11.064 4.31723C11.3337 4.1079 11.6442 4.00323 11.9957 4.00323C12.3472 4.00323 12.6607 4.1079 12.936 4.31723L19.2532 9.06424C19.4204 9.19457 19.5058 9.34032 19.5095 9.50148C19.5133 9.66282 19.4692 9.80832 19.3772 9.93799C19.2807 10.0632 19.1516 10.1481 18.9898 10.1927C18.8278 10.2372 18.6645 10.1943 18.5 10.064L12.1827 5.32699C12.1314 5.28632 12.0705 5.26599 12 5.26599C11.9295 5.26599 11.8686 5.28632 11.8173 5.32699L5.8815 9.78199C5.843 9.81399 5.8125 9.8509 5.79 9.89274C5.76767 9.9344 5.7565 9.98082 5.7565 10.032V18.9357C5.7565 19.0256 5.78533 19.0993 5.843 19.157C5.90067 19.2147 5.97442 19.2435 6.06425 19.2435H18.8717C19.0499 19.2435 19.1992 19.304 19.3195 19.425C19.4398 19.546 19.5 19.696 19.5 19.875C19.5 20.054 19.4398 20.2029 19.3195 20.3217C19.1992 20.4406 19.0499 20.5 18.8717 20.5H6.06425C5.63742 20.5 5.27 20.346 4.962 20.038C4.654 19.73 4.5 19.3626 4.5 18.9357Z" fill="var(--fill-0, #464646)"/>
</g>
</g>
</svg>
