<svg width="16" height="16" viewBox="0 0 16 16" fill="none" xmlns="http://www.w3.org/2000/svg">
<mask id="mask0_10090_27044" style="mask-type:alpha" maskUnits="userSpaceOnUse" x="0" y="0" width="16" height="16">
<rect width="16" height="16" fill="#D9D9D9"/>
</mask>
<g mask="url(#mask0_10090_27044)">
<path d="M4.00016 12.0007L2.46683 13.534C2.25572 13.7451 2.01405 13.7923 1.74183 13.6757C1.46961 13.559 1.3335 13.3507 1.3335 13.0507V2.66732C1.3335 2.30065 1.46405 1.98676 1.72516 1.72565C1.98627 1.46454 2.30016 1.33398 2.66683 1.33398H13.3335C13.7002 1.33398 14.0141 1.46454 14.2752 1.72565C14.5363 1.98676 14.6668 2.30065 14.6668 2.66732V10.6673C14.6668 11.034 14.5363 11.3479 14.2752 11.609C14.0141 11.8701 13.7002 12.0007 13.3335 12.0007H4.00016ZM3.4335 10.6673H13.3335V2.66732H2.66683V11.4173L3.4335 10.6673ZM4.66683 9.33398H8.66683C8.85572 9.33398 9.01405 9.2701 9.14183 9.14232C9.26961 9.01454 9.3335 8.85621 9.3335 8.66732C9.3335 8.47843 9.26961 8.3201 9.14183 8.19232C9.01405 8.06454 8.85572 8.00065 8.66683 8.00065H4.66683C4.47794 8.00065 4.31961 8.06454 4.19183 8.19232C4.06405 8.3201 4.00016 8.47843 4.00016 8.66732C4.00016 8.85621 4.06405 9.01454 4.19183 9.14232C4.31961 9.2701 4.47794 9.33398 4.66683 9.33398ZM4.66683 7.33398H11.3335C11.5224 7.33398 11.6807 7.2701 11.8085 7.14232C11.9363 7.01454 12.0002 6.85621 12.0002 6.66732C12.0002 6.47843 11.9363 6.3201 11.8085 6.19232C11.6807 6.06454 11.5224 6.00065 11.3335 6.00065H4.66683C4.47794 6.00065 4.31961 6.06454 4.19183 6.19232C4.06405 6.3201 4.00016 6.47843 4.00016 6.66732C4.00016 6.85621 4.06405 7.01454 4.19183 7.14232C4.31961 7.2701 4.47794 7.33398 4.66683 7.33398ZM4.66683 5.33398H11.3335C11.5224 5.33398 11.6807 5.2701 11.8085 5.14232C11.9363 5.01454 12.0002 4.85621 12.0002 4.66732C12.0002 4.47843 11.9363 4.3201 11.8085 4.19232C11.6807 4.06454 11.5224 4.00065 11.3335 4.00065H4.66683C4.47794 4.00065 4.31961 4.06454 4.19183 4.19232C4.06405 4.3201 4.00016 4.47843 4.00016 4.66732C4.00016 4.85621 4.06405 5.01454 4.19183 5.14232C4.31961 5.2701 4.47794 5.33398 4.66683 5.33398Z" fill="#1E1D1D"/>
</g>
</svg>
