<svg preserveAspectRatio="none" width="100%" height="100%" overflow="visible" style="display: block;" viewBox="0 0 18 18" fill="none" xmlns="http://www.w3.org/2000/svg">
<g id="chat">
<mask id="mask0_9969_22342" style="mask-type:alpha" maskUnits="userSpaceOnUse" x="0" y="0" width="18" height="18">
<rect id="Bounding box" width="18" height="18" fill="var(--fill-0, #D9D9D9)"/>
</mask>
<g mask="url(#mask0_9969_22342)">
<path id="chat_2" d="M4.5 13.5L2.775 15.225C2.5375 15.4625 2.26563 15.5156 1.95938 15.3844C1.65312 15.2531 1.5 15.0188 1.5 14.6813V3C1.5 2.5875 1.64688 2.23438 1.94063 1.94063C2.23438 1.64688 2.5875 1.5 3 1.5H15C15.4125 1.5 15.7656 1.64688 16.0594 1.94063C16.3531 2.23438 16.5 2.5875 16.5 3V12C16.5 12.4125 16.3531 12.7656 16.0594 13.0594C15.7656 13.3531 15.4125 13.5 15 13.5H4.5ZM3.8625 12H15V3H3V12.8438L3.8625 12ZM5.25 10.5H9.75C9.9625 10.5 10.1406 10.4281 10.2844 10.2844C10.4281 10.1406 10.5 9.9625 10.5 9.75C10.5 9.5375 10.4281 9.35938 10.2844 9.21563C10.1406 9.07188 9.9625 9 9.75 9H5.25C5.0375 9 4.85937 9.07188 4.71562 9.21563C4.57187 9.35938 4.5 9.5375 4.5 9.75C4.5 9.9625 4.57187 10.1406 4.71562 10.2844C4.85937 10.4281 5.0375 10.5 5.25 10.5ZM5.25 8.25H12.75C12.9625 8.25 13.1406 8.17813 13.2844 8.03438C13.4281 7.89063 13.5 7.7125 13.5 7.5C13.5 7.2875 13.4281 7.10937 13.2844 6.96562C13.1406 6.82187 12.9625 6.75 12.75 6.75H5.25C5.0375 6.75 4.85937 6.82187 4.71562 6.96562C4.57187 7.10937 4.5 7.2875 4.5 7.5C4.5 7.7125 4.57187 7.89063 4.71562 8.03438C4.85937 8.17813 5.0375 8.25 5.25 8.25ZM5.25 6H12.75C12.9625 6 13.1406 5.92813 13.2844 5.78438C13.4281 5.64063 13.5 5.4625 13.5 5.25C13.5 5.0375 13.4281 4.85937 13.2844 4.71562C13.1406 4.57187 12.9625 4.5 12.75 4.5H5.25C5.0375 4.5 4.85937 4.57187 4.71562 4.71562C4.57187 4.85937 4.5 5.0375 4.5 5.25C4.5 5.4625 4.57187 5.64063 4.71562 5.78438C4.85937 5.92813 5.0375 6 5.25 6Z" fill="var(--fill-0, #1E1D1D)"/>
</g>
</g>
</svg>
