<svg preserveAspectRatio="none" width="100%" height="100%" overflow="visible" style="display: block;" viewBox="0 0 14 14" fill="none" xmlns="http://www.w3.org/2000/svg">
<g id="chat">
<mask id="mask0_9970_22483" style="mask-type:alpha" maskUnits="userSpaceOnUse" x="0" y="0" width="14" height="14">
<rect id="Bounding box" width="14" height="14" fill="var(--fill-0, #D9D9D9)"/>
</mask>
<g mask="url(#mask0_9970_22483)">
<path id="chat_2" d="M3.5 10.5L2.15833 11.8417C1.97361 12.0264 1.76215 12.0677 1.52396 11.9656C1.28576 11.8635 1.16667 11.6813 1.16667 11.4188V2.33333C1.16667 2.0125 1.2809 1.73785 1.50938 1.50937C1.73785 1.2809 2.0125 1.16667 2.33333 1.16667H11.6667C11.9875 1.16667 12.2622 1.2809 12.4906 1.50937C12.7191 1.73785 12.8333 2.0125 12.8333 2.33333V9.33333C12.8333 9.65417 12.7191 9.92882 12.4906 10.1573C12.2622 10.3858 11.9875 10.5 11.6667 10.5H3.5ZM3.00417 9.33333H11.6667V2.33333H2.33333V9.98958L3.00417 9.33333ZM4.08333 8.16667H7.58333C7.74861 8.16667 7.88715 8.11076 7.99896 7.99896C8.11076 7.88715 8.16667 7.74861 8.16667 7.58333C8.16667 7.41806 8.11076 7.27951 7.99896 7.16771C7.88715 7.0559 7.74861 7 7.58333 7H4.08333C3.91806 7 3.77951 7.0559 3.66771 7.16771C3.5559 7.27951 3.5 7.41806 3.5 7.58333C3.5 7.74861 3.5559 7.88715 3.66771 7.99896C3.77951 8.11076 3.91806 8.16667 4.08333 8.16667ZM4.08333 6.41667H9.91667C10.0819 6.41667 10.2205 6.36076 10.3323 6.24896C10.4441 6.13715 10.5 5.99861 10.5 5.83333C10.5 5.66806 10.4441 5.52951 10.3323 5.41771C10.2205 5.3059 10.0819 5.25 9.91667 5.25H4.08333C3.91806 5.25 3.77951 5.3059 3.66771 5.41771C3.5559 5.52951 3.5 5.66806 3.5 5.83333C3.5 5.99861 3.5559 6.13715 3.66771 6.24896C3.77951 6.36076 3.91806 6.41667 4.08333 6.41667ZM4.08333 4.66667H9.91667C10.0819 4.66667 10.2205 4.61076 10.3323 4.49896C10.4441 4.38715 10.5 4.24861 10.5 4.08333C10.5 3.91806 10.4441 3.77951 10.3323 3.66771C10.2205 3.5559 10.0819 3.5 9.91667 3.5H4.08333C3.91806 3.5 3.77951 3.5559 3.66771 3.66771C3.5559 3.77951 3.5 3.91806 3.5 4.08333C3.5 4.24861 3.5559 4.38715 3.66771 4.49896C3.77951 4.61076 3.91806 4.66667 4.08333 4.66667Z" fill="var(--fill-0, #1E1D1D)"/>
</g>
</g>
</svg>
