<svg preserveAspectRatio="none" width="100%" height="100%" overflow="visible" style="display: block;" viewBox="0 0 23 23" fill="none" xmlns="http://www.w3.org/2000/svg">
<g id="Group 758">
<circle id="Ellipse 14" cx="11.5" cy="11.5" r="11.5" fill="var(--fill-0, #10A810)"/>
<g id="check">
<mask id="mask0_9966_22242" style="mask-type:alpha" maskUnits="userSpaceOnUse" x="4" y="4" width="15" height="15">
<rect id="Bounding box" x="4" y="4" width="15" height="15" fill="var(--fill-0, #D9D9D9)"/>
</mask>
<g mask="url(#mask0_9966_22242)">
<path id="check_2" d="M9.96906 13.4688L15.2659 8.17188C15.3909 8.04688 15.5368 7.98438 15.7034 7.98438C15.8701 7.98438 16.0159 8.04688 16.1409 8.17188C16.2659 8.29688 16.3284 8.44531 16.3284 8.61719C16.3284 8.78906 16.2659 8.9375 16.1409 9.0625L10.4066 14.8125C10.2816 14.9375 10.1357 15 9.96906 15C9.8024 15 9.65656 14.9375 9.53156 14.8125L6.84406 12.125C6.71906 12 6.65917 11.8516 6.66437 11.6797C6.66958 11.5078 6.73469 11.3594 6.85969 11.2344C6.98469 11.1094 7.13313 11.0469 7.305 11.0469C7.47688 11.0469 7.62531 11.1094 7.75031 11.2344L9.96906 13.4688Z" fill="var(--fill-0, white)"/>
</g>
</g>
</g>
</svg>
