<svg preserveAspectRatio="none" width="100%" height="100%" overflow="visible" style="display: block;" viewBox="0 0 16 16" fill="none" xmlns="http://www.w3.org/2000/svg">
<g id="check">
<mask id="mask0_9974_22848" style="mask-type:alpha" maskUnits="userSpaceOnUse" x="0" y="0" width="16" height="16">
<rect id="Bounding box" width="16" height="16" fill="var(--fill-0, #D9D9D9)"/>
</mask>
<g mask="url(#mask0_9974_22848)">
<path id="check_2" d="M6.367 10.1L12.017 4.45C12.1503 4.31667 12.3059 4.25 12.4837 4.25C12.6614 4.25 12.817 4.31667 12.9503 4.45C13.0837 4.58333 13.1503 4.74167 13.1503 4.925C13.1503 5.10833 13.0837 5.26667 12.9503 5.4L6.83367 11.5333C6.70033 11.6667 6.54478 11.7333 6.367 11.7333C6.18922 11.7333 6.03367 11.6667 5.90033 11.5333L3.03367 8.66667C2.90033 8.53333 2.83644 8.375 2.842 8.19167C2.84756 8.00833 2.917 7.85 3.05033 7.71667C3.18367 7.58333 3.342 7.51667 3.52533 7.51667C3.70867 7.51667 3.867 7.58333 4.00033 7.71667L6.367 10.1Z" fill="var(--fill-0, white)"/>
</g>
</g>
</svg>
