<svg preserveAspectRatio="none" width="100%" height="100%" overflow="visible" style="display: block;" viewBox="0 0 18 18" fill="none" xmlns="http://www.w3.org/2000/svg">
<g id="check">
<mask id="mask0_9970_22463" style="mask-type:alpha" maskUnits="userSpaceOnUse" x="0" y="0" width="18" height="18">
<rect id="Bounding box" width="18" height="18" fill="var(--fill-0, white)"/>
</mask>
<g mask="url(#mask0_9970_22463)">
<path id="check_2" d="M7.29375 11.0815L12.9 5.47529C13.0364 5.33779 13.1954 5.26904 13.3772 5.26904C13.5591 5.26904 13.7188 5.33779 13.8563 5.47529C13.9938 5.61279 14.0625 5.77267 14.0625 5.95492C14.0625 6.13717 13.9962 6.29461 13.8636 6.42723L7.78125 12.5253C7.64488 12.6628 7.48581 12.7315 7.30406 12.7315C7.12219 12.7315 6.9625 12.6628 6.825 12.5253L4.14375 9.84404C4.00625 9.70654 3.9375 9.54717 3.9375 9.36592C3.9375 9.18467 4.00625 9.02529 4.14375 8.88779C4.28125 8.75029 4.44169 8.68154 4.62506 8.68154C4.80831 8.68154 4.96663 8.75029 5.1 8.88779L7.29375 11.0815Z" fill="var(--fill-0, white)"/>
</g>
</g>
</svg>
