<svg width="23" height="23" viewBox="0 0 23 23" fill="none" xmlns="http://www.w3.org/2000/svg">
<mask id="mask0_9144_3460" style="mask-type:alpha" maskUnits="userSpaceOnUse" x="0" y="0" width="23" height="23">
<rect width="23" height="23" fill="#D9D9D9"/>
</mask>
<g mask="url(#mask0_9144_3460)">
<path d="M11.4999 14.3509C11.3722 14.3509 11.2524 14.3309 11.1406 14.291C11.0288 14.251 10.9249 14.1831 10.8291 14.0873L6.42077 9.67898C6.24507 9.50329 6.15723 9.27968 6.15723 9.00815C6.15723 8.73662 6.24507 8.51301 6.42077 8.33731C6.59646 8.16162 6.82007 8.07377 7.0916 8.07377C7.36313 8.07377 7.58674 8.16162 7.76243 8.33731L11.4999 12.0748L15.2374 8.33731C15.4131 8.16162 15.6367 8.07377 15.9083 8.07377C16.1798 8.07377 16.4034 8.16162 16.5791 8.33731C16.7548 8.51301 16.8426 8.73662 16.8426 9.00815C16.8426 9.27968 16.7548 9.50329 16.5791 9.67898L12.1708 14.0873C12.0749 14.1831 11.9711 14.251 11.8593 14.291C11.7475 14.3309 11.6277 14.3509 11.4999 14.3509Z" fill="#464646"/>
</g>
</svg>
