<svg width="25" height="25" viewBox="0 0 25 25" fill="none" xmlns="http://www.w3.org/2000/svg">
<mask id="mask0_9222_11724" style="mask-type:alpha" maskUnits="userSpaceOnUse" x="0" y="0" width="25" height="25">
<rect width="25" height="25" fill="#D9D9D9"/>
</mask>
<g mask="url(#mask0_9222_11724)">
<path d="M12.4993 13.9584L7.39518 19.0626C7.20421 19.2536 6.96115 19.349 6.66602 19.349C6.37088 19.349 6.12782 19.2536 5.93685 19.0626C5.74588 18.8716 5.65039 18.6286 5.65039 18.3334C5.65039 18.0383 5.74588 17.7952 5.93685 17.6042L11.041 12.5001L5.93685 7.39591C5.74588 7.20494 5.65039 6.96189 5.65039 6.66675C5.65039 6.37161 5.74588 6.12855 5.93685 5.93758C6.12782 5.74661 6.37088 5.65112 6.66602 5.65112C6.96115 5.65112 7.20421 5.74661 7.39518 5.93758L12.4993 11.0417L17.6035 5.93758C17.7945 5.74661 18.0375 5.65112 18.3327 5.65112C18.6278 5.65112 18.8709 5.74661 19.0618 5.93758C19.2528 6.12855 19.3483 6.37161 19.3483 6.66675C19.3483 6.96189 19.2528 7.20494 19.0618 7.39591L13.9577 12.5001L19.0618 17.6042C19.2528 17.7952 19.3483 18.0383 19.3483 18.3334C19.3483 18.6286 19.2528 18.8716 19.0618 19.0626C18.8709 19.2536 18.6278 19.349 18.3327 19.349C18.0375 19.349 17.7945 19.2536 17.6035 19.0626L12.4993 13.9584Z" fill="#1447D4"/>
</g>
</svg>
