<svg preserveAspectRatio="none" width="100%" height="100%" overflow="visible" style="display: block;" viewBox="0 0 18 18" fill="none" xmlns="http://www.w3.org/2000/svg">
<g id="contact_support">
<mask id="mask0_9969_22322" style="mask-type:alpha" maskUnits="userSpaceOnUse" x="0" y="0" width="18" height="18">
<rect id="Bounding box" width="18" height="18" fill="var(--fill-0, #D9D9D9)"/>
</mask>
<g mask="url(#mask0_9969_22322)">
<path id="contact_support_2" d="M8.8125 14.25H8.625C6.85 14.25 5.34375 13.6313 4.10625 12.3938C2.86875 11.1563 2.25 9.65001 2.25 7.87501C2.25 6.10001 2.86875 4.59376 4.10625 3.35626C5.34375 2.11876 6.85 1.50001 8.625 1.50001C9.5125 1.50001 10.3406 1.66563 11.1094 1.99688C11.8781 2.32813 12.5531 2.78438 13.1344 3.36563C13.7156 3.94688 14.1719 4.62188 14.5031 5.39063C14.8344 6.15938 15 6.98751 15 7.87501C15 9.55001 14.5281 11.1063 13.5844 12.5438C12.6406 13.9813 11.45 15.1063 10.0125 15.9188C9.8875 15.9813 9.7625 16.0156 9.6375 16.0219C9.5125 16.0281 9.4 16 9.3 15.9375C9.2 15.875 9.1125 15.7938 9.0375 15.6938C8.9625 15.5938 8.91875 15.475 8.90625 15.3375L8.8125 14.25ZM8.60625 11.9813C8.81875 11.9813 9.00001 11.9063 9.15 11.7563C9.3 11.6063 9.375 11.425 9.375 11.2125C9.375 11 9.3 10.8188 9.15 10.6688C9.00001 10.5188 8.81875 10.4438 8.60625 10.4438C8.39375 10.4438 8.2125 10.5188 8.0625 10.6688C7.9125 10.8188 7.8375 11 7.8375 11.2125C7.8375 11.425 7.9125 11.6063 8.0625 11.7563C8.2125 11.9063 8.39375 11.9813 8.60625 11.9813ZM6.975 6.28126C7.1125 6.34376 7.25 6.34688 7.3875 6.29063C7.525 6.23438 7.6375 6.14376 7.725 6.01876C7.8375 5.86876 7.96875 5.75313 8.11875 5.67188C8.26875 5.59063 8.4375 5.55001 8.625 5.55001C8.925 5.55001 9.16875 5.63438 9.35625 5.80313C9.54375 5.97188 9.6375 6.18751 9.6375 6.45001C9.6375 6.61251 9.59063 6.77501 9.49688 6.93751C9.40313 7.10001 9.2375 7.30001 9 7.53751C8.6875 7.81251 8.45625 8.07188 8.30625 8.31563C8.15625 8.55938 8.08125 8.80626 8.08125 9.05626C8.08125 9.20626 8.13438 9.33438 8.24063 9.44063C8.34688 9.54688 8.475 9.60001 8.625 9.60001C8.775 9.60001 8.9 9.54376 9 9.43126C9.1 9.31876 9.175 9.18751 9.225 9.03751C9.2875 8.82501 9.4 8.63126 9.5625 8.45626C9.725 8.28126 9.875 8.12501 10.0125 7.98751C10.275 7.72501 10.4719 7.46251 10.6031 7.20001C10.7344 6.93751 10.8 6.67501 10.8 6.41251C10.8 5.83751 10.6031 5.37501 10.2094 5.02501C9.81563 4.67501 9.2875 4.50001 8.625 4.50001C8.225 4.50001 7.85625 4.59688 7.51875 4.79063C7.18125 4.98438 6.90625 5.25001 6.69375 5.58751C6.61875 5.72501 6.60938 5.85938 6.66563 5.99063C6.72188 6.12188 6.825 6.21876 6.975 6.28126Z" fill="var(--fill-0, #1E1D1D)"/>
</g>
</g>
</svg>
