<svg preserveAspectRatio="none" width="100%" height="100%" overflow="visible" style="display: block;" viewBox="0 0 28 28" fill="none" xmlns="http://www.w3.org/2000/svg">
<g id="contact_support">
<mask id="mask0_9972_22828" style="mask-type:alpha" maskUnits="userSpaceOnUse" x="0" y="0" width="28" height="28">
<rect id="Bounding box" width="28" height="28" fill="var(--fill-0, #D9D9D9)"/>
</mask>
<g mask="url(#mask0_9972_22828)">
<path id="contact_support_2" d="M13.7083 22.1667H13.4167C10.6556 22.1667 8.3125 21.2042 6.3875 19.2792C4.4625 17.3542 3.5 15.0111 3.5 12.25C3.5 9.48889 4.4625 7.14583 6.3875 5.22083C8.3125 3.29583 10.6556 2.33333 13.4167 2.33333C14.7972 2.33333 16.0854 2.59097 17.2813 3.10625C18.4771 3.62153 19.5271 4.33125 20.4313 5.23542C21.3354 6.13958 22.0451 7.18958 22.5604 8.38542C23.0757 9.58125 23.3333 10.8694 23.3333 12.25C23.3333 14.8556 22.5993 17.2764 21.1313 19.5125C19.6632 21.7486 17.8111 23.4986 15.575 24.7625C15.3806 24.8597 15.1861 24.9132 14.9917 24.9229C14.7972 24.9326 14.6222 24.8889 14.4667 24.7917C14.3111 24.6944 14.175 24.5681 14.0583 24.4125C13.9417 24.2569 13.8736 24.0722 13.8542 23.8583L13.7083 22.1667ZM13.3875 18.6375C13.7181 18.6375 14 18.5208 14.2333 18.2875C14.4667 18.0542 14.5833 17.7722 14.5833 17.4417C14.5833 17.1111 14.4667 16.8292 14.2333 16.5958C14 16.3625 13.7181 16.2458 13.3875 16.2458C13.0569 16.2458 12.775 16.3625 12.5417 16.5958C12.3083 16.8292 12.1917 17.1111 12.1917 17.4417C12.1917 17.7722 12.3083 18.0542 12.5417 18.2875C12.775 18.5208 13.0569 18.6375 13.3875 18.6375ZM10.85 9.77083C11.0639 9.86806 11.2778 9.87292 11.4917 9.78542C11.7056 9.69792 11.8806 9.55694 12.0167 9.3625C12.1917 9.12917 12.3958 8.94931 12.6292 8.82292C12.8625 8.69653 13.125 8.63333 13.4167 8.63333C13.8833 8.63333 14.2625 8.76458 14.5542 9.02708C14.8458 9.28958 14.9917 9.625 14.9917 10.0333C14.9917 10.2861 14.9188 10.5389 14.7729 10.7917C14.6271 11.0444 14.3694 11.3556 14 11.725C13.5139 12.1528 13.1542 12.5563 12.9208 12.9354C12.6875 13.3146 12.5708 13.6986 12.5708 14.0875C12.5708 14.3208 12.6535 14.5201 12.8188 14.6854C12.984 14.8507 13.1833 14.9333 13.4167 14.9333C13.65 14.9333 13.8444 14.8458 14 14.6708C14.1556 14.4958 14.2722 14.2917 14.35 14.0583C14.4472 13.7278 14.6222 13.4264 14.875 13.1542C15.1278 12.8819 15.3611 12.6389 15.575 12.425C15.9833 12.0167 16.2896 11.6083 16.4938 11.2C16.6979 10.7917 16.8 10.3833 16.8 9.975C16.8 9.08056 16.4938 8.36111 15.8813 7.81667C15.2688 7.27222 14.4472 7 13.4167 7C12.7944 7 12.2208 7.15069 11.6958 7.45208C11.1708 7.75347 10.7431 8.16667 10.4125 8.69167C10.2958 8.90556 10.2813 9.11458 10.3688 9.31875C10.4563 9.52292 10.6167 9.67361 10.85 9.77083Z" fill="var(--fill-0, #1447D4)"/>
</g>
</g>
</svg>
