<svg width="17" height="17" viewBox="0 0 17 17" fill="none" xmlns="http://www.w3.org/2000/svg">
<mask id="mask0_10526_13650" style="mask-type:alpha" maskUnits="userSpaceOnUse" x="0" y="0" width="17" height="17">
<rect width="17" height="17" fill="#D9D9D9"/>
</mask>
<g mask="url(#mask0_10526_13650)">
<path d="M6.375 12.7498C5.98542 12.7498 5.65191 12.6111 5.37448 12.3337C5.09705 12.0563 4.95833 11.7228 4.95833 11.3332V2.83317C4.95833 2.44359 5.09705 2.11008 5.37448 1.83265C5.65191 1.55522 5.98542 1.4165 6.375 1.4165H12.75C13.1396 1.4165 13.4731 1.55522 13.7505 1.83265C14.028 2.11008 14.1667 2.44359 14.1667 2.83317V11.3332C14.1667 11.7228 14.028 12.0563 13.7505 12.3337C13.4731 12.6111 13.1396 12.7498 12.75 12.7498H6.375ZM6.375 11.3332H12.75V2.83317H6.375V11.3332ZM3.54167 15.5832C3.15208 15.5832 2.81858 15.4445 2.54115 15.167C2.26372 14.8896 2.125 14.5561 2.125 14.1665V4.95817C2.125 4.75748 2.19288 4.58925 2.32865 4.45348C2.46441 4.31772 2.63264 4.24984 2.83333 4.24984C3.03403 4.24984 3.20226 4.31772 3.33802 4.45348C3.47378 4.58925 3.54167 4.75748 3.54167 4.95817V14.1665H10.625C10.8257 14.1665 10.9939 14.2344 11.1297 14.3702C11.2655 14.5059 11.3333 14.6741 11.3333 14.8748C11.3333 15.0755 11.2655 15.2438 11.1297 15.3795C10.9939 15.5153 10.8257 15.5832 10.625 15.5832H3.54167Z" fill="#1447D4"/>
</g>
</svg>
