<svg width="18" height="18" viewBox="0 0 18 18" fill="none" xmlns="http://www.w3.org/2000/svg">
<mask id="mask0_10575_11912" style="mask-type:alpha" maskUnits="userSpaceOnUse" x="0" y="0" width="18" height="18">
<rect width="18" height="18" fill="#D9D9D9"/>
</mask>
<g mask="url(#mask0_10575_11912)">
<path d="M10.9125 13.9488C9.53063 13.9488 8.36016 13.4693 7.40109 12.5102C6.44203 11.5512 5.9625 10.3807 5.9625 8.99883C5.9625 7.61695 6.44203 6.44648 7.40109 5.48742C8.36016 4.52836 9.53063 4.04883 10.9125 4.04883C12.2944 4.04883 13.4648 4.52836 14.4239 5.48742C15.383 6.44648 15.8625 7.61695 15.8625 8.99883C15.8625 10.3807 15.383 11.5512 14.4239 12.5102C13.4648 13.4693 12.2944 13.9488 10.9125 13.9488ZM5.11172 13.4848C4.24547 13.0826 3.55195 12.4793 3.03117 11.6749C2.51039 10.8705 2.25 9.97852 2.25 8.99883C2.25 8.01914 2.51039 7.12711 3.03117 6.32273C3.55195 5.51836 4.24547 4.91508 5.11172 4.51289C5.32828 4.40977 5.52422 4.4175 5.69953 4.53609C5.87484 4.65469 5.9625 4.84805 5.9625 5.11617C5.9625 5.2193 5.92899 5.31984 5.86195 5.41781C5.79492 5.51578 5.70984 5.59055 5.60672 5.64211C4.95703 5.94117 4.44141 6.39234 4.05984 6.99563C3.67828 7.59891 3.4875 8.26664 3.4875 8.99883C3.4875 9.73102 3.67828 10.3988 4.05984 11.002C4.44141 11.6053 4.95703 12.0565 5.60672 12.3555C5.70984 12.4071 5.79492 12.4793 5.86195 12.5721C5.92899 12.6649 5.9625 12.768 5.9625 12.8815C5.9625 13.1393 5.87484 13.3301 5.69953 13.4538C5.52422 13.5776 5.32828 13.5879 5.11172 13.4848ZM10.9125 12.7113C11.9438 12.7113 12.8203 12.3504 13.5422 11.6285C14.2641 10.9066 14.625 10.0301 14.625 8.99883C14.625 7.96758 14.2641 7.09102 13.5422 6.36914C12.8203 5.64727 11.9438 5.28633 10.9125 5.28633C9.88125 5.28633 9.00469 5.64727 8.28281 6.36914C7.56094 7.09102 7.2 7.96758 7.2 8.99883C7.2 10.0301 7.56094 10.9066 8.28281 11.6285C9.00469 12.3504 9.88125 12.7113 10.9125 12.7113Z" fill="#1E1D1D"/>
</g>
</svg>
