<svg preserveAspectRatio="none" width="100%" height="100%" overflow="visible" style="display: block;" viewBox="0 0 24 24" fill="none" xmlns="http://www.w3.org/2000/svg">
<g id="dine_lamp">
<mask id="mask0_9957_22006" style="mask-type:alpha" maskUnits="userSpaceOnUse" x="0" y="0" width="24" height="24">
<rect id="Bounding box" width="24" height="24" fill="var(--fill-0, #D9D9D9)"/>
</mask>
<g mask="url(#mask0_9957_22006)">
<path id="dine_lamp_2" d="M4.30415 17.4225V20.0255C4.30415 20.1594 4.25856 20.2719 4.1674 20.363C4.07623 20.4544 3.96381 20.5 3.83015 20.5C3.69665 20.5 3.58415 20.4544 3.49265 20.363C3.40115 20.2719 3.3554 20.1594 3.3554 20.0255V17.3898C3.10073 17.3491 2.88173 17.2345 2.6984 17.0458C2.51506 16.8571 2.4089 16.6288 2.3799 16.3608L1.57015 8.10454C1.54331 7.92337 1.59265 7.76421 1.71815 7.62704C1.84381 7.48987 2.0039 7.42129 2.1984 7.42129C2.35606 7.42129 2.49706 7.47654 2.6214 7.58704C2.74556 7.6977 2.81715 7.83154 2.83615 7.98854L3.5394 14.855H7.7919C8.3139 14.855 8.76598 15.0286 9.14815 15.3758C9.53031 15.723 9.7214 16.152 9.7214 16.6628C9.7214 16.8643 9.66273 17.0413 9.5454 17.1938C9.4279 17.3463 9.27398 17.4225 9.08365 17.4225H8.82665V20.0353C8.82665 20.1621 8.78123 20.2713 8.6904 20.3628C8.59973 20.4543 8.49165 20.5 8.36615 20.5C8.23631 20.5 8.12406 20.4527 8.0294 20.358C7.93473 20.2634 7.8874 20.1525 7.8874 20.0255V17.4225H4.30415ZM8.16315 8.72704C7.94265 8.72704 7.76198 8.65554 7.62115 8.51254C7.48031 8.36971 7.4099 8.19012 7.4099 7.97379C7.4099 6.98146 7.78406 6.15446 8.5324 5.49279C9.28073 4.83096 10.1671 4.50004 11.1914 4.50004H11.3714V2.12829C11.3714 1.94746 11.4309 1.79754 11.5499 1.67854C11.6691 1.55954 11.8191 1.50004 11.9999 1.50004C12.1809 1.50004 12.3308 1.55954 12.4496 1.67854C12.5685 1.79754 12.6279 1.94746 12.6279 2.12829V4.50004H12.8176C13.842 4.50004 14.7266 4.83096 15.4714 5.49279C16.2162 6.15446 16.5886 6.98146 16.5886 7.97379C16.5886 8.19012 16.5172 8.36971 16.3744 8.51254C16.2314 8.65554 16.0518 8.72704 15.8356 8.72704H8.16315ZM8.78165 7.47054H15.2176C15.1543 6.93121 14.8873 6.5107 14.4166 6.20904C13.946 5.90737 13.413 5.75654 12.8176 5.75654H11.1914C10.5961 5.75654 10.0563 5.90579 9.57215 6.20429C9.08798 6.50279 8.82448 6.92487 8.78165 7.47054ZM20.2091 20.5C20.0798 20.5 19.9683 20.4544 19.8746 20.363C19.781 20.2719 19.7341 20.1594 19.7341 20.0255V17.4225H16.1181V20.0255C16.1181 20.1525 16.0714 20.2634 15.9779 20.358C15.8842 20.4527 15.7761 20.5 15.6534 20.5C15.5266 20.5 15.4158 20.4543 15.3211 20.3628C15.2265 20.2713 15.1791 20.1621 15.1791 20.0353V17.4225H14.9156C14.7253 17.4225 14.5714 17.3463 14.4539 17.1938C14.3366 17.0413 14.2779 16.8643 14.2779 16.6628C14.2779 16.152 14.469 15.723 14.8511 15.3758C15.2333 15.0286 15.6854 14.855 16.2074 14.855H20.4754L21.1976 7.96929C21.2161 7.81496 21.2871 7.68346 21.4106 7.57479C21.5341 7.46596 21.6758 7.41154 21.8356 7.41154C22.0168 7.41804 22.1693 7.48829 22.2931 7.62229C22.4171 7.75612 22.4656 7.91371 22.4386 8.09504L21.6246 16.3608C21.5913 16.6225 21.4853 16.8476 21.3066 17.0363C21.128 17.225 20.9166 17.3395 20.6726 17.38V20.0358C20.6726 20.1696 20.6288 20.2805 20.5411 20.3683C20.4533 20.4561 20.3426 20.5 20.2091 20.5ZM11.3714 12.4193H6.04965C5.86881 12.4193 5.7189 12.3598 5.5999 12.2408C5.4809 12.1218 5.4214 11.9718 5.4214 11.7908C5.4214 11.6098 5.4809 11.4599 5.5999 11.341C5.7189 11.2222 5.86881 11.1628 6.04965 11.1628H17.9496C18.1305 11.1628 18.2804 11.2223 18.3994 11.3413C18.5184 11.4605 18.5779 11.6105 18.5779 11.7913C18.5779 11.9723 18.5184 12.1222 18.3994 12.241C18.2804 12.3599 18.1305 12.4193 17.9496 12.4193H12.6279V19.8718C12.6279 20.0526 12.5684 20.2025 12.4494 20.3215C12.3302 20.4405 12.1802 20.5 11.9994 20.5C11.8184 20.5 11.6685 20.4405 11.5496 20.3215C11.4308 20.2025 11.3714 20.0526 11.3714 19.8718V12.4193Z" fill="var(--fill-0, #464646)"/>
</g>
</g>
</svg>
