<svg width="24" height="24" viewBox="0 0 24 24" fill="none" xmlns="http://www.w3.org/2000/svg">
<mask id="mask0_9177_19862" style="mask-type:alpha" maskUnits="userSpaceOnUse" x="0" y="0" width="24" height="24">
<rect width="24" height="24" fill="#D9D9D9"/>
</mask>
<g mask="url(#mask0_9177_19862)">
<path d="M4.75748 10.2048V18.9355C4.75748 19.0125 4.78948 19.0831 4.85348 19.1473C4.91764 19.2113 4.98823 19.2433 5.06523 19.2433H18.9367C19.0137 19.2433 19.0843 19.2113 19.1485 19.1473C19.2125 19.0831 19.2445 19.0125 19.2445 18.9355V10.2048H4.75748ZM4.75748 8.94851H19.2445V5.06401C19.2445 4.98701 19.2125 4.91642 19.1485 4.85226C19.0843 4.78826 19.0137 4.75626 18.9367 4.75626H5.06523C4.98823 4.75626 4.91764 4.78826 4.85348 4.85226C4.78948 4.91642 4.75748 4.98701 4.75748 5.06401V8.94851ZM11.999 17.4215C11.546 17.4215 11.1617 17.2617 10.8462 16.942C10.5306 16.6222 10.3727 16.2328 10.3727 15.774C10.3727 15.56 10.4056 15.3371 10.4712 15.1053C10.5367 14.8734 10.6381 14.6233 10.7755 14.355C10.9086 14.0977 11.0516 13.8555 11.2042 13.6285C11.3569 13.4015 11.5181 13.1734 11.6877 12.9443C11.7706 12.8261 11.8745 12.767 11.9995 12.767C12.1245 12.767 12.2315 12.8261 12.3205 12.9443C12.486 13.1734 12.6451 13.4031 12.7977 13.6333C12.9504 13.8634 13.0933 14.1072 13.2265 14.3645C13.3638 14.6328 13.4652 14.8813 13.5307 15.11C13.5964 15.3387 13.6292 15.56 13.6292 15.774C13.6292 16.2328 13.4707 16.6222 13.1537 16.942C12.8369 17.2617 12.452 17.4215 11.999 17.4215ZM17.2445 7.51901C17.4573 7.51901 17.6376 7.44509 17.7855 7.29726C17.9335 7.14942 18.0075 6.96909 18.0075 6.75626C18.0075 6.54342 17.9335 6.36309 17.7855 6.21526C17.6376 6.06726 17.4573 5.99326 17.2445 5.99326C17.0316 5.99326 16.8513 6.06726 16.7035 6.21526C16.5556 6.36309 16.4817 6.54342 16.4817 6.75626C16.4817 6.96909 16.5556 7.14942 16.7035 7.29726C16.8513 7.44509 17.0316 7.51901 17.2445 7.51901ZM5.06523 20.4998C4.63539 20.4998 4.26723 20.3465 3.96073 20.04C3.65423 19.7335 3.50098 19.3653 3.50098 18.9355V5.06401C3.50098 4.63417 3.65423 4.26601 3.96073 3.95951C4.26723 3.65301 4.63539 3.49976 5.06523 3.49976H18.9367C19.3666 3.49976 19.7347 3.65301 20.0412 3.95951C20.3477 4.26601 20.501 4.63417 20.501 5.06401V18.9355C20.501 19.3653 20.3477 19.7335 20.0412 20.04C19.7347 20.3465 19.3666 20.4998 18.9367 20.4998H5.06523Z" fill="#464646"/>
</g>
</svg>
