<svg width="46" height="46" viewBox="0 0 46 46" fill="none" xmlns="http://www.w3.org/2000/svg">
<rect width="46" height="46" rx="6" fill="#F9F9F8"/>
<mask id="mask0_9211_30832" style="mask-type:alpha" maskUnits="userSpaceOnUse" x="11" y="11" width="24" height="24">
<rect x="11" y="11" width="24" height="24" fill="#D9D9D9"/>
</mask>
<g mask="url(#mask0_9211_30832)">
<path d="M16 32C15.45 32 14.9792 31.8042 14.5875 31.4125C14.1958 31.0208 14 30.55 14 30V20C14 19.45 14.1958 18.9792 14.5875 18.5875C14.9792 18.1958 15.45 18 16 18H18V16C18 15.45 18.1958 14.9792 18.5875 14.5875C18.9792 14.1958 19.45 14 20 14H26C26.55 14 27.0208 14.1958 27.4125 14.5875C27.8042 14.9792 28 15.45 28 16V22H30C30.55 22 31.0208 22.1958 31.4125 22.5875C31.8042 22.9792 32 23.45 32 24V30C32 30.55 31.8042 31.0208 31.4125 31.4125C31.0208 31.8042 30.55 32 30 32H24V28H22V32H16ZM16 30H18V28H16V30ZM16 26H18V24H16V26ZM16 22H18V20H16V22ZM20 26H22V24H20V26ZM20 22H22V20H20V22ZM20 18H22V16H20V18ZM24 26H26V24H24V26ZM24 22H26V20H24V22ZM24 18H26V16H24V18ZM28 30H30V28H28V30ZM28 26H30V24H28V26Z" fill="#464646"/>
</g>
</svg>
