<svg width="20" height="20" viewBox="0 0 20 20" fill="none" xmlns="http://www.w3.org/2000/svg">
<mask id="mask0_9348_9212" style="mask-type:alpha" maskUnits="userSpaceOnUse" x="0" y="0" width="20" height="20">
<rect width="20" height="20" fill="#D9D9D9"/>
</mask>
<g mask="url(#mask0_9348_9212)">
<path d="M4.5 17C4.0875 17 3.73437 16.8531 3.44062 16.5594C3.14687 16.2656 3 15.9125 3 15.5V4.5C3 4.0875 3.14687 3.73438 3.44062 3.44063C3.73437 3.14688 4.0875 3 4.5 3H9.75C10 3 10.1875 3.07812 10.3125 3.23438C10.4375 3.39062 10.5 3.5625 10.5 3.75C10.5 3.9375 10.436 4.10938 10.3079 4.26562C10.1799 4.42188 9.99389 4.5 9.75 4.5H4.5V15.5H15.5V10.7398C15.5 10.4966 15.5781 10.3125 15.7344 10.1875C15.8906 10.0625 16.0625 10 16.25 10C16.4375 10 16.6094 10.0625 16.7656 10.1875C16.9219 10.3125 17 10.5 17 10.75V15.5C17 15.9125 16.8531 16.2656 16.5594 16.5594C16.2656 16.8531 15.9125 17 15.5 17H4.5ZM8 11.2537V9.44438C8 9.24535 8.03472 9.05556 8.10417 8.875C8.17361 8.69444 8.28236 8.53014 8.43042 8.38208L15.375 1.4375C15.5278 1.28472 15.6944 1.17361 15.875 1.10417C16.0556 1.03472 16.2396 1 16.4271 1C16.6271 1 16.8177 1.03472 16.999 1.10417C17.1802 1.17361 17.3468 1.2832 17.4988 1.43292L18.5625 2.5C18.7153 2.65278 18.8264 2.82069 18.8958 3.00375C18.9653 3.18681 19 3.37306 19 3.5625C19 3.75222 18.9651 3.93882 18.8954 4.12229C18.8257 4.30562 18.7147 4.47319 18.5625 4.625L11.6179 11.5696C11.4699 11.7176 11.3059 11.8264 11.126 11.8958C10.9462 11.9653 10.757 12 10.5585 12H8.75375C8.54292 12 8.36458 11.9285 8.21875 11.7854C8.07292 11.6425 8 11.4653 8 11.2537ZM9.5 10.5H10.5625L15.375 5.6875L14.8542 5.14583L14.3125 4.625L9.5 9.4375V10.5Z" fill="#1E1D1D"/>
</g>
</svg>
