<svg preserveAspectRatio="none" width="100%" height="100%" overflow="visible" style="display: block;" viewBox="0 0 24 24" fill="none" xmlns="http://www.w3.org/2000/svg">
<g id="elevator">
<mask id="mask0_9957_22105" style="mask-type:alpha" maskUnits="userSpaceOnUse" x="0" y="0" width="24" height="24">
<rect id="Bounding box" width="24" height="24" fill="var(--fill-0, #D9D9D9)"/>
</mask>
<g mask="url(#mask0_9957_22105)">
<path id="elevator_2" d="M7.44225 13.8463V17.0897C7.44225 17.3129 7.51683 17.4991 7.666 17.6482C7.815 17.7972 8.00117 17.8717 8.2245 17.8717H9.16025C9.38342 17.8717 9.56958 17.7972 9.71875 17.6482C9.86775 17.4991 9.94225 17.3129 9.94225 17.0897V13.8463H10.1602C10.3744 13.8214 10.5582 13.7405 10.7117 13.6035C10.8654 13.4665 10.9422 13.2867 10.9422 13.064V11.186C10.9422 10.7 10.7721 10.2868 10.4317 9.9465C10.0914 9.60617 9.67825 9.436 9.19225 9.436H8.19225C7.70642 9.436 7.29333 9.60617 6.953 9.9465C6.6125 10.2868 6.44225 10.7 6.44225 11.186V13.064C6.44225 13.2867 6.51908 13.4665 6.67275 13.6035C6.82642 13.7405 7.01033 13.8214 7.2245 13.8463H7.44225ZM8.691 8.54875C9.02983 8.54875 9.3195 8.429 9.56 8.1895C9.80033 7.95017 9.9205 7.661 9.9205 7.322C9.9205 6.983 9.80083 6.69333 9.5615 6.453C9.322 6.2125 9.03275 6.09225 8.69375 6.09225C8.35475 6.09225 8.06508 6.212 7.82475 6.4515C7.58425 6.69083 7.464 6.98 7.464 7.319C7.464 7.658 7.58375 7.94775 7.82325 8.18825C8.06275 8.42858 8.352 8.54875 8.691 8.54875ZM13.875 10.6282H16.8107C16.9459 10.6282 17.0435 10.5745 17.1035 10.467C17.1635 10.3595 17.1598 10.2507 17.0923 10.1405L15.6115 7.77625C15.5502 7.67292 15.4622 7.62125 15.3475 7.62125C15.233 7.62125 15.1419 7.67292 15.0742 7.77625L13.5935 10.1405C13.526 10.2507 13.5223 10.3595 13.5825 10.467C13.6425 10.5745 13.74 10.6282 13.875 10.6282ZM15.6115 16.2237L17.0923 13.8595C17.1598 13.7493 17.1635 13.6405 17.1035 13.533C17.0435 13.4255 16.9459 13.3717 16.8107 13.3717H13.875C13.74 13.3717 13.6425 13.4255 13.5825 13.533C13.5223 13.6405 13.526 13.7493 13.5935 13.8595L15.0742 16.2237C15.1357 16.3271 15.2238 16.3787 15.3383 16.3787C15.4529 16.3787 15.544 16.3271 15.6115 16.2237ZM5.06425 20.5C4.63442 20.5 4.26625 20.3467 3.95975 20.04C3.65325 19.7335 3.5 19.3654 3.5 18.9357V5.06425C3.5 4.63421 3.65325 4.27358 3.95975 3.96425C4.26625 3.65475 4.63442 3.5 5.06425 3.5H18.9357C19.3597 3.5 19.7264 3.65475 20.0357 3.96425C20.3452 4.27358 20.5 4.63421 20.5 5.06425V18.9357C20.5 19.3654 20.3473 19.7335 20.0408 20.04C19.7343 20.3465 19.3661 20.4998 18.9363 20.4998H5.06425ZM5.06425 19.2435H18.9357C19.0256 19.2435 19.0993 19.2147 19.157 19.157C19.2147 19.0993 19.2435 19.0256 19.2435 18.9357V5.06425C19.2435 4.97442 19.2147 4.90067 19.157 4.843C19.0993 4.78533 19.0256 4.7565 18.9357 4.7565H5.06425C4.97442 4.7565 4.90067 4.78533 4.843 4.843C4.78533 4.90067 4.7565 4.97442 4.7565 5.06425V18.9357C4.7565 19.0256 4.78533 19.0993 4.843 19.157C4.90067 19.2147 4.97442 19.2435 5.06425 19.2435Z" fill="var(--fill-0, #464646)"/>
</g>
</g>
</svg>
