<svg preserveAspectRatio="none" width="100%" height="100%" overflow="visible" style="display: block;" viewBox="0 0 24 24" fill="none" xmlns="http://www.w3.org/2000/svg">
<g id="exercise">
<mask id="mask0_9957_22061" style="mask-type:alpha" maskUnits="userSpaceOnUse" x="0" y="0" width="24" height="24">
<rect id="Bounding box" width="24" height="24" fill="var(--fill-0, #D9D9D9)"/>
</mask>
<g mask="url(#mask0_9957_22061)">
<path id="exercise_2" d="M20.0249 9.37503L19.1499 8.50003L19.9512 7.69053C20.0153 7.62636 20.0474 7.5542 20.0474 7.47403C20.0474 7.39386 20.0153 7.32178 19.9512 7.25778L16.7422 4.04878C16.6782 3.98461 16.6061 3.95253 16.5259 3.95253C16.4458 3.95253 16.3736 3.98461 16.3094 4.04878L15.4999 4.85003L14.5999 3.95003L15.2537 3.27128C15.5922 2.93278 16.0095 2.76769 16.5057 2.77603C17.0018 2.78436 17.4192 2.95778 17.7577 3.29628L20.7037 6.24228C21.0422 6.58078 21.2114 6.99395 21.2114 7.48178C21.2114 7.96961 21.0422 8.38278 20.7037 8.72128L20.0249 9.37503ZM8.74618 20.6788C8.40768 21.0173 7.99451 21.1865 7.50668 21.1865C7.01885 21.1865 6.60568 21.0173 6.26718 20.6788L3.19043 17.602C2.89076 17.2982 2.74093 16.9275 2.74093 16.49C2.74093 16.0527 2.89076 15.6842 3.19043 15.3845L3.97493 14.6L4.87493 15.4833L4.07493 16.2845C4.01076 16.3487 3.97868 16.4209 3.97868 16.501C3.97868 16.5812 4.01076 16.6533 4.07493 16.7173L7.28268 19.925C7.34668 19.9892 7.41876 20.0213 7.49893 20.0213C7.5791 20.0213 7.65126 19.9892 7.71543 19.925L8.51668 19.125L9.39993 20.025L8.74618 20.6788ZM18.5749 13.4155L20.1942 11.7963C20.2583 11.7321 20.2904 11.6584 20.2904 11.575C20.2904 11.4917 20.2583 11.4179 20.1942 11.3538L12.6462 3.80578C12.582 3.74161 12.5083 3.70953 12.4249 3.70953C12.3416 3.70953 12.2678 3.74161 12.2037 3.80578L10.5844 5.42503C10.5204 5.48919 10.4884 5.56128 10.4884 5.64128C10.4884 5.72145 10.5204 5.79361 10.5844 5.85778L18.1422 13.4155C18.2063 13.4795 18.2785 13.5115 18.3587 13.5115C18.4387 13.5115 18.5108 13.4795 18.5749 13.4155ZM11.7962 20.1943L13.4319 18.5595C13.4961 18.4955 13.5282 18.4234 13.5282 18.3433C13.5282 18.2631 13.4961 18.191 13.4319 18.127L5.87293 10.568C5.80893 10.5039 5.73685 10.4718 5.65668 10.4718C5.57651 10.4718 5.50443 10.5039 5.44043 10.568L3.80568 12.2038C3.74151 12.2679 3.70943 12.3417 3.70943 12.425C3.70943 12.5084 3.74151 12.5821 3.80568 12.6463L11.3537 20.1943C11.4178 20.2584 11.4916 20.2905 11.5749 20.2905C11.6583 20.2905 11.732 20.2584 11.7962 20.1943ZM11.5532 14.4635L14.4787 11.5365L12.4634 9.52128L9.53643 12.4468L11.5532 14.4635ZM12.6762 21.0788C12.3773 21.3784 12.0104 21.5283 11.5754 21.5283C11.1404 21.5283 10.7753 21.3784 10.4802 21.0788L2.92118 13.5198C2.62151 13.2253 2.47168 12.8605 2.47168 12.4255C2.47168 11.9905 2.62151 11.6233 2.92118 11.3238L4.54043 9.68478C4.8441 9.38511 5.21468 9.23528 5.65218 9.23528C6.08951 9.23528 6.45801 9.38511 6.75768 9.68478L8.63643 11.5635L11.5789 8.62128L9.69993 6.74103C9.40043 6.44653 9.25068 6.08019 9.25068 5.64203C9.25068 5.20386 9.40043 4.83494 9.69993 4.53528L11.3287 2.89628C11.6325 2.59661 12.0032 2.44678 12.4407 2.44678C12.878 2.44678 13.2465 2.59661 13.5462 2.89628L21.1037 10.4538C21.4033 10.7576 21.5532 11.1283 21.5532 11.5658C21.5532 12.0031 21.4033 12.3716 21.1037 12.6713L19.4647 14.3C19.1658 14.5995 18.7973 14.7493 18.3592 14.7493C17.921 14.7493 17.5543 14.5995 17.2589 14.3L15.3787 12.421L12.4364 15.3635L14.3152 17.2423C14.6148 17.5461 14.7647 17.9167 14.7647 18.354C14.7647 18.7915 14.6148 19.16 14.3152 19.4595L12.6762 21.0788Z" fill="var(--fill-0, #464646)"/>
</g>
</g>
</svg>
