<svg preserveAspectRatio="none" width="100%" height="100%" overflow="visible" style="display: block;" viewBox="0 0 18 18" fill="none" xmlns="http://www.w3.org/2000/svg">
<g id="favorite">
<mask id="mask0_9969_22350" style="mask-type:alpha" maskUnits="userSpaceOnUse" x="0" y="0" width="18" height="18">
<rect id="Bounding box" width="18" height="18" fill="var(--fill-0, #D9D9D9)"/>
</mask>
<g mask="url(#mask0_9969_22350)">
<path id="favorite_2" d="M9 15.2437C8.825 15.2437 8.64688 15.2125 8.46563 15.15C8.28438 15.0875 8.125 14.9875 7.9875 14.85L6.69375 13.6687C5.36875 12.4562 4.17188 11.2531 3.10313 10.0594C2.03437 8.86562 1.5 7.55 1.5 6.1125C1.5 4.9375 1.89375 3.95625 2.68125 3.16875C3.46875 2.38125 4.45 1.9875 5.625 1.9875C6.2875 1.9875 6.9125 2.12812 7.5 2.40937C8.0875 2.69062 8.5875 3.075 9 3.5625C9.4125 3.075 9.9125 2.69062 10.5 2.40937C11.0875 2.12812 11.7125 1.9875 12.375 1.9875C13.55 1.9875 14.5313 2.38125 15.3188 3.16875C16.1063 3.95625 16.5 4.9375 16.5 6.1125C16.5 7.55 15.9688 8.86875 14.9062 10.0687C13.8437 11.2687 12.6375 12.475 11.2875 13.6875L10.0125 14.85C9.875 14.9875 9.71563 15.0875 9.53438 15.15C9.35313 15.2125 9.175 15.2437 9 15.2437ZM8.2875 5.0625C7.925 4.55 7.5375 4.15937 7.125 3.89062C6.7125 3.62187 6.2125 3.4875 5.625 3.4875C4.875 3.4875 4.25 3.7375 3.75 4.2375C3.25 4.7375 3 5.3625 3 6.1125C3 6.7625 3.23125 7.45312 3.69375 8.18437C4.15625 8.91562 4.70938 9.625 5.35313 10.3125C5.99688 11 6.65937 11.6437 7.34062 12.2437C8.02187 12.8437 8.575 13.3375 9 13.725C9.425 13.3375 9.97813 12.8437 10.6594 12.2437C11.3406 11.6437 12.0031 11 12.6469 10.3125C13.2906 9.625 13.8438 8.91562 14.3063 8.18437C14.7688 7.45312 15 6.7625 15 6.1125C15 5.3625 14.75 4.7375 14.25 4.2375C13.75 3.7375 13.125 3.4875 12.375 3.4875C11.7875 3.4875 11.2875 3.62187 10.875 3.89062C10.4625 4.15937 10.075 4.55 9.7125 5.0625C9.625 5.1875 9.51875 5.28125 9.39375 5.34375C9.26875 5.40625 9.1375 5.4375 9 5.4375C8.8625 5.4375 8.73125 5.40625 8.60625 5.34375C8.48125 5.28125 8.375 5.1875 8.2875 5.0625Z" fill="var(--fill-0, #1E1D1D)"/>
</g>
</g>
</svg>
