<svg width="32" height="32" viewBox="0 0 32 32" fill="none" xmlns="http://www.w3.org/2000/svg">
<mask id="mask0_9957_2858" style="mask-type:alpha" maskUnits="userSpaceOnUse" x="0" y="0" width="32" height="32">
<rect width="32" height="32" fill="#D9D9D9"/>
</mask>
<g mask="url(#mask0_9957_2858)">
<g filter="url(#filter0_d_9957_2858)">
<path d="M15.9998 27.0999C15.6887 27.0999 15.3721 27.0444 15.0498 26.9333C14.7276 26.8222 14.4443 26.6444 14.1998 26.3999L11.8998 24.2999C9.54428 22.1444 7.4165 20.0055 5.5165 17.8833C3.6165 15.761 2.6665 13.4222 2.6665 10.8666C2.6665 8.77771 3.3665 7.03326 4.7665 5.63326C6.1665 4.23326 7.91095 3.53326 9.99984 3.53326C11.1776 3.53326 12.2887 3.78326 13.3332 4.28326C14.3776 4.78326 15.2665 5.4666 15.9998 6.33326C16.7332 5.4666 17.6221 4.78326 18.6665 4.28326C19.7109 3.78326 20.8221 3.53326 21.9998 3.53326C24.0887 3.53326 25.8332 4.23326 27.2332 5.63326C28.6332 7.03326 29.3332 8.77771 29.3332 10.8666C29.3332 13.4222 28.3887 15.7666 26.4998 17.8999C24.6109 20.0333 22.4665 22.1777 20.0665 24.3333L17.7998 26.3999C17.5554 26.6444 17.2721 26.8222 16.9498 26.9333C16.6276 27.0444 16.3109 27.0999 15.9998 27.0999ZM14.7332 8.99993C14.0887 8.08882 13.3998 7.39438 12.6665 6.9166C11.9332 6.43882 11.0443 6.19993 9.99984 6.19993C8.6665 6.19993 7.55539 6.64438 6.6665 7.53326C5.77762 8.42215 5.33317 9.53326 5.33317 10.8666C5.33317 12.0222 5.74428 13.2499 6.5665 14.5499C7.38873 15.8499 8.37206 17.111 9.5165 18.3333C10.6609 19.5555 11.8387 20.6999 13.0498 21.7666C14.2609 22.8333 15.2443 23.711 15.9998 24.3999C16.7554 23.711 17.7387 22.8333 18.9498 21.7666C20.1609 20.6999 21.3387 19.5555 22.4832 18.3333C23.6276 17.111 24.611 15.8499 25.4332 14.5499C26.2554 13.2499 26.6665 12.0222 26.6665 10.8666C26.6665 9.53326 26.2221 8.42215 25.3332 7.53326C24.4443 6.64438 23.3332 6.19993 21.9998 6.19993C20.9554 6.19993 20.0665 6.43882 19.3332 6.9166C18.5998 7.39438 17.9109 8.08882 17.2665 8.99993C17.1109 9.22215 16.9221 9.38882 16.6998 9.49993C16.4776 9.61104 16.2443 9.6666 15.9998 9.6666C15.7554 9.6666 15.5221 9.61104 15.2998 9.49993C15.0776 9.38882 14.8887 9.22215 14.7332 8.99993Z" fill="white"/>
</g>
</g>
<defs>
<filter id="filter0_d_9957_2858" x="-2.3335" y="-0.466736" width="36.6665" height="33.5667" filterUnits="userSpaceOnUse" color-interpolation-filters="sRGB">
<feFlood flood-opacity="0" result="BackgroundImageFix"/>
<feColorMatrix in="SourceAlpha" type="matrix" values="0 0 0 0 0 0 0 0 0 0 0 0 0 0 0 0 0 0 127 0" result="hardAlpha"/>
<feOffset dy="1"/>
<feGaussianBlur stdDeviation="2.5"/>
<feComposite in2="hardAlpha" operator="out"/>
<feColorMatrix type="matrix" values="0 0 0 0 0 0 0 0 0 0 0 0 0 0 0 0 0 0 0.3 0"/>
<feBlend mode="normal" in2="BackgroundImageFix" result="effect1_dropShadow_9957_2858"/>
<feBlend mode="normal" in="SourceGraphic" in2="effect1_dropShadow_9957_2858" result="shape"/>
</filter>
</defs>
</svg>
