<svg preserveAspectRatio="none" width="100%" height="100%" overflow="visible" style="display: block;" viewBox="0 0 25 25" fill="none" xmlns="http://www.w3.org/2000/svg">
<g id="flag_2">
<mask id="mask0_9957_22101" style="mask-type:alpha" maskUnits="userSpaceOnUse" x="0" y="0" width="25" height="25">
<rect id="Bounding box" width="25" height="25" fill="var(--fill-0, #D9D9D9)"/>
</mask>
<g mask="url(#mask0_9957_22101)">
<path id="flag_2_2" d="M7.29167 13.5417V21.875C7.29167 22.1701 7.19184 22.4175 6.99219 22.6172C6.79253 22.8168 6.54514 22.9167 6.25 22.9167C5.95486 22.9167 5.70747 22.8168 5.50781 22.6172C5.30816 22.4175 5.20833 22.1701 5.20833 21.875V4.16667C5.20833 3.87153 5.30816 3.62413 5.50781 3.42448C5.70747 3.22483 5.95486 3.125 6.25 3.125H20.3385C20.5295 3.125 20.6988 3.1684 20.8464 3.25521C20.9939 3.34201 21.1111 3.45486 21.1979 3.59375C21.2847 3.73264 21.3411 3.88455 21.3672 4.04948C21.3932 4.21441 21.3715 4.38368 21.3021 4.55729L19.7917 8.33333L21.3021 12.1094C21.3715 12.283 21.3932 12.4523 21.3672 12.6172C21.3411 12.7821 21.2847 12.934 21.1979 13.0729C21.1111 13.2118 20.9939 13.3247 20.8464 13.4115C20.6988 13.4983 20.5295 13.5417 20.3385 13.5417H7.29167ZM7.29167 11.4583H18.8021L17.8646 9.11458C17.7604 8.87153 17.7083 8.61111 17.7083 8.33333C17.7083 8.05556 17.7604 7.79514 17.8646 7.55208L18.8021 5.20833H7.29167V11.4583Z" fill="var(--fill-0, #464646)"/>
</g>
</g>
</svg>
