<svg width="20" height="20" viewBox="0 0 20 20" fill="none" xmlns="http://www.w3.org/2000/svg">
<mask id="mask0_9957_2889" style="mask-type:alpha" maskUnits="userSpaceOnUse" x="0" y="0" width="20" height="20">
<rect width="20" height="20" fill="white"/>
</mask>
<g mask="url(#mask0_9957_2889)">
<path d="M6 16.5V13.75C6 13.5375 6.07188 13.3594 6.21563 13.2156C6.35938 13.0719 6.5375 13 6.75 13H9.5V10.25C9.5 10.0375 9.57188 9.85938 9.71563 9.71563C9.85938 9.57188 10.0375 9.5 10.25 9.5H13V6.75C13 6.5375 13.0719 6.35937 13.2156 6.21562C13.3594 6.07187 13.5375 6 13.75 6H16.5V3.75C16.5 3.5375 16.5715 3.35937 16.7144 3.21562C16.8573 3.07187 17.0344 3 17.2456 3C17.4569 3 17.6354 3.07187 17.7812 3.21562C17.9271 3.35937 18 3.5375 18 3.75V6.75C18 6.9625 17.9281 7.14063 17.7844 7.28438C17.6406 7.42813 17.4625 7.5 17.25 7.5H14.5V10.25C14.5 10.4625 14.4281 10.6406 14.2844 10.7844C14.1406 10.9281 13.9625 11 13.75 11H11V13.75C11 13.9625 10.9281 14.1406 10.7844 14.2844C10.6406 14.4281 10.4625 14.5 10.25 14.5H7.5V17.25C7.5 17.4625 7.42813 17.6406 7.28438 17.7844C7.14062 17.9281 6.9625 18 6.75 18H3.75C3.5375 18 3.35938 17.9285 3.21563 17.7856C3.07188 17.6427 3 17.4656 3 17.2544C3 17.0431 3.07188 16.8646 3.21563 16.7188C3.35938 16.5729 3.5375 16.5 3.75 16.5H6Z" fill="#464646"/>
</g>
</svg>
