<svg preserveAspectRatio="none" width="100%" height="100%" overflow="visible" style="display: block;" viewBox="0 0 22 22" fill="none" xmlns="http://www.w3.org/2000/svg">
<g id="floor">
<mask id="mask0_9957_22113" style="mask-type:alpha" maskUnits="userSpaceOnUse" x="0" y="0" width="22" height="22">
<rect id="Bounding box" width="22" height="22" fill="var(--fill-0, white)"/>
</mask>
<g mask="url(#mask0_9957_22113)">
<path id="floor_2" d="M6.6 18.15V15.125C6.6 14.8913 6.67906 14.6953 6.83719 14.5372C6.99531 14.3791 7.19125 14.3 7.425 14.3H10.45V11.275C10.45 11.0413 10.5291 10.8453 10.6872 10.6872C10.8453 10.5291 11.0413 10.45 11.275 10.45H14.3V7.425C14.3 7.19125 14.3791 6.99531 14.5372 6.83719C14.6953 6.67906 14.8913 6.6 15.125 6.6H18.15V4.125C18.15 3.89125 18.2286 3.69531 18.3858 3.53719C18.543 3.37906 18.7378 3.3 18.9702 3.3C19.2026 3.3 19.399 3.37906 19.5594 3.53719C19.7198 3.69531 19.8 3.89125 19.8 4.125V7.425C19.8 7.65875 19.7209 7.85469 19.5628 8.01281C19.4047 8.17094 19.2088 8.25 18.975 8.25H15.95V11.275C15.95 11.5088 15.8709 11.7047 15.7128 11.8628C15.5547 12.0209 15.3588 12.1 15.125 12.1H12.1V15.125C12.1 15.3588 12.0209 15.5547 11.8628 15.7128C11.7047 15.8709 11.5088 15.95 11.275 15.95H8.25V18.975C8.25 19.2088 8.17094 19.4047 8.01281 19.5628C7.85469 19.7209 7.65875 19.8 7.425 19.8H4.125C3.89125 19.8 3.69531 19.7214 3.53719 19.5642C3.37906 19.407 3.3 19.2122 3.3 18.9798C3.3 18.7474 3.37906 18.551 3.53719 18.3906C3.69531 18.2302 3.89125 18.15 4.125 18.15H6.6Z" fill="var(--fill-0, #1447D4)"/>
</g>
</g>
</svg>
