<svg width="16" height="16" viewBox="0 0 16 16" fill="none" xmlns="http://www.w3.org/2000/svg">
<mask id="mask0_9177_19783" style="mask-type:alpha" maskUnits="userSpaceOnUse" x="0" y="0" width="16" height="16">
<rect width="16" height="16" fill="#D9D9D9"/>
</mask>
<g mask="url(#mask0_9177_19783)">
<path d="M8.83301 8.33331L8.06634 7.33331C7.99967 7.24442 7.91079 7.19998 7.79967 7.19998C7.68856 7.19998 7.59967 7.24442 7.53301 7.33331L6.41634 8.79998C6.32745 8.91109 6.31356 9.02776 6.37467 9.14998C6.43579 9.2722 6.53856 9.33331 6.68301 9.33331H11.983C12.1275 9.33331 12.2302 9.2722 12.2913 9.14998C12.3525 9.02776 12.3386 8.91109 12.2497 8.79998L10.633 6.68331C10.5663 6.59442 10.4775 6.54998 10.3663 6.54998C10.2552 6.54998 10.1663 6.59442 10.0997 6.68331L8.83301 8.33331ZM5.33301 12C4.96634 12 4.65245 11.8694 4.39134 11.6083C4.13023 11.3472 3.99967 11.0333 3.99967 10.6666V2.66665C3.99967 2.29998 4.13023 1.98609 4.39134 1.72498C4.65245 1.46387 4.96634 1.33331 5.33301 1.33331H13.333C13.6997 1.33331 14.0136 1.46387 14.2747 1.72498C14.5358 1.98609 14.6663 2.29998 14.6663 2.66665V10.6666C14.6663 11.0333 14.5358 11.3472 14.2747 11.6083C14.0136 11.8694 13.6997 12 13.333 12H5.33301ZM5.33301 10.6666H13.333V2.66665H5.33301V10.6666ZM2.66634 14.6666C2.29967 14.6666 1.98579 14.5361 1.72467 14.275C1.46356 14.0139 1.33301 13.7 1.33301 13.3333V4.66665C1.33301 4.47776 1.3969 4.31942 1.52467 4.19165C1.65245 4.06387 1.81079 3.99998 1.99967 3.99998C2.18856 3.99998 2.3469 4.06387 2.47467 4.19165C2.60245 4.31942 2.66634 4.47776 2.66634 4.66665V13.3333H11.333C11.5219 13.3333 11.6802 13.3972 11.808 13.525C11.9358 13.6528 11.9997 13.8111 11.9997 14C11.9997 14.1889 11.9358 14.3472 11.808 14.475C11.6802 14.6028 11.5219 14.6666 11.333 14.6666H2.66634Z" fill="white"/>
</g>
</svg>
