<svg width="17" height="17" viewBox="0 0 17 17" fill="none" xmlns="http://www.w3.org/2000/svg">
<g clip-path="url(#clip0_9321_16531)">
<path d="M5.9233 0.559138C4.22474 1.14839 2.7599 2.2668 1.74394 3.75009C0.727992 5.23339 0.214476 7.00339 0.278825 8.80011C0.343174 10.5968 0.981995 12.3256 2.10146 13.7324C3.22092 15.1392 4.76201 16.1499 6.49838 16.6162C7.90609 16.9794 9.38095 16.9954 10.7962 16.6627C12.0783 16.3747 13.2636 15.7587 14.236 14.875C15.2482 13.9272 15.9828 12.7214 16.361 11.3873C16.7721 9.93659 16.8453 8.41092 16.5749 6.9275H8.66986V10.2066H13.2479C13.1564 10.7296 12.9603 11.2288 12.6714 11.6743C12.3825 12.1197 12.0067 12.5023 11.5665 12.7991C11.0075 13.1689 10.3773 13.4177 9.71642 13.5296C9.05362 13.6529 8.37376 13.6529 7.71096 13.5296C7.03918 13.3907 6.40368 13.1134 5.84494 12.7155C4.94733 12.0801 4.27334 11.1774 3.91916 10.1362C3.55899 9.0756 3.55899 7.92572 3.91916 6.86508C4.17127 6.12161 4.58805 5.44469 5.13838 4.88484C5.76816 4.2324 6.56549 3.76602 7.44288 3.5369C8.32027 3.30777 9.24382 3.32473 10.1122 3.58593C10.7906 3.79417 11.4109 4.15801 11.9238 4.64844C12.44 4.13489 12.9553 3.62002 13.4697 3.10383C13.7353 2.82625 14.0249 2.56195 14.2865 2.27773C13.5037 1.54922 12.5848 0.982354 11.5824 0.609607C9.7572 -0.053141 7.76007 -0.0709517 5.9233 0.559138Z" fill="white"/>
<path d="M5.92273 0.559143C7.75935 -0.0713754 9.75648 -0.0540335 11.5819 0.608283C12.5844 0.983563 13.5029 1.55316 14.2846 2.28438C14.019 2.5686 13.7387 2.83422 13.4678 3.11047C12.9525 3.6249 12.4376 4.13755 11.9232 4.64844C11.4103 4.15801 10.79 3.79418 10.1116 3.58594C9.24354 3.32382 8.32002 3.30587 7.4424 3.53407C6.56478 3.76226 5.76696 4.22777 5.13648 4.87953C4.58615 5.43939 4.16938 6.1163 3.91727 6.85977L1.16406 4.72813C2.14954 2.77387 3.85584 1.27902 5.92273 0.559143Z" fill="#E33629"/>
<path d="M0.434215 6.83985C0.582196 6.10645 0.827876 5.39621 1.16468 4.72813L3.91789 6.86508C3.55772 7.92573 3.55772 9.0756 3.91789 10.1363C3.0006 10.8446 2.08286 11.5565 1.16468 12.2719C0.321524 10.5935 0.0643755 8.68129 0.434215 6.83985Z" fill="#F8BD00"/>
<path d="M8.66856 6.92617H16.5736C16.844 8.4096 16.7708 9.93526 16.3597 11.386C15.9815 12.7201 15.2469 13.9258 14.2347 14.8737C13.3462 14.1804 12.4537 13.4924 11.5652 12.7991C12.0057 12.502 12.3817 12.119 12.6706 11.6731C12.9595 11.2271 13.1554 10.7275 13.2466 10.204H8.66856C8.66723 9.11226 8.66856 8.01922 8.66856 6.92617Z" fill="#587DBD"/>
<path d="M1.16406 12.2719C2.08224 11.5635 2.99997 10.8517 3.91727 10.1362C4.27215 11.1778 4.9471 12.0805 5.8457 12.7155C6.40618 13.1116 7.04305 13.3866 7.7157 13.523C8.37851 13.6462 9.05836 13.6462 9.72117 13.523C10.382 13.4111 11.0122 13.1623 11.5712 12.7925C12.4598 13.4858 13.3523 14.1737 14.2408 14.867C13.2684 15.7512 12.0831 16.3677 10.8009 16.656C9.3857 16.9887 7.91084 16.9728 6.50313 16.6095C5.38976 16.3123 4.3498 15.7882 3.44844 15.0702C2.49439 14.3128 1.71517 13.3582 1.16406 12.2719Z" fill="#319F43"/>
</g>
<defs>
<clipPath id="clip0_9321_16531">
<rect width="17" height="17" fill="white"/>
</clipPath>
</defs>
</svg>
