<svg width="23" height="23" viewBox="0 0 23 23" fill="none" xmlns="http://www.w3.org/2000/svg">
<mask id="mask0_10823_15777" style="mask-type:alpha" maskUnits="userSpaceOnUse" x="0" y="0" width="23" height="23">
<rect width="23" height="23" fill="#D9D9D9"/>
</mask>
<g mask="url(#mask0_10823_15777)">
<path d="M10.542 12.4584H5.75033C5.4788 12.4584 5.25119 12.3666 5.06751 12.1829C4.88383 11.9992 4.79199 11.7716 4.79199 11.5001C4.79199 11.2286 4.88383 11.0009 5.06751 10.8173C5.25119 10.6336 5.4788 10.5417 5.75033 10.5417H10.542V5.75008C10.542 5.47855 10.6338 5.25095 10.8175 5.06727C11.0012 4.88359 11.2288 4.79175 11.5003 4.79175C11.7719 4.79175 11.9995 4.88359 12.1831 5.06727C12.3668 5.25095 12.4587 5.47855 12.4587 5.75008V10.5417H17.2503C17.5219 10.5417 17.7495 10.6336 17.9331 10.8173C18.1168 11.0009 18.2087 11.2286 18.2087 11.5001C18.2087 11.7716 18.1168 11.9992 17.9331 12.1829C17.7495 12.3666 17.5219 12.4584 17.2503 12.4584H12.4587V17.2501C12.4587 17.5216 12.3668 17.7492 12.1831 17.9329C11.9995 18.1166 11.7719 18.2084 11.5003 18.2084C11.2288 18.2084 11.0012 18.1166 10.8175 17.9329C10.6338 17.7492 10.542 17.5216 10.542 17.2501V12.4584Z" fill="#464646"/>
</g>
</svg>
