<svg width="44" height="44" viewBox="0 0 44 44" fill="none" xmlns="http://www.w3.org/2000/svg">
<rect width="44" height="44" rx="22" fill="#E8E8E7"/>
<mask id="mask0_10899_676" style="mask-type:alpha" maskUnits="userSpaceOnUse" x="11" y="11" width="22" height="22">
<rect x="11" y="11" width="22" height="22" fill="#D9D9D9"/>
</mask>
<g mask="url(#mask0_10899_676)">
<path d="M14.8958 17.417C14.701 17.417 14.5377 17.3511 14.406 17.2192C14.2742 17.0874 14.2083 16.9241 14.2083 16.7293C14.2083 16.5343 14.2742 16.3711 14.406 16.2395C14.5377 16.1078 14.701 16.042 14.8958 16.042H29.1041C29.2989 16.042 29.4621 16.1079 29.5938 16.2398C29.7257 16.3716 29.7916 16.5349 29.7916 16.7297C29.7916 16.9247 29.7257 17.0879 29.5938 17.2195C29.4621 17.3511 29.2989 17.417 29.1041 17.417H14.8958ZM14.8958 27.9587C14.701 27.9587 14.5377 27.8927 14.406 27.7609C14.2742 27.629 14.2083 27.4657 14.2083 27.2709C14.2083 27.076 14.2742 26.9127 14.406 26.7812C14.5377 26.6495 14.701 26.5837 14.8958 26.5837H29.1041C29.2989 26.5837 29.4621 26.6496 29.5938 26.7814C29.7257 26.9133 29.7916 27.0766 29.7916 27.2714C29.7916 27.4663 29.7257 27.6296 29.5938 27.7611C29.4621 27.8928 29.2989 27.9587 29.1041 27.9587H14.8958ZM14.8958 22.6878C14.701 22.6878 14.5377 22.6219 14.406 22.4901C14.2742 22.3582 14.2083 22.1949 14.2083 22.0001C14.2083 21.8052 14.2742 21.6419 14.406 21.5104C14.5377 21.3787 14.701 21.3128 14.8958 21.3128H29.1041C29.2989 21.3128 29.4621 21.3787 29.5938 21.5106C29.7257 21.6424 29.7916 21.8058 29.7916 22.0006C29.7916 22.1955 29.7257 22.3587 29.5938 22.4903C29.4621 22.622 29.2989 22.6878 29.1041 22.6878H14.8958Z" fill="#1447D4"/>
</g>
</svg>
