<svg width="23" height="23" viewBox="0 0 23 23" fill="none" xmlns="http://www.w3.org/2000/svg">
<mask id="mask0_10823_15773" style="mask-type:alpha" maskUnits="userSpaceOnUse" x="0" y="0" width="23" height="23">
<rect width="23" height="23" fill="#D9D9D9"/>
</mask>
<g mask="url(#mask0_10823_15773)">
<path d="M5.75033 12.4584C5.4788 12.4584 5.25119 12.3666 5.06751 12.1829C4.88383 11.9992 4.79199 11.7716 4.79199 11.5001C4.79199 11.2286 4.88383 11.0009 5.06751 10.8173C5.25119 10.6336 5.4788 10.5417 5.75033 10.5417H17.2503C17.5219 10.5417 17.7495 10.6336 17.9331 10.8173C18.1168 11.0009 18.2087 11.2286 18.2087 11.5001C18.2087 11.7716 18.1168 11.9992 17.9331 12.1829C17.7495 12.3666 17.5219 12.4584 17.2503 12.4584H5.75033Z" fill="#464646"/>
</g>
</svg>
