<svg preserveAspectRatio="none" width="100%" height="100%" overflow="visible" style="display: block;" viewBox="0 0 18 18" fill="none" xmlns="http://www.w3.org/2000/svg">
<g id="group">
<mask id="mask0_9969_22358" style="mask-type:alpha" maskUnits="userSpaceOnUse" x="0" y="0" width="18" height="18">
<rect id="Bounding box" width="18" height="18" fill="var(--fill-0, #D9D9D9)"/>
</mask>
<g mask="url(#mask0_9969_22358)">
<path id="group_2" d="M1.7998 12.6746C1.7998 12.3524 1.87793 12.0562 2.03418 11.786C2.19043 11.5159 2.40605 11.2996 2.68105 11.1371C3.35605 10.7371 4.07168 10.4309 4.82793 10.2184C5.58418 10.0059 6.3748 9.89961 7.1998 9.89961C8.0248 9.89961 8.81543 10.0059 9.57168 10.2184C10.3279 10.4309 11.0436 10.7371 11.7186 11.1371C11.9936 11.2996 12.2092 11.5163 12.3654 11.7872C12.5217 12.0582 12.5998 12.354 12.5998 12.6746V13.0496C12.5998 13.4209 12.4676 13.7387 12.2031 14.003C11.9386 14.2674 11.6206 14.3996 11.2491 14.3996H3.14455C2.77305 14.3996 2.45605 14.2674 2.19355 14.003C1.93105 13.7387 1.7998 13.4209 1.7998 13.0496V12.6746ZM14.8498 14.3996H13.5936C13.7061 14.1871 13.7936 13.9672 13.8561 13.7398C13.9186 13.5125 13.9498 13.2825 13.9498 13.0496V12.6746C13.9498 12.1496 13.8279 11.6621 13.5842 11.2121C13.3404 10.7621 13.0123 10.3934 12.5998 10.1059C13.0873 10.2059 13.5592 10.3402 14.0154 10.509C14.4717 10.6777 14.9061 10.8871 15.3186 11.1371C15.5936 11.2996 15.8092 11.5163 15.9654 11.7872C16.1217 12.0582 16.1998 12.354 16.1998 12.6746V13.0496C16.1998 13.4209 16.0676 13.7387 15.8032 14.003C15.5389 14.2674 15.2211 14.3996 14.8498 14.3996ZM7.1998 8.99961C6.4498 8.99961 5.8123 8.73711 5.2873 8.21211C4.7623 7.68711 4.4998 7.04961 4.4998 6.29961C4.4998 5.54961 4.7623 4.91211 5.2873 4.38711C5.8123 3.86211 6.4498 3.59961 7.1998 3.59961C7.9498 3.59961 8.5873 3.86211 9.1123 4.38711C9.6373 4.91211 9.8998 5.54961 9.8998 6.29961C9.8998 7.04961 9.6373 7.68711 9.1123 8.21211C8.5873 8.73711 7.9498 8.99961 7.1998 8.99961ZM13.4998 6.29961C13.4998 7.04961 13.2373 7.68711 12.7123 8.21211C12.1873 8.73711 11.5498 8.99961 10.7998 8.99961C10.6998 8.99961 10.6061 8.99648 10.5186 8.99023C10.4311 8.98398 10.3373 8.96836 10.2373 8.94336C10.5498 8.58086 10.7967 8.17773 10.9779 7.73398C11.1592 7.29023 11.2498 6.81211 11.2498 6.29961C11.2498 5.78711 11.1592 5.30898 10.9779 4.86523C10.7967 4.42148 10.5498 4.01836 10.2373 3.65586C10.3373 3.63086 10.4311 3.61523 10.5186 3.60898C10.6061 3.60273 10.6998 3.59961 10.7998 3.59961C11.5498 3.59961 12.1873 3.86211 12.7123 4.38711C13.2373 4.91211 13.4998 5.54961 13.4998 6.29961ZM3.1498 13.0496H11.2498V12.6746C11.2498 12.5937 11.2309 12.5202 11.193 12.4541C11.1552 12.3879 11.1054 12.3364 11.0436 12.2996C10.4561 11.9621 9.83731 11.7027 9.18731 11.5215C8.53731 11.3402 7.8748 11.2496 7.1998 11.2496C6.5248 11.2496 5.8623 11.3371 5.2123 11.5121C4.5623 11.6871 3.94355 11.9496 3.35605 12.2996C3.29418 12.335 3.2443 12.3844 3.20643 12.4479C3.16868 12.5115 3.1498 12.5865 3.1498 12.6729V13.0496ZM7.20374 7.64961C7.57612 7.64961 7.89355 7.51705 8.15605 7.25192C8.41855 6.9868 8.5498 6.66805 8.5498 6.29567C8.5498 5.9233 8.41724 5.60586 8.15212 5.34336C7.88699 5.08086 7.56824 4.94961 7.19587 4.94961C6.82349 4.94961 6.50605 5.08217 6.24355 5.3473C5.98105 5.61242 5.8498 5.93117 5.8498 6.30355C5.8498 6.67592 5.98237 6.99336 6.24749 7.25586C6.51262 7.51836 6.83137 7.64961 7.20374 7.64961Z" fill="var(--fill-0, #1E1D1D)"/>
</g>
</g>
</svg>
