<svg preserveAspectRatio="none" width="100%" height="100%" overflow="visible" style="display: block;" viewBox="0 0 22 22" fill="none" xmlns="http://www.w3.org/2000/svg">
<g id="dehaze">
<mask id="mask0_9966_22248" style="mask-type:alpha" maskUnits="userSpaceOnUse" x="0" y="0" width="22" height="22">
<rect id="Bounding box" width="22" height="22" fill="var(--fill-0, #D9D9D9)"/>
</mask>
<g mask="url(#mask0_9966_22248)">
<path id="dehaze_2" d="M3.89583 6.41667C3.70104 6.41667 3.5378 6.35074 3.4061 6.2189C3.27426 6.08705 3.20833 5.92373 3.20833 5.72894C3.20833 5.53399 3.27426 5.37075 3.4061 5.23921C3.5378 5.10751 3.70104 5.04167 3.89583 5.04167H18.1042C18.299 5.04167 18.4622 5.10759 18.5939 5.23944C18.7257 5.37128 18.7917 5.5346 18.7917 5.7294C18.7917 5.92434 18.7257 6.08758 18.5939 6.21912C18.4622 6.35082 18.299 6.41667 18.1042 6.41667H3.89583ZM3.89583 16.9583C3.70104 16.9583 3.5378 16.8924 3.4061 16.7606C3.27426 16.6287 3.20833 16.4654 3.20833 16.2706C3.20833 16.0757 3.27426 15.9124 3.4061 15.7809C3.5378 15.6492 3.70104 15.5833 3.89583 15.5833H18.1042C18.299 15.5833 18.4622 15.6493 18.5939 15.7811C18.7257 15.913 18.7917 16.0763 18.7917 16.2711C18.7917 16.466 18.7257 16.6293 18.5939 16.7608C18.4622 16.8925 18.299 16.9583 18.1042 16.9583H3.89583ZM3.89583 11.6875C3.70104 11.6875 3.5378 11.6216 3.4061 11.4897C3.27426 11.3579 3.20833 11.1946 3.20833 10.9998C3.20833 10.8048 3.27426 10.6416 3.4061 10.51C3.5378 10.3783 3.70104 10.3125 3.89583 10.3125H18.1042C18.299 10.3125 18.4622 10.3784 18.5939 10.5103C18.7257 10.6421 18.7917 10.8054 18.7917 11.0002C18.7917 11.1952 18.7257 11.3584 18.5939 11.49C18.4622 11.6217 18.299 11.6875 18.1042 11.6875H3.89583Z" fill="var(--fill-0, #1447D4)"/>
</g>
</g>
</svg>
