<svg preserveAspectRatio="none" width="100%" height="100%" overflow="visible" style="display: block;" viewBox="0 0 18 18" fill="none" xmlns="http://www.w3.org/2000/svg">
<g id="headset_mic">
<mask id="mask0_9969_22318" style="mask-type:alpha" maskUnits="userSpaceOnUse" x="0" y="0" width="18" height="18">
<rect id="Bounding box" width="18" height="18" fill="var(--fill-0, #D9D9D9)"/>
</mask>
<g mask="url(#mask0_9969_22318)">
<path id="headset_mic_2" d="M3.75 15C3.3375 15 2.98438 14.8531 2.69063 14.5594C2.39688 14.2656 2.25 13.9125 2.25 13.5V8.25C2.25 7.325 2.42813 6.45313 2.78438 5.63438C3.14063 4.81563 3.625 4.1 4.2375 3.4875C4.85 2.875 5.56563 2.39063 6.38438 2.03438C7.20313 1.67813 8.075 1.5 9 1.5C9.925 1.5 10.7969 1.67813 11.6156 2.03438C12.4344 2.39063 13.15 2.875 13.7625 3.4875C14.375 4.1 14.8594 4.81563 15.2156 5.63438C15.5719 6.45313 15.75 7.325 15.75 8.25V15.75C15.75 16.1625 15.6031 16.5156 15.3094 16.8094C15.0156 17.1031 14.6625 17.25 14.25 17.25H9.75C9.5375 17.25 9.35938 17.1781 9.21563 17.0344C9.07188 16.8906 9 16.7125 9 16.5C9 16.2875 9.07188 16.1094 9.21563 15.9656C9.35938 15.8219 9.5375 15.75 9.75 15.75H14.25V15H12.75C12.3375 15 11.9844 14.8531 11.6906 14.5594C11.3969 14.2656 11.25 13.9125 11.25 13.5V10.5C11.25 10.0875 11.3969 9.73438 11.6906 9.44063C11.9844 9.14688 12.3375 9 12.75 9H14.25V8.25C14.25 6.8 13.7375 5.5625 12.7125 4.5375C11.6875 3.5125 10.45 3 9 3C7.55 3 6.3125 3.5125 5.2875 4.5375C4.2625 5.5625 3.75 6.8 3.75 8.25V9H5.25C5.6625 9 6.01562 9.14688 6.30937 9.44063C6.60312 9.73438 6.75 10.0875 6.75 10.5V13.5C6.75 13.9125 6.60312 14.2656 6.30937 14.5594C6.01562 14.8531 5.6625 15 5.25 15H3.75ZM3.75 13.5H5.25V10.5H3.75V13.5ZM12.75 13.5H14.25V10.5H12.75V13.5Z" fill="var(--fill-0, #1E1D1D)"/>
</g>
</g>
</svg>
