<svg preserveAspectRatio="none" width="100%" height="100%" overflow="visible" style="display: block;" viewBox="0 0 126.036 22" fill="none" xmlns="http://www.w3.org/2000/svg">
<g id="Theme=Light backgrounds 3" clip-path="url(#clip0_9969_22406)">
<path id="Vector" d="M13.7765 17.5049L14.1651 21.3819C13.1438 21.6975 12.0586 21.8674 10.9337 21.8674C9.80877 21.8674 8.72353 21.6975 7.70223 21.3819L8.09093 17.5049H13.7765Z" fill="var(--fill-0, #1447D4)"/>
<path id="Vector_2" d="M3.94004 13.0546L3.49032 17.5051H2.1942C0.816631 15.6758 -3.63826e-06 13.4002 -3.63826e-06 10.9338C-3.63826e-06 7.05415 2.02068 3.64647 5.06699 1.70576L3.94004 13.0546Z" fill="var(--fill-0, #1447D4)"/>
<path id="Vector_3" d="M8.09093 17.505H5.02883L5.46297 13.2084L5.46301 13.2078L6.68977 0.854261C7.6731 0.439732 8.72974 0.164886 9.83485 0.0546038L9.84032 4.19617e-05L8.09093 17.505Z" fill="var(--fill-0, #1447D4)"/>
<path id="Vector_4" d="M17.9273 13.0546L18.377 17.5051H19.6732C21.0508 15.6758 21.8673 13.4002 21.8673 10.9338C21.8673 7.05415 19.8466 3.64647 16.8004 1.70576L17.9273 13.0546Z" fill="var(--fill-0, #1447D4)"/>
<path id="Vector_5" d="M13.7765 17.505H16.8386L16.4044 13.2084L16.4043 13.2078L15.1776 0.854261C14.1942 0.439732 13.1376 0.164886 12.0325 0.0546038L12.0271 4.19617e-05L13.7765 17.505Z" fill="var(--fill-0, #1447D4)"/>
<path id="Vector_6" d="M115.939 11.6105C115.939 10.0887 116.37 8.89234 117.23 8.02127C118.091 7.15022 119.355 6.71469 121.024 6.71469C122.556 6.71469 123.742 7.13972 124.582 7.9898C125.421 8.82938 125.841 10.0415 125.841 11.6262V12.4763H118.159C118.159 13.3999 118.39 14.124 118.852 14.6487C119.324 15.1629 120.053 15.42 121.04 15.42C121.764 15.42 122.32 15.2783 122.708 14.995C123.097 14.7116 123.327 14.3496 123.401 13.9088L123.417 13.6727H125.762L125.747 13.7986C125.621 14.8481 125.154 15.6877 124.346 16.3174C123.548 16.947 122.441 17.2619 121.024 17.2619C119.345 17.2619 118.075 16.8264 117.214 15.9553C116.364 15.0842 115.939 13.8774 115.939 12.3346V11.6105ZM123.621 10.9336V10.6502C123.527 9.96805 123.249 9.44856 122.787 9.09175C122.336 8.73492 121.722 8.55651 120.945 8.55651C120.116 8.55651 119.471 8.76641 119.009 9.1862C118.558 9.59549 118.285 10.178 118.19 10.9336H123.621Z" fill="var(--fill-0, #1E1D1D)"/>
<path id="Vector_7" d="M112.858 10.9808C112.858 9.35412 112.176 8.54077 110.812 8.54077C109.951 8.54077 109.358 8.80314 109.033 9.32788C108.708 9.84212 108.545 10.4036 108.545 11.0123V17.1045H106.42V10.9808C106.42 9.35412 105.738 8.54077 104.373 8.54077C103.523 8.54077 102.93 8.80314 102.594 9.32788C102.269 9.84212 102.106 10.4036 102.106 11.0123V17.1045H99.9814V6.87211H102.106V8.14722C102.726 7.19219 103.675 6.71469 104.956 6.71469C105.743 6.71469 106.394 6.87735 106.908 7.20269C107.422 7.51753 107.816 7.95306 108.089 8.50929C108.414 7.95306 108.844 7.51753 109.379 7.20269C109.925 6.87735 110.581 6.71469 111.347 6.71469C112.522 6.71469 113.42 7.07151 114.039 7.78515C114.669 8.49879 114.984 9.43283 114.984 10.5872V17.1045H112.858V10.9808Z" fill="var(--fill-0, #1E1D1D)"/>
<path id="Vector_8" d="M94.0005 17.2619C92.3949 17.2619 91.1722 16.8264 90.3326 15.9553C89.5037 15.0737 89.0891 13.8669 89.0891 12.3346V11.642C89.0891 10.1097 89.5037 8.90809 90.3326 8.03702C91.1722 7.15547 92.3949 6.71469 94.0005 6.71469C95.6063 6.71469 96.8237 7.15547 97.6527 8.03702C98.4818 8.90809 98.8963 10.1097 98.8963 11.642V12.3346C98.8963 13.8669 98.4818 15.0737 97.6527 15.9553C96.8237 16.8264 95.6063 17.2619 94.0005 17.2619ZM91.2772 12.4448C91.2772 14.4283 92.185 15.42 94.0005 15.42C95.8162 15.42 96.7239 14.4283 96.7239 12.4448V11.5318C96.7239 9.54826 95.8162 8.55651 94.0005 8.55651C92.185 8.55651 91.2772 9.54826 91.2772 11.5318V12.4448Z" fill="var(--fill-0, #1E1D1D)"/>
<path id="Vector_9" d="M85.7582 11.5316H79.3512V17.1043H77.1316V4.00688H79.3512V9.57959H85.7582V4.00688H87.9779V17.1043H85.7582V11.5316Z" fill="var(--fill-0, #1E1D1D)"/>
<path id="Vector_10" d="M68.4021 8.55651C68.7694 7.9898 69.2364 7.54377 69.8031 7.21843C70.3698 6.8826 71.0415 6.71469 71.8181 6.71469C72.9725 6.71469 73.8802 7.08726 74.5414 7.83238C75.2026 8.5775 75.5332 9.59549 75.5332 10.8863V17.1045H73.408V11.1225C73.408 10.2829 73.2086 9.64271 72.8098 9.20193C72.4215 8.76116 71.8285 8.54077 71.031 8.54077C70.055 8.54077 69.3729 8.82413 68.9846 9.39084C68.5963 9.94707 68.4021 10.5663 68.4021 11.2484V17.1045H66.2769V6.87211H68.4021V8.55651Z" fill="var(--fill-0, #1E1D1D)"/>
<path id="Vector_11" d="M64.7465 4.00688V17.1043H62.6213V4.00688H64.7465Z" fill="var(--fill-0, #1E1D1D)"/>
<path id="Vector_12" d="M53.7578 8.24167C54.0516 7.81139 54.4662 7.44931 55.0015 7.15547C55.5366 6.86161 56.2031 6.71469 57.0007 6.71469C57.9241 6.71469 58.7270 6.91934 59.4091 7.32863C60.0913 7.72743 60.6161 8.28364 60.9833 8.99729C61.3507 9.71093 61.5344 10.5295 61.5344 11.4531V12.5707C61.5344 13.4733 61.3507 14.2814 60.9833 14.995C60.6161 15.7087 60.0913 16.2649 59.4091 16.6637C58.7270 17.0625 57.9346 17.2619 57.0321 17.2619C56.2555 17.2619 55.5891 17.1202 55.0329 16.8369C54.4871 16.5429 54.0621 16.1915 53.7578 15.7821V20.7566H51.6327V6.87211H53.7578V8.24167ZM53.7578 12.8541C53.8208 13.6202 54.0883 14.2394 54.5607 14.7116C55.0433 15.184 55.7098 15.42 56.5599 15.42C57.4834 15.42 58.1761 15.1473 58.6378 14.6015C59.11 14.0453 59.3462 13.3369 59.3462 12.4763V11.5003C59.3462 10.6502 59.11 9.94707 58.6378 9.39084C58.1656 8.83463 57.4677 8.55651 56.5441 8.55651C55.7045 8.55651 55.0433 8.79789 54.5607 9.28064C54.0883 9.75291 53.8208 10.3721 53.7578 11.1382V12.8541Z" fill="var(--fill-0, #1E1D1D)"/>
<path id="Vector_13" d="M45.6525 17.2619C44.0468 17.2619 42.8242 16.8264 41.9846 15.9553C41.1555 15.0737 40.7409 13.8669 40.7409 12.3346V11.642C40.7409 10.1097 41.1555 8.90809 41.9846 8.03702C42.8242 7.15547 44.0468 6.71469 45.6525 6.71469C47.2582 6.71469 48.4755 7.15547 49.3046 8.03702C50.1338 8.90809 50.5483 10.1097 50.5483 11.642V12.3346C50.5483 13.8669 50.1338 15.0737 49.3046 15.9553C48.4755 16.8264 47.2582 17.2619 45.6525 17.2619ZM42.9292 12.4448C42.9292 14.4283 43.837 15.42 45.6525 15.42C47.4680 15.42 48.3759 14.4283 48.3759 12.4448V11.5318C48.3759 9.54826 47.4680 8.55651 45.6525 8.55651C43.8370 8.55651 42.9292 9.54826 42.9292 11.5318V12.4448Z" fill="var(--fill-0, #1E1D1D)"/>
<path id="Vector_14" d="M37.4102 11.5316H31.0032V17.1044H28.7835V4.00688H31.0032V9.57959H37.4102V4.00688H39.6298V17.1044H37.4102V11.5316Z" fill="var(--fill-0, #1E1D1D)"/>
</g>
<defs>
<clipPath id="clip0_9969_22406">
<rect width="126.036" height="22" fill="white"/>
</clipPath>
</defs>
</svg>
