<svg width="160" height="28" viewBox="0 0 160 28" fill="none" xmlns="http://www.w3.org/2000/svg">
<g clip-path="url(#clip0_9925_4517)">
<path d="M17.489 22.2789L17.9823 27.2133C16.6858 27.615 15.3082 27.8312 13.8801 27.8312C12.452 27.8312 11.0744 27.615 9.77783 27.2133L10.2713 22.2789H17.489Z" fill="white"/>
<path d="M5.00179 16.6149L4.43089 22.2792H2.7855C1.0367 19.9509 0 17.0548 0 13.9158C0 8.978 2.56522 4.64096 6.43244 2.17095L5.00179 16.6149Z" fill="white"/>
<path d="M10.271 22.2791H6.38379L6.93492 16.8107L6.93497 16.8099L8.49231 1.08723C9.74063 0.559643 11.082 0.209839 12.4849 0.0694805L12.4919 3.8147e-05L10.271 22.2791Z" fill="white"/>
<path d="M22.7582 16.6149L23.3291 22.2792H24.9745C26.7234 19.9509 27.7599 17.0548 27.7599 13.9158C27.7599 8.978 25.1947 4.64096 21.3276 2.17095L22.7582 16.6149Z" fill="white"/>
<path d="M17.4889 22.2791H21.3762L20.825 16.8107L20.8249 16.8099L19.2676 1.08723C18.0192 0.559643 16.6779 0.209839 15.275 0.0694805L15.2681 3.8147e-05L17.4889 22.2791Z" fill="white"/>
<path d="M147.182 14.777C147.182 12.8402 147.728 11.3175 148.821 10.2089C149.913 9.10029 151.519 8.54597 153.637 8.54597C155.582 8.54597 157.087 9.08693 158.153 10.1688C159.219 11.2374 159.752 12.7801 159.752 14.797V15.8789H150C150 17.0544 150.293 17.976 150.879 18.6438C151.479 19.2982 152.405 19.6255 153.657 19.6255C154.576 19.6255 155.282 19.4452 155.775 19.0845C156.268 18.7239 156.561 18.2631 156.655 17.7021L156.675 17.4017H159.652L159.632 17.5619C159.472 18.8976 158.879 19.9662 157.854 20.7676C156.841 21.5689 155.436 21.9697 153.637 21.9697C151.505 21.9697 149.893 21.4154 148.801 20.3067C147.722 19.198 147.182 17.6621 147.182 15.6986V14.777ZM156.934 13.9155V13.5548C156.814 12.6866 156.461 12.0254 155.875 11.5713C155.302 11.1172 154.523 10.8901 153.537 10.8901C152.485 10.8901 151.665 11.1573 151.079 11.6915C150.506 12.2125 150.16 12.9538 150.04 13.9155H156.934Z" fill="white"/>
<path d="M143.271 13.9756C143.271 11.9052 142.405 10.8701 140.673 10.8701C139.581 10.8701 138.828 11.204 138.415 11.8719C138.002 12.5263 137.796 13.2409 137.796 14.0156V21.7693H135.098V13.9756C135.098 11.9052 134.232 10.8701 132.5 10.8701C131.421 10.8701 130.668 11.204 130.242 11.8719C129.829 12.5263 129.622 13.2409 129.622 14.0156V21.7693H126.924V8.74633H129.622V10.3692C130.408 9.15371 131.614 8.54597 133.239 8.54597C134.238 8.54597 135.064 8.75301 135.717 9.16707C136.37 9.56777 136.87 10.1221 137.216 10.83C137.629 10.1221 138.175 9.56777 138.855 9.16707C139.547 8.75301 140.38 8.54597 141.353 8.54597C142.845 8.54597 143.984 9.00011 144.77 9.90838C145.569 10.8167 145.969 12.0054 145.969 13.4747V21.7693H143.271V13.9756Z" fill="white"/>
<path d="M119.332 21.9697C117.293 21.9697 115.741 21.4154 114.675 20.3067C113.623 19.1847 113.097 17.6488 113.097 15.6986V14.817C113.097 12.8669 113.623 11.3376 114.675 10.2289C115.741 9.10697 117.293 8.54597 119.332 8.54597C121.37 8.54597 122.916 9.10697 123.968 10.2289C125.02 11.3376 125.547 12.8669 125.547 14.817V15.6986C125.547 17.6488 125.02 19.1847 123.968 20.3067C122.916 21.4154 121.37 21.9697 119.332 21.9697ZM115.874 15.8389C115.874 18.3633 117.027 19.6255 119.332 19.6255C121.637 19.6255 122.789 18.3633 122.789 15.8389V14.6768C122.789 12.1523 121.637 10.8901 119.332 10.8901C117.027 10.8901 115.874 12.1523 115.874 14.6768V15.8389Z" fill="white"/>
<path d="M108.868 14.6766H100.735V21.7691H97.917V5.09965H100.735V12.1922H108.868V5.09965H111.686V21.7691H108.868V14.6766Z" fill="white"/>
<path d="M86.8347 10.8901C87.3009 10.1688 87.8938 9.60117 88.6132 9.18711C89.3326 8.75969 90.1853 8.54597 91.1712 8.54597C92.6367 8.54597 93.789 9.02015 94.6284 9.96849C95.4678 10.9168 95.8874 12.2125 95.8874 13.8553V21.7693H93.1896V14.1559C93.1896 13.0873 92.9364 12.2726 92.4301 11.7116C91.9372 11.1506 91.1845 10.8701 90.172 10.8701C88.933 10.8701 88.0671 11.2307 87.5741 11.952C87.0812 12.6599 86.8347 13.448 86.8347 14.3162V21.7693H84.1367V8.74633H86.8347V10.8901Z" fill="white"/>
<path d="M82.1941 5.09965V21.7691H79.4961V5.09965H82.1941Z" fill="white"/>
<path d="M68.2442 10.4894C68.6172 9.94177 69.1434 9.48095 69.823 9.10697C70.5023 8.73297 71.3484 8.54597 72.3609 8.54597C73.5333 8.54597 74.5525 8.80644 75.4184 9.32736C76.2844 9.83492 76.9506 10.5428 77.4168 11.4511C77.8832 12.3594 78.1164 13.4012 78.1164 14.5766V15.9991C78.1164 17.1478 77.8832 18.1764 77.4168 19.0845C76.9506 19.9928 76.2844 20.7008 75.4184 21.2083C74.5525 21.7159 73.5466 21.9697 72.4008 21.9697C71.4149 21.9697 70.569 21.7894 69.8628 21.4288C69.17 21.0547 68.6305 20.6073 68.2442 20.0863V26.4175H65.5464V8.74633H68.2442V10.4894ZM68.2442 16.3598C68.3241 17.3349 68.6638 18.1229 69.2634 18.7239C69.8761 19.3251 70.7222 19.6255 71.8014 19.6255C72.9737 19.6255 73.8531 19.2783 74.4393 18.5837C75.0387 17.8758 75.3385 16.9742 75.3385 15.8789V14.6367C75.3385 13.5548 75.0387 12.6599 74.4393 11.952C73.8398 11.2441 72.9538 10.8901 71.7813 10.8901C70.7155 10.8901 69.8761 11.1973 69.2634 11.8117C68.6638 12.4128 68.3241 13.2009 68.2442 14.1759V16.3598Z" fill="white"/>
<path d="M57.9548 21.9697C55.9164 21.9697 54.3644 21.4154 53.2985 20.3067C52.246 19.1847 51.7197 17.6488 51.7197 15.6986V14.817C51.7197 12.8669 52.246 11.3376 53.2985 10.2289C54.3644 9.10697 55.9164 8.54597 57.9548 8.54597C59.9933 8.54597 61.5386 9.10697 62.5911 10.2289C63.6437 11.3376 64.1699 12.8669 64.1699 14.817V15.6986C64.1699 17.6488 63.6437 19.1847 62.5911 20.3067C61.5386 21.4154 59.9933 21.9697 57.9548 21.9697ZM54.4976 15.8389C54.4976 18.3633 55.6501 19.6255 57.9548 19.6255C60.2596 19.6255 61.4121 18.3633 61.4121 15.8389V14.6768C61.4121 12.1523 60.2596 10.8901 57.9548 10.8901C55.6501 10.8901 54.4976 12.1523 54.4976 14.6768V15.8389Z" fill="white"/>
<path d="M47.4914 14.6766H39.3578V21.7692H36.54V5.09965H39.3578V12.1922H47.4914V5.09965H50.3091V21.7692H47.4914V14.6766Z" fill="white"/>
</g>
<defs>
<clipPath id="clip0_9925_4517">
<rect width="160" height="28" fill="white"/>
</clipPath>
</defs>
</svg>
