<svg width="48" height="48" viewBox="0 0 48 48" fill="none" xmlns="http://www.w3.org/2000/svg">
<g clip-path="url(#clip0_10051_39650)">
<path d="M20.751 10.003L23.9996 8.43816L27.2483 10.0031L26.7638 6.42995L29.256 3.82398L25.7079 3.18057L23.9996 0.00488281L22.2913 3.18048L18.7432 3.82388L21.2354 6.42985L20.751 10.003ZM23.2088 4.44329L23.9996 2.9732L24.7905 4.44329L26.433 4.74113L25.2792 5.94751L25.5036 7.60173L23.9996 6.87723L22.4957 7.60173L22.72 5.94751L21.5664 4.74113L23.2088 4.44329Z" fill="#1447D4"/>
<path d="M9.03198 10.1687L11.9311 8.77216L14.8302 10.1687L14.3979 6.97994L16.622 4.65428L13.4557 4.08006L11.9311 1.24609L10.4065 4.08006L7.24023 4.65428L9.46436 6.97994L9.03198 10.1687ZM11.3241 5.34287L11.9311 4.21441L12.5382 5.34287L13.799 5.57153L12.9133 6.4975L13.0855 7.76725L11.931 7.21112L10.7767 7.76725L10.9488 6.4975L10.0631 5.57153L11.3241 5.34287Z" fill="#1447D4"/>
<path d="M33.1696 10.1687L36.0688 8.77216L38.9678 10.1687L38.5356 6.97994L40.7597 4.65428L37.5935 4.08006L36.0689 1.24609L34.5442 4.08006L31.3779 4.65428L33.6021 6.97994L33.1696 10.1687ZM35.4618 5.34287L36.0689 4.21441L36.6759 5.34287L37.9368 5.57153L37.0512 6.4975L37.2233 7.76725L36.069 7.21112L34.9146 7.76725L35.0869 6.4975L34.2012 5.57153L35.4618 5.34287Z" fill="#1447D4"/>
<path d="M48 24.089V21.9795C48 20.8163 47.0537 19.8701 45.8906 19.8701H36.75V16.3546H38.1562V14.2451C38.1562 13.0821 37.2099 12.1357 36.0469 12.1357H11.9531C10.7901 12.1357 9.84375 13.082 9.84375 14.2451V16.3546H11.25V19.8701H2.10938C0.946219 19.8701 0 20.8163 0 21.9795V24.089H1.40625V46.5887H0V47.9949H40.9687V46.5887H38.1562V43.7762H36.75V24.089H45.1875V46.5887H42.3749V47.9949H48V46.5887H46.5938V24.089H48ZM1.40625 21.9795C1.40625 21.5917 1.72172 21.2764 2.10938 21.2764H11.25V22.6827H1.40625V21.9795ZM2.8125 24.089H11.25V43.7762H9.84375V46.5887H2.8125V24.089ZM11.25 46.5887V45.1824H36.75V46.5887H11.25ZM26.1094 40.9637H24.7031V35.3387H26.1094V40.9637ZM23.2969 40.9637H21.8906V35.3387H23.2969V40.9637ZM32.5312 42.3699V43.7762H15.4688V42.3699H32.5312ZM33.9375 43.7762V40.9637H27.5156V35.3387H28.9219V33.9324H19.0781V35.3387H20.4844V40.9637H14.0625V43.7762H12.6562V16.3546H15.4688V14.9483H11.25V14.2451C11.25 13.8575 11.5654 13.542 11.9531 13.542H36.0469C36.4346 13.542 36.75 13.8574 36.75 14.2451V14.9483H16.875V16.3546H35.3438V43.7762H33.9375ZM36.75 21.2764H45.8906C46.2784 21.2764 46.5938 21.5917 46.5938 21.9795V22.6827H36.75V21.2764Z" fill="#1447D4"/>
<path d="M29.7188 17.7607H31.125V19.167H29.7188V17.7607Z" fill="#1447D4"/>
<path d="M32.5312 17.7607H33.9375V19.167H32.5312V17.7607Z" fill="#1447D4"/>
<path d="M29.625 22.6826C28.4619 22.6826 27.5156 23.6288 27.5156 24.792V32.5263H31.7344V24.792C31.7344 23.6288 30.7881 22.6826 29.625 22.6826ZM29.625 24.0889C30.0128 24.0889 30.3281 24.4043 30.3281 24.792V26.9014H28.9219V24.792C28.9219 24.4043 29.2372 24.0889 29.625 24.0889ZM28.9219 31.12V28.3075H30.3281V31.12H28.9219Z" fill="#1447D4"/>
<path d="M18.375 22.6826C17.2118 22.6826 16.2656 23.6288 16.2656 24.792V32.5263H20.4844V24.792C20.4844 23.6288 19.5382 22.6826 18.375 22.6826ZM18.375 24.0889C18.7628 24.0889 19.0781 24.4043 19.0781 24.792V26.9014H17.6719V24.792C17.6719 24.4043 17.9873 24.0889 18.375 24.0889ZM17.6719 31.12V28.3075H19.0781V31.12H17.6719Z" fill="#1447D4"/>
<path d="M43.7812 28.3076C43.7812 27.1445 42.8349 26.1982 41.6719 26.1982C40.5088 26.1982 39.5625 27.1445 39.5625 28.3076V34.6357H43.7812V28.3076ZM41.6719 27.6045C42.0596 27.6045 42.375 27.9199 42.375 28.3076V29.7139H40.9688V28.3076C40.9688 27.9199 41.2841 27.6045 41.6719 27.6045ZM40.9688 33.2294V31.12H42.375V33.2294H40.9688Z" fill="#1447D4"/>
<path d="M39.5625 44.4795H43.7812V38.1514C43.7812 36.9883 42.8349 36.042 41.6719 36.042C40.5088 36.042 39.5625 36.9882 39.5625 38.1514V44.4795ZM40.9688 43.0732V40.9639H42.375V43.0732H40.9688ZM41.6719 37.4483C42.0596 37.4483 42.375 37.7637 42.375 38.1515V39.5577H40.9688V38.1515C40.9688 37.7637 41.2841 37.4483 41.6719 37.4483Z" fill="#1447D4"/>
<path d="M6.32812 26.1982C5.16506 26.1982 4.21875 27.1445 4.21875 28.3076V34.6357H8.4375V28.3076C8.4375 27.1445 7.49128 26.1982 6.32812 26.1982ZM6.32812 27.6045C6.71588 27.6045 7.03125 27.9199 7.03125 28.3076V29.7139H5.625V28.3076C5.62509 27.9199 5.94047 27.6045 6.32812 27.6045ZM5.62509 33.2294V31.12H7.03134V33.2294H5.62509Z" fill="#1447D4"/>
<path d="M6.32812 36.042C5.16506 36.042 4.21875 36.9882 4.21875 38.1514V44.4795H8.4375V38.1514C8.4375 36.9882 7.49128 36.042 6.32812 36.042ZM6.32812 37.4482C6.71588 37.4482 7.03125 37.7636 7.03125 38.1514V39.5576H5.625V38.1514C5.62509 37.7636 5.94047 37.4482 6.32812 37.4482ZM5.62509 43.0731V40.9638H7.03134V43.0731H5.62509Z" fill="#1447D4"/>
<path d="M24 17.7607C22.8369 17.7607 21.8906 18.707 21.8906 19.8701V32.5263H26.1094V19.8701C26.1094 18.7071 25.1631 17.7607 24 17.7607ZM24 19.167C24.3878 19.167 24.7031 19.4824 24.7031 19.8701V24.0889H23.2969V19.8701C23.2969 19.4825 23.6122 19.167 24 19.167ZM23.2969 31.12V25.4951H24.7031V31.12H23.2969Z" fill="#1447D4"/>
</g>
<defs>
<clipPath id="clip0_10051_39650">
<rect width="48" height="48" fill="white"/>
</clipPath>
</defs>
</svg>
