<svg width="48" height="48" viewBox="0 0 48 48" fill="none" xmlns="http://www.w3.org/2000/svg">
<g clip-path="url(#clip0_10051_39638)">
<path d="M48 20.8304L24 0.09375L6.46912 15.2406L7.38831 16.3044L24 1.9519L46.017 20.9751L43.8435 23.4899L24 6.34387L4.15649 23.4899L1.98303 20.9751L5.94324 17.5536L5.02405 16.4901L0 20.8304L4.01221 25.4725L6.77783 23.0826V47.9788H41.4781V34.827H40.0723V46.5729H37.9666V44.4727L36.2406 42.7467H34.8409V42.5219L33.115 40.7959H30.3318L28.6058 42.5219V42.7467H27.3534L25.6274 44.4727V46.5729H22.9563V26.495L19.3488 23.7074H14.4218L10.8142 26.495V46.5729H8.18372V22.1635L24.1274 8.3877L40.0723 22.1635V32.9205H41.4781V23.3038L43.9878 25.4725L48 20.8304ZM27.0333 45.0549L27.9357 44.1526H30.0117V43.1041L30.9141 42.2018H32.5327L33.4351 43.1041V44.1526H35.6583L36.5607 45.0549V46.5729H27.0333V45.0549ZM12.2197 27.1853L14.9015 25.1133H18.869L21.5504 27.1853V46.5729H12.2197V27.1853Z" fill="#1447D4"/>
<path d="M37.9662 36.4965V23.3301H24.7998V36.4965H37.9662ZM26.2053 24.736H36.5603V35.0906H26.2053V24.736Z" fill="#1447D4"/>
<path d="M26.0223 18.3746H24.6165V16.9688H26.0223V18.3746ZM23.6793 18.3746H22.2734V16.9688H23.6793V18.3746Z" fill="#1447D4"/>
</g>
<defs>
<clipPath id="clip0_10051_39638">
<rect width="48" height="48" fill="white"/>
</clipPath>
</defs>
</svg>
