<svg preserveAspectRatio="none" width="100%" height="100%" overflow="visible" style="display: block;" viewBox="0 0 48 47.885" fill="none" xmlns="http://www.w3.org/2000/svg">
<path id="Vector" d="M48 20.7367L24 0L6.46912 15.1469L7.38831 16.2107L24 1.85815L46.017 20.8813L43.8435 23.3961L24 6.25012L4.15649 23.3961L1.98303 20.8813L5.94324 17.4598L5.02405 16.3964L0 20.7367L4.01221 25.3788L6.77783 22.9889V47.885H41.4781V34.7333H40.0723V46.4791H37.9666V44.3789L36.2406 42.653H34.8409V42.4281L33.115 40.7021H30.3318L28.6058 42.4281V42.653H27.3534L25.6274 44.3789V46.4791H22.9563V26.4012L19.3488 23.6136H14.4218L10.8142 26.4012V46.4791H8.18372V22.0697L24.1274 8.29395L40.0723 22.0697V32.8268H41.4781V23.2101L43.9878 25.3788L48 20.7367ZM27.0333 44.9612L27.9357 44.0588H30.0117V43.0104L30.9141 42.108H32.5327L33.4351 43.0104V44.0588H35.6583L36.5607 44.9612V46.4791H27.0333V44.9612ZM12.2197 27.0916L14.9015 25.0195H18.869L21.5504 27.0916V46.4791H12.2197V27.0916Z" fill="var(--fill-0, #1447D4)"/>
</svg>
