<svg preserveAspectRatio="none" width="100%" height="100%" overflow="visible" style="display: block;" viewBox="0 0 22 22" fill="none" xmlns="http://www.w3.org/2000/svg">
<g id="info">
<mask id="mask0_9966_22238" style="mask-type:alpha" maskUnits="userSpaceOnUse" x="0" y="0" width="22" height="22">
<rect id="Bounding box" width="22" height="22" fill="var(--fill-0, #D9D9D9)"/>
</mask>
<g mask="url(#mask0_9966_22238)">
<path id="info_2" d="M11.0026 15.5835C11.2623 15.5835 11.48 15.4956 11.6557 15.32C11.8314 15.1443 11.9193 14.9266 11.9193 14.6668V11.0002C11.9193 10.7404 11.8314 10.5227 11.6557 10.347C11.48 10.1713 11.2623 10.0835 11.0026 10.0835C10.7429 10.0835 10.5252 10.1713 10.3495 10.347C10.1738 10.5227 10.0859 10.7404 10.0859 11.0002V14.6668C10.0859 14.9266 10.1738 15.1443 10.3495 15.32C10.5252 15.4956 10.7429 15.5835 11.0026 15.5835ZM11.0026 8.25016C11.2623 8.25016 11.48 8.16232 11.6557 7.98662C11.8314 7.81093 11.9193 7.59322 11.9193 7.3335C11.9193 7.07377 11.8314 6.85607 11.6557 6.68037C11.48 6.50468 11.2623 6.41683 11.0026 6.41683C10.7429 6.41683 10.5252 6.50468 10.3495 6.68037C10.1738 6.85607 10.0859 7.07377 10.0859 7.3335C10.0859 7.59322 10.1738 7.81093 10.3495 7.98662C10.5252 8.16232 10.7429 8.25016 11.0026 8.25016ZM11.0026 20.1668C9.73455 20.1668 8.54288 19.9262 7.4276 19.445C6.31233 18.9637 5.34219 18.3106 4.51719 17.4856C3.69219 16.6606 3.03906 15.6904 2.55781 14.5752C2.07656 13.4599 1.83594 12.2682 1.83594 11.0002C1.83594 9.73211 2.07656 8.54044 2.55781 7.42516C3.03906 6.30988 3.69219 5.33975 4.51719 4.51475C5.34219 3.68975 6.31233 3.03662 7.4276 2.55537C8.54288 2.07412 9.73455 1.8335 11.0026 1.8335C12.2707 1.8335 13.4623 2.07412 14.5776 2.55537C15.6929 3.03662 16.663 3.68975 17.488 4.51475C18.313 5.33975 18.9661 6.30988 19.4474 7.42516C19.9286 8.54044 20.1693 9.73211 20.1693 11.0002C20.1693 12.2682 19.9286 13.4599 19.4474 14.5752C18.9661 15.6904 18.313 16.6606 17.488 17.4856C16.663 18.3106 15.6929 18.9637 14.5776 19.445C13.4623 19.9262 12.2707 20.1668 11.0026 20.1668ZM11.0026 18.3335C13.0498 18.3335 14.7839 17.6231 16.2047 16.2022C17.6255 14.7814 18.3359 13.0474 18.3359 11.0002C18.3359 8.95294 17.6255 7.21891 16.2047 5.79808C14.7839 4.37725 13.0498 3.66683 11.0026 3.66683C8.95538 3.66683 7.22135 4.37725 5.80052 5.79808C4.37969 7.21891 3.66927 8.95294 3.66927 11.0002C3.66927 13.0474 4.37969 14.7814 5.80052 16.2022C7.22135 17.6231 8.95538 18.3335 11.0026 18.3335Z" fill="var(--fill-0, #1447D4)"/>
</g>
</g>
</svg>
