<svg width="20" height="20" viewBox="0 0 20 20" fill="none" xmlns="http://www.w3.org/2000/svg">
<mask id="mask0_9957_4545" style="mask-type:alpha" maskUnits="userSpaceOnUse" x="0" y="0" width="20" height="20">
<rect width="20" height="20" fill="#D9D9D9"/>
</mask>
<g mask="url(#mask0_9957_4545)">
<path d="M9.68783 12.4268C9.5906 12.3921 9.50033 12.3331 9.41699 12.2497L5.58366 8.41639C5.43088 8.26361 5.35449 8.06916 5.35449 7.83305C5.35449 7.59694 5.43088 7.4025 5.58366 7.24972C5.73644 7.09694 5.93088 7.02055 6.16699 7.02055C6.4031 7.02055 6.59755 7.09694 6.75033 7.24972L10.0003 10.4997L13.2503 7.24972C13.4031 7.09694 13.5975 7.02055 13.8337 7.02055C14.0698 7.02055 14.2642 7.09694 14.417 7.24972C14.5698 7.4025 14.6462 7.59694 14.6462 7.83305C14.6462 8.06916 14.5698 8.26361 14.417 8.41639L10.5837 12.2497C10.5003 12.3331 10.41 12.3921 10.3128 12.4268C10.2156 12.4615 10.1114 12.4789 10.0003 12.4789C9.88921 12.4789 9.78505 12.4615 9.68783 12.4268Z" fill="#D1D5DB"/>
</g>
</svg>