<svg preserveAspectRatio="none" width="100%" height="100%" overflow="visible" style="display: block;" viewBox="0 0 18 18" fill="none" xmlns="http://www.w3.org/2000/svg">
<g id="language">
<mask id="mask0_9969_22326" style="mask-type:alpha" maskUnits="userSpaceOnUse" x="0" y="0" width="18" height="18">
<rect id="Bounding box" width="18" height="18" fill="var(--fill-0, #1447D4)"/>
</mask>
<g mask="url(#mask0_9969_22326)">
<path id="language_2" d="M9 16.125C8.02312 16.125 7.10125 15.9377 6.23438 15.5632C5.3675 15.1887 4.6115 14.6789 3.96637 14.0336C3.32112 13.3885 2.81125 12.6325 2.43675 11.7656C2.06225 10.8987 1.875 9.97688 1.875 9C1.875 8.01538 2.06225 7.09156 2.43675 6.22856C2.81125 5.36556 3.32112 4.6115 3.96637 3.96637C4.6115 3.32112 5.3675 2.81125 6.23438 2.43675C7.10125 2.06225 8.02312 1.875 9 1.875C9.98462 1.875 10.9084 2.06225 11.7714 2.43675C12.6344 2.81125 13.3885 3.32112 14.0336 3.96637C14.6789 4.6115 15.1887 5.36556 15.5632 6.22856C15.9377 7.09156 16.125 8.01538 16.125 9C16.125 9.97688 15.9377 10.8987 15.5632 11.7656C15.1887 12.6325 14.6789 13.3885 14.0336 14.0336C13.3885 14.6789 12.6344 15.1887 11.7714 15.5632C10.9084 15.9377 9.98462 16.125 9 16.125ZM9 14.9841C9.38275 14.4764 9.70487 13.9644 9.96637 13.4481C10.2279 12.9317 10.4409 12.3673 10.6054 11.7548H7.39463C7.56875 12.3865 7.78419 12.9606 8.04094 13.4769C8.29756 13.9933 8.61725 14.4957 9 14.9841ZM7.54763 14.7778C7.26013 14.3653 7.00194 13.8964 6.77306 13.371C6.54419 12.8455 6.36631 12.3068 6.23944 11.7548H3.69525C4.09138 12.5336 4.62262 13.188 5.289 13.7179C5.95537 14.2476 6.70825 14.6009 7.54763 14.7778ZM10.4524 14.7778C11.2918 14.6009 12.0446 14.2476 12.711 13.7179C13.3774 13.188 13.9086 12.5336 14.3047 11.7548H11.7606C11.6096 12.3115 11.4196 12.8526 11.1908 13.3781C10.962 13.9036 10.7159 14.3702 10.4524 14.7778ZM3.2235 10.6298H6.01163C5.9645 10.351 5.93031 10.0777 5.90906 9.80981C5.88794 9.54206 5.87737 9.27213 5.87737 9C5.87737 8.72787 5.88794 8.45794 5.90906 8.19019C5.93031 7.92231 5.9645 7.649 6.01163 7.37025H3.2235C3.15137 7.625 3.09613 7.88988 3.05775 8.16488C3.01925 8.43988 3 8.71825 3 9C3 9.28175 3.01925 9.56013 3.05775 9.83513C3.09613 10.1101 3.15137 10.375 3.2235 10.6298ZM7.13644 10.6298H10.8636C10.9106 10.351 10.9447 10.0801 10.9659 9.81712C10.9871 9.55412 10.9976 9.28175 10.9976 9C10.9976 8.71825 10.9871 8.44587 10.9659 8.18287C10.9447 7.91987 10.9106 7.649 10.8636 7.37025H7.13644C7.08944 7.649 7.05531 7.91987 7.03406 8.18287C7.01294 8.44587 7.00237 8.71825 7.00237 9C7.00237 9.28175 7.01294 9.55412 7.03406 9.81712C7.05531 10.0801 7.08944 10.351 7.13644 10.6298ZM11.9884 10.6298H14.7765C14.8486 10.375 14.9039 10.1101 14.9423 9.83513C14.9808 9.56013 15 9.28175 15 9C15 8.71825 14.9808 8.43988 14.9423 8.16488C14.9039 7.88988 14.8486 7.625 14.7765 7.37025H11.9884C12.0355 7.649 12.0697 7.92231 12.0909 8.19019C12.1121 8.45794 12.1226 8.72787 12.1226 9C12.1226 9.27213 12.1121 9.54206 12.0909 9.80981C12.0697 10.0777 12.0355 10.351 11.9884 10.6298ZM11.7606 6.24525H14.3047C13.9039 5.45675 13.3763 4.80238 12.7219 4.28213C12.0675 3.762 11.311 3.40625 10.4524 3.21488C10.7399 3.65138 10.9956 4.12881 11.2196 4.64719C11.4438 5.16544 11.6241 5.69813 11.7606 6.24525ZM7.39463 6.24525H10.6054C10.4313 5.61825 10.2123 5.04056 9.94838 4.51219C9.68438 3.98381 9.36825 3.48506 9 3.01594C8.63175 3.48506 8.31563 3.98381 8.05163 4.51219C7.78775 5.04056 7.56875 5.61825 7.39463 6.24525ZM3.69525 6.24525H6.23944C6.37594 5.69813 6.55625 5.16544 6.78038 4.64719C7.00438 4.12881 7.26013 3.65138 7.54763 3.21488C6.68413 3.40625 5.92644 3.76325 5.27456 4.28588C4.62256 4.80838 4.09613 5.4615 3.69525 6.24525Z" fill="var(--fill-0, #1E1D1D)"/>
</g>
</g>
</svg>
