<svg width="18" height="18" viewBox="0 0 18 18" fill="none" xmlns="http://www.w3.org/2000/svg">
<mask id="mask0_10104_11566" style="mask-type:alpha" maskUnits="userSpaceOnUse" x="0" y="0" width="18" height="18">
<rect width="18" height="18" fill="#D9D9D9"/>
</mask>
<g mask="url(#mask0_10104_11566)">
<path d="M3.6 13.9502H6.3V8.1002H3.6V13.9502ZM7.65 13.9502H10.35V4.0502H7.65V13.9502ZM11.7 13.9502H14.4V9.4502H11.7V13.9502ZM2.25 13.9502V8.1002C2.25 7.72895 2.38206 7.41113 2.64619 7.14676C2.91019 6.88238 3.22762 6.7502 3.5985 6.7502H6.29531V4.0502C6.29531 3.67895 6.42731 3.36113 6.69131 3.09676C6.95544 2.83238 7.27325 2.7002 7.64475 2.7002H10.3468C10.7184 2.7002 11.0365 2.83238 11.301 3.09676C11.5656 3.36113 11.6979 3.67895 11.6979 4.0502V8.1002H14.4C14.7712 8.1002 15.0891 8.23238 15.3534 8.49676C15.6178 8.76113 15.75 9.07895 15.75 9.4502V13.9502C15.75 14.3214 15.6178 14.6393 15.3533 14.9036C15.0888 15.168 14.7708 15.3002 14.3994 15.3002H3.59456C3.22319 15.3002 2.90625 15.168 2.64375 14.9036C2.38125 14.6393 2.25 14.3214 2.25 13.9502Z" fill="#1E1D1D"/>
</g>
</svg>
