<svg width="52" height="52" viewBox="0 0 52 52" fill="none" xmlns="http://www.w3.org/2000/svg">
<g filter="url(#filter0_d_9177_19930)">
<rect x="6" y="5" width="40" height="40" rx="4" fill="white"/>
</g>
<mask id="mask0_9177_19930" style="mask-type:alpha" maskUnits="userSpaceOnUse" x="14" y="13" width="24" height="24">
<rect x="14" y="13" width="24" height="24" fill="#D9D9D9"/>
</mask>
<g mask="url(#mask0_9177_19930)">
<path d="M20 26C19.7167 26 19.4792 25.9042 19.2875 25.7125C19.0958 25.5208 19 25.2833 19 25C19 24.7167 19.0958 24.4792 19.2875 24.2875C19.4792 24.0958 19.7167 24 20 24H32C32.2833 24 32.5208 24.0958 32.7125 24.2875C32.9042 24.4792 33 24.7167 33 25C33 25.2833 32.9042 25.5208 32.7125 25.7125C32.5208 25.9042 32.2833 26 32 26H20Z" fill="#1447D4"/>
</g>
<defs>
<filter id="filter0_d_9177_19930" x="0" y="0" width="52" height="52" filterUnits="userSpaceOnUse" color-interpolation-filters="sRGB">
<feFlood flood-opacity="0" result="BackgroundImageFix"/>
<feColorMatrix in="SourceAlpha" type="matrix" values="0 0 0 0 0 0 0 0 0 0 0 0 0 0 0 0 0 0 127 0" result="hardAlpha"/>
<feOffset dy="1"/>
<feGaussianBlur stdDeviation="3"/>
<feComposite in2="hardAlpha" operator="out"/>
<feColorMatrix type="matrix" values="0 0 0 0 0 0 0 0 0 0 0 0 0 0 0 0 0 0 0.08 0"/>
<feBlend mode="normal" in2="BackgroundImageFix" result="effect1_dropShadow_9177_19930"/>
<feBlend mode="normal" in="SourceGraphic" in2="effect1_dropShadow_9177_19930" result="shape"/>
</filter>
</defs>
</svg>
