<svg width="48" height="48" viewBox="0 0 48 48" fill="none" xmlns="http://www.w3.org/2000/svg">
<g clip-path="url(#clip0_9177_19893)">
<mask id="mask0_9177_19893" style="mask-type:alpha" maskUnits="userSpaceOnUse" x="0" y="0" width="48" height="48">
<path d="M48 0H0V48H48V0Z" fill="#023047"/>
</mask>
<g mask="url(#mask0_9177_19893)">
<path d="M24 38.7C28.0666 34.9666 31.0834 31.575 33.05 28.525C35.0166 25.475 36 22.7666 36 20.4C36 16.7667 34.8416 13.7917 32.525 11.475C30.2084 9.15834 27.3666 8 24 8C20.6334 8 17.7917 9.15834 15.475 11.475C13.1583 13.7917 12 16.7667 12 20.4C12 22.7666 12.9833 25.475 14.95 28.525C16.9167 31.575 19.9333 34.9666 24 38.7ZM24 42.65C23.5334 42.65 23.0666 42.5666 22.6 42.4C22.1334 42.2334 21.7166 41.9834 21.35 41.65C19.1833 39.65 17.2667 37.7 15.6 35.8C13.9333 33.9 12.5417 32.0584 11.425 30.275C10.3083 28.4916 9.45834 26.775 8.875 25.125C8.29166 23.475 8 21.9 8 20.4C8 15.4 9.60834 11.4167 12.825 8.45C16.0417 5.48334 19.7667 4 24 4C28.2334 4 31.9584 5.48334 35.175 8.45C38.3916 11.4167 40 15.4 40 20.4C40 21.9 39.7084 23.475 39.125 25.125C38.5416 26.775 37.6916 28.4916 36.575 30.275C35.4584 32.0584 34.0666 33.9 32.4 35.8C30.7334 37.7 28.8166 39.65 26.65 41.65C26.2834 41.9834 25.8666 42.2334 25.4 42.4C24.9334 42.5666 24.4666 42.65 24 42.65ZM24 24C25.1 24 26.0416 23.6084 26.825 22.825C27.6084 22.0416 28 21.1 28 20C28 18.9 27.6084 17.9583 26.825 17.175C26.0416 16.3917 25.1 16 24 16C22.9 16 21.9584 16.3917 21.175 17.175C20.3916 17.9583 20 18.9 20 20C20 21.1 20.3916 22.0416 21.175 22.825C21.9584 23.6084 22.9 24 24 24Z" fill="#1447D4"/>
<path fill-rule="evenodd" clip-rule="evenodd" d="M24 38.7C28.0666 34.9666 31.0834 31.575 33.05 28.525C35.0166 25.475 36 22.7666 36 20.4C36 16.7667 34.8416 13.7917 32.525 11.475C30.2084 9.15834 27.3666 8 24 8C20.6334 8 17.7917 9.15834 15.475 11.475C13.1583 13.7917 12 16.7667 12 20.4C12 22.7666 12.9833 25.475 14.95 28.525C16.9167 31.575 19.9333 34.9666 24 38.7ZM26.825 22.825C26.0416 23.6084 25.1 24 24 24C22.9 24 21.9584 23.6084 21.175 22.825C20.3916 22.0416 20 21.1 20 20C20 18.9 20.3916 17.9583 21.175 17.175C21.9584 16.3917 22.9 16 24 16C25.1 16 26.0416 16.3917 26.825 17.175C27.6084 17.9583 28 18.9 28 20C28 21.1 27.6084 22.0416 26.825 22.825Z" fill="#1447D4"/>
<path d="M24 38.7C28.0666 34.9666 31.0834 31.575 33.05 28.525C35.0166 25.475 36 22.7666 36 20.4C36 16.7667 34.8416 13.7917 32.525 11.475C30.2084 9.15834 27.3666 8 24 8C20.6334 8 17.7917 9.15834 15.475 11.475C13.1583 13.7917 12 16.7667 12 20.4C12 22.7666 12.9833 25.475 14.95 28.525C16.9167 31.575 19.9333 34.9666 24 38.7ZM24 42.65C23.5334 42.65 23.0666 42.5666 22.6 42.4C22.1334 42.2334 21.7166 41.9834 21.35 41.65C19.1833 39.65 17.2667 37.7 15.6 35.8C13.9333 33.9 12.5417 32.0584 11.425 30.275C10.3083 28.4916 9.45834 26.775 8.875 25.125C8.29166 23.475 8 21.9 8 20.4C8 15.4 9.60834 11.4167 12.825 8.45C16.0417 5.48334 19.7667 4 24 4C28.2334 4 31.9584 5.48334 35.175 8.45C38.3916 11.4167 40 15.4 40 20.4C40 21.9 39.7084 23.475 39.125 25.125C38.5416 26.775 37.6916 28.4916 36.575 30.275C35.4584 32.0584 34.0666 33.9 32.4 35.8C30.7334 37.7 28.8166 39.65 26.65 41.65C26.2834 41.9834 25.8666 42.2334 25.4 42.4C24.9334 42.5666 24.4666 42.65 24 42.65ZM24 24C25.1 24 26.0416 23.6084 26.825 22.825C27.6084 22.0416 28 21.1 28 20C28 18.9 27.6084 17.9583 26.825 17.175C26.0416 16.3917 25.1 16 24 16C22.9 16 21.9584 16.3917 21.175 17.175C20.3916 17.9583 20 18.9 20 20C20 21.1 20.3916 22.0416 21.175 22.825C21.9584 23.6084 22.9 24 24 24Z" fill="white"/>
</g>
</g>
<defs>
<clipPath id="clip0_9177_19893">
<rect width="48" height="48" fill="white"/>
</clipPath>
</defs>
</svg>
