<svg width="52" height="51" viewBox="0 0 52 51" fill="none" xmlns="http://www.w3.org/2000/svg">
<g filter="url(#filter0_d_9177_19925)">
<rect x="6" y="5" width="40" height="39" rx="4" fill="white"/>
</g>
<mask id="mask0_9177_19925" style="mask-type:alpha" maskUnits="userSpaceOnUse" x="14" y="12" width="24" height="25">
<rect x="14" y="12.7999" width="24" height="23.4" fill="#D9D9D9"/>
</mask>
<g mask="url(#mask0_9177_19925)">
<path d="M24.85 25.4749H19.975C19.6987 25.4749 19.4672 25.3815 19.2803 25.1946C19.0934 25.0077 19 24.7762 19 24.4999C19 24.2237 19.0934 23.9921 19.2803 23.8052C19.4672 23.6184 19.6987 23.5249 19.975 23.5249H24.85V18.6499C24.85 18.3737 24.9434 18.1421 25.1303 17.9552C25.3172 17.7684 25.5487 17.6749 25.825 17.6749C26.1012 17.6749 26.3328 17.7684 26.5197 17.9552C26.7066 18.1421 26.8 18.3737 26.8 18.6499V23.5249H31.675C31.9512 23.5249 32.1828 23.6184 32.3697 23.8052C32.5566 23.9921 32.65 24.2237 32.65 24.4999C32.65 24.7762 32.5566 25.0077 32.3697 25.1946C32.1828 25.3815 31.9512 25.4749 31.675 25.4749H26.8V30.3499C26.8 30.6262 26.7066 30.8577 26.5197 31.0446C26.3328 31.2315 26.1012 31.3249 25.825 31.3249C25.5487 31.3249 25.3172 31.2315 25.1303 31.0446C24.9434 30.8577 24.85 30.6262 24.85 30.3499V25.4749Z" fill="#1447D4"/>
</g>
<defs>
<filter id="filter0_d_9177_19925" x="0" y="0" width="52" height="51" filterUnits="userSpaceOnUse" color-interpolation-filters="sRGB">
<feFlood flood-opacity="0" result="BackgroundImageFix"/>
<feColorMatrix in="SourceAlpha" type="matrix" values="0 0 0 0 0 0 0 0 0 0 0 0 0 0 0 0 0 0 127 0" result="hardAlpha"/>
<feOffset dy="1"/>
<feGaussianBlur stdDeviation="3"/>
<feComposite in2="hardAlpha" operator="out"/>
<feColorMatrix type="matrix" values="0 0 0 0 0 0 0 0 0 0 0 0 0 0 0 0 0 0 0.08 0"/>
<feBlend mode="normal" in2="BackgroundImageFix" result="effect1_dropShadow_9177_19925"/>
<feBlend mode="normal" in="SourceGraphic" in2="effect1_dropShadow_9177_19925" result="shape"/>
</filter>
</defs>
</svg>
