<svg preserveAspectRatio="none" width="100%" height="100%" overflow="visible" style="display: block;" viewBox="0 0 24 24" fill="none" xmlns="http://www.w3.org/2000/svg">
<g id="local_laundry_service">
<mask id="mask0_9957_21994" style="mask-type:alpha" maskUnits="userSpaceOnUse" x="0" y="0" width="24" height="24">
<rect id="Bounding box" width="24" height="24" fill="var(--fill-0, #D9D9D9)"/>
</mask>
<g mask="url(#mask0_9957_21994)">
<path id="local_laundry_service_2" d="M6.30775 21.5C5.80908 21.5 5.38308 21.3234 5.02975 20.9703C4.67658 20.6169 4.5 20.1909 4.5 19.6923V4.30775C4.5 3.80908 4.67658 3.38308 5.02975 3.02975C5.38308 2.67658 5.80908 2.5 6.30775 2.5H17.6923C18.1909 2.5 18.6169 2.67658 18.9703 3.02975C19.3234 3.38308 19.5 3.80908 19.5 4.30775V19.6923C19.5 20.1909 19.3234 20.6169 18.9703 20.9703C18.6169 21.3234 18.1909 21.5 17.6923 21.5H6.30775ZM6.30775 20H17.6923C17.7693 20 17.8398 19.9679 17.9038 19.9038C17.9679 19.8398 18 19.7693 18 19.6923V4.30775C18 4.23075 17.9679 4.16025 17.9038 4.09625C17.8398 4.03208 17.7693 4 17.6923 4H6.30775C6.23075 4 6.16025 4.03208 6.09625 4.09625C6.03208 4.16025 6 4.23075 6 4.30775V19.6923C6 19.7693 6.03208 19.8398 6.09625 19.9038C6.16025 19.9679 6.23075 20 6.30775 20ZM12 18.6152C13.2743 18.6152 14.3622 18.1647 15.2635 17.2635C16.1647 16.3622 16.6152 15.2743 16.6152 14C16.6152 12.7257 16.1647 11.6378 15.2635 10.7365C14.3622 9.83533 13.2743 9.38475 12 9.38475C10.7257 9.38475 9.63783 9.83533 8.7365 10.7365C7.83533 11.6378 7.38475 12.7257 7.38475 14C7.38475 15.2743 7.83533 16.3622 8.7365 17.2635C9.63783 18.1647 10.7257 18.6152 12 18.6152ZM12 17.3C11.5667 17.3 11.1474 17.2192 10.7422 17.0577C10.3371 16.8962 9.97942 16.6603 9.66925 16.35L14.35 11.6692C14.6603 11.9794 14.8962 12.3371 15.0577 12.7423C15.2192 13.1474 15.3 13.5667 15.3 14C15.3 14.9167 14.9792 15.6958 14.3375 16.3375C13.6958 16.9792 12.9167 17.3 12 17.3ZM8 7C8.28333 7 8.52083 6.90417 8.7125 6.7125C8.90417 6.52083 9 6.28333 9 6C9 5.71667 8.90417 5.47917 8.7125 5.2875C8.52083 5.09583 8.28333 5 8 5C7.71667 5 7.47917 5.09583 7.2875 5.2875C7.09583 5.47917 7 5.71667 7 6C7 6.28333 7.09583 6.52083 7.2875 6.7125C7.47917 6.90417 7.71667 7 8 7ZM11 7C11.2833 7 11.5208 6.90417 11.7125 6.7125C11.9042 6.52083 12 6.28333 12 6C12 5.71667 11.9042 5.47917 11.7125 5.2875C11.5208 5.09583 11.2833 5 11 5C10.7167 5 10.4792 5.09583 10.2875 5.2875C10.0958 5.47917 10 5.71667 10 6C10 6.28333 10.0958 6.52083 10.2875 6.7125C10.4792 6.90417 10.7167 7 11 7Z" fill="var(--fill-0, #464646)"/>
</g>
</g>
</svg>
