<svg width="46" height="46" viewBox="0 0 46 46" fill="none" xmlns="http://www.w3.org/2000/svg">
<rect width="46" height="46" rx="6" fill="#F9F9F8"/>
<mask id="mask0_9211_30833" style="mask-type:alpha" maskUnits="userSpaceOnUse" x="11" y="11" width="24" height="24">
<rect x="11" y="11" width="24" height="24" fill="#D9D9D9"/>
</mask>
<g mask="url(#mask0_9211_30833)">
<path d="M23 30.35C25.0333 28.4833 26.5417 26.7875 27.525 25.2625C28.5083 23.7375 29 22.3833 29 21.2C29 19.3833 28.4208 17.8958 27.2625 16.7375C26.1042 15.5792 24.6833 15 23 15C21.3167 15 19.8958 15.5792 18.7375 16.7375C17.5792 17.8958 17 19.3833 17 21.2C17 22.3833 17.4917 23.7375 18.475 25.2625C19.4583 26.7875 20.9667 28.4833 23 30.35ZM23 32.325C22.7667 32.325 22.5333 32.2833 22.3 32.2C22.0667 32.1167 21.8583 31.9917 21.675 31.825C20.5917 30.825 19.6333 29.85 18.8 28.9C17.9667 27.95 17.2708 27.0292 16.7125 26.1375C16.1542 25.2458 15.7292 24.3875 15.4375 23.5625C15.1458 22.7375 15 21.95 15 21.2C15 18.7 15.8042 16.7083 17.4125 15.225C19.0208 13.7417 20.8833 13 23 13C25.1167 13 26.9792 13.7417 28.5875 15.225C30.1958 16.7083 31 18.7 31 21.2C31 21.95 30.8542 22.7375 30.5625 23.5625C30.2708 24.3875 29.8458 25.2458 29.2875 26.1375C28.7292 27.0292 28.0333 27.95 27.2 28.9C26.3667 29.85 25.4083 30.825 24.325 31.825C24.1417 31.9917 23.9333 32.1167 23.7 32.2C23.4667 32.2833 23.2333 32.325 23 32.325ZM23 23C23.55 23 24.0208 22.8042 24.4125 22.4125C24.8042 22.0208 25 21.55 25 21C25 20.45 24.8042 19.9792 24.4125 19.5875C24.0208 19.1958 23.55 19 23 19C22.45 19 21.9792 19.1958 21.5875 19.5875C21.1958 19.9792 21 20.45 21 21C21 21.55 21.1958 22.0208 21.5875 22.4125C21.9792 22.8042 22.45 23 23 23Z" fill="#464646"/>
</g>
</svg>
