<svg width="28" height="28" viewBox="0 0 28 28" fill="none" xmlns="http://www.w3.org/2000/svg">
<mask id="mask0_9177_19812" style="mask-type:alpha" maskUnits="userSpaceOnUse" x="0" y="0" width="28" height="28">
<rect width="28" height="28" fill="#D9D9D9"/>
</mask>
<g mask="url(#mask0_9177_19812)">
<path d="M13.9993 22.5749C16.3716 20.3971 18.1313 18.4186 19.2785 16.6394C20.4257 14.8603 20.9993 13.2804 20.9993 11.8999C20.9993 9.78041 20.3237 8.045 18.9723 6.69361C17.6209 5.34222 15.9632 4.66652 13.9993 4.66652C12.0355 4.66652 10.3778 5.34222 9.02643 6.69361C7.67504 8.045 6.99935 9.78041 6.99935 11.8999C6.99935 13.2804 7.57296 14.8603 8.72018 16.6394C9.8674 18.4186 11.6271 20.3971 13.9993 22.5749ZM13.9993 24.879C13.7271 24.879 13.4549 24.8304 13.1827 24.7332C12.9105 24.636 12.6674 24.4901 12.4535 24.2957C11.1896 23.129 10.0716 21.9915 9.09935 20.8832C8.12713 19.7749 7.31532 18.7006 6.66393 17.6603C6.01254 16.62 5.51671 15.6186 5.17643 14.6561C4.83615 13.6936 4.66602 12.7749 4.66602 11.8999C4.66602 8.98319 5.60421 6.65958 7.4806 4.92902C9.35699 3.19847 11.5299 2.33319 13.9993 2.33319C16.4688 2.33319 18.6417 3.19847 20.5181 4.92902C22.3945 6.65958 23.3327 8.98319 23.3327 11.8999C23.3327 12.7749 23.1625 13.6936 22.8223 14.6561C22.482 15.6186 21.9862 16.62 21.3348 17.6603C20.6834 18.7006 19.8716 19.7749 18.8993 20.8832C17.9271 21.9915 16.8091 23.129 15.5452 24.2957C15.3313 24.4901 15.0882 24.636 14.816 24.7332C14.5438 24.8304 14.2716 24.879 13.9993 24.879ZM13.9993 13.9999C14.641 13.9999 15.1903 13.7714 15.6473 13.3144C16.1042 12.8575 16.3327 12.3082 16.3327 11.6665C16.3327 11.0249 16.1042 10.4756 15.6473 10.0186C15.1903 9.56166 14.641 9.33319 13.9993 9.33319C13.3577 9.33319 12.8084 9.56166 12.3514 10.0186C11.8945 10.4756 11.666 11.0249 11.666 11.6665C11.666 12.3082 11.8945 12.8575 12.3514 13.3144C12.8084 13.7714 13.3577 13.9999 13.9993 13.9999Z" fill="white"/>
</g>
</svg>
