<svg width="23" height="23" viewBox="0 0 23 23" fill="none" xmlns="http://www.w3.org/2000/svg">
<mask id="mask0_9139_3767" style="mask-type:alpha" maskUnits="userSpaceOnUse" x="0" y="0" width="23" height="23">
<rect width="23" height="23" fill="#D9D9D9"/>
</mask>
<g mask="url(#mask0_9139_3767)">
<path d="M11.5002 18.5438C13.4488 16.7549 14.8943 15.1297 15.8366 13.6682C16.779 12.2068 17.2502 10.909 17.2502 9.775C17.2502 8.03403 16.6951 6.60851 15.5851 5.49844C14.475 4.38837 13.1134 3.83333 11.5002 3.83333C9.88697 3.83333 8.52534 4.38837 7.41527 5.49844C6.3052 6.60851 5.75016 8.03403 5.75016 9.775C5.75016 10.909 6.22134 12.2068 7.1637 13.6682C8.10607 15.1297 9.55155 16.7549 11.5002 18.5438ZM11.5002 20.4365C11.2766 20.4365 11.0529 20.3965 10.8293 20.3167C10.6057 20.2368 10.4061 20.117 10.2304 19.9573C9.19218 18.999 8.27377 18.0646 7.47516 17.1542C6.67655 16.2438 6.00971 15.3613 5.47464 14.5068C4.93957 13.6523 4.53228 12.8297 4.25277 12.0391C3.97325 11.2484 3.8335 10.4938 3.8335 9.775C3.8335 7.37917 4.60416 5.47049 6.14548 4.04896C7.68679 2.62743 9.47169 1.91667 11.5002 1.91667C13.5286 1.91667 15.3135 2.62743 16.8549 4.04896C18.3962 5.47049 19.1668 7.37917 19.1668 9.775C19.1668 10.4938 19.0271 11.2484 18.7476 12.0391C18.468 12.8297 18.0608 13.6523 17.5257 14.5068C16.9906 15.3613 16.3238 16.2438 15.5252 17.1542C14.7266 18.0646 13.8081 18.999 12.77 19.9573C12.5943 20.117 12.3946 20.2368 12.171 20.3167C11.9474 20.3965 11.7238 20.4365 11.5002 20.4365ZM11.5002 11.5C12.0272 11.5 12.4785 11.3123 12.8538 10.937C13.2292 10.5616 13.4168 10.1104 13.4168 9.58333C13.4168 9.05625 13.2292 8.60504 12.8538 8.22969C12.4785 7.85434 12.0272 7.66667 11.5002 7.66667C10.9731 7.66667 10.5219 7.85434 10.1465 8.22969C9.77117 8.60504 9.5835 9.05625 9.5835 9.58333C9.5835 10.1104 9.77117 10.5616 10.1465 10.937C10.5219 11.3123 10.9731 11.5 11.5002 11.5Z" fill="#464646"/>
</g>
</svg>
