<svg preserveAspectRatio="none" width="100%" height="100%" overflow="visible" style="display: block;" viewBox="0 0 40 40" fill="none" xmlns="http://www.w3.org/2000/svg">
<g id="lock">
<mask id="mask0_9957_21981" style="mask-type:alpha" maskUnits="userSpaceOnUse" x="0" y="0" width="40" height="40">
<rect id="Bounding box" width="40" height="40" fill="var(--fill-0, #D9D9D9)"/>
</mask>
<g mask="url(#mask0_9957_21981)">
<path id="lock_2" d="M9.44458 36.6667C8.68069 36.6667 8.02667 36.3947 7.4825 35.8508C6.93861 35.3067 6.66667 34.6526 6.66667 33.8888V16.2779C6.66667 15.514 6.93861 14.86 7.4825 14.3158C8.02667 13.7719 8.68069 13.5 9.44458 13.5H11.9446V9.72208C11.9446 7.49347 12.7303 5.59375 14.3017 4.02292C15.8731 2.45208 17.7735 1.66667 20.0029 1.66667C22.2324 1.66667 24.1318 2.45208 25.7013 4.02292C27.2707 5.59375 28.0554 7.49347 28.0554 9.72208V13.5H30.5554C31.3193 13.5 31.9733 13.7719 32.5175 14.3158C33.0614 14.86 33.3333 15.514 33.3333 16.2779V33.8888C33.3333 34.6526 33.0614 35.3067 32.5175 35.8508C31.9733 36.3947 31.3193 36.6667 30.5554 36.6667H9.44458ZM9.44458 33.8888H30.5554V16.2779H9.44458V33.8888ZM20.0046 28.3333C20.8996 28.3333 21.6643 28.0206 22.2987 27.395C22.9329 26.7694 23.25 26.0174 23.25 25.1387C23.25 24.2776 22.9312 23.5115 22.2937 22.8404C21.6565 22.169 20.8904 21.8333 19.9954 21.8333C19.1004 21.8333 18.3357 22.169 17.7012 22.8404C17.0671 23.5115 16.75 24.2824 16.75 25.1529C16.75 26.0232 17.0688 26.7708 17.7063 27.3958C18.3435 28.0208 19.1096 28.3333 20.0046 28.3333ZM14.7221 13.5H25.2779V9.72208C25.2779 8.25625 24.7651 7.01014 23.7396 5.98375C22.7138 4.95764 21.4683 4.44458 20.0033 4.44458C18.5381 4.44458 17.2915 4.95764 16.2637 5.98375C15.236 7.01014 14.7221 8.25625 14.7221 9.72208V13.5Z" fill="var(--fill-0, #1447D4)"/>
</g>
</g>
</svg>
