<svg width="17" height="17" viewBox="0 0 17 17" fill="none" xmlns="http://www.w3.org/2000/svg">
<mask id="mask0_10526_3244" style="mask-type:alpha" maskUnits="userSpaceOnUse" x="0" y="0" width="17" height="17">
<rect width="17" height="17" fill="#D9D9D9"/>
</mask>
<g mask="url(#mask0_10526_3244)">
<path d="M2.83366 14.1668C2.44408 14.1668 2.11057 14.0281 1.83314 13.7507C1.55571 13.4733 1.41699 13.1397 1.41699 12.7502V4.25016C1.41699 3.86058 1.55571 3.52707 1.83314 3.24964C2.11057 2.97221 2.44408 2.8335 2.83366 2.8335H14.167C14.5566 2.8335 14.8901 2.97221 15.1675 3.24964C15.4449 3.52707 15.5837 3.86058 15.5837 4.25016V12.7502C15.5837 13.1397 15.4449 13.4733 15.1675 13.7507C14.8901 14.0281 14.5566 14.1668 14.167 14.1668H2.83366ZM14.167 5.66683L8.8722 8.97829C8.81317 9.0137 8.75119 9.04027 8.68626 9.05798C8.62133 9.07568 8.55935 9.08454 8.50033 9.08454C8.4413 9.08454 8.37932 9.07568 8.31439 9.05798C8.24946 9.04027 8.18748 9.0137 8.12845 8.97829L2.83366 5.66683V12.7502H14.167V5.66683ZM8.50033 7.79183L14.167 4.25016H2.83366L8.50033 7.79183ZM2.83366 5.84391V4.79912V4.81683V4.80798V5.84391Z" fill="#1E1D1D"/>
</g>
</svg>
