<svg width="40" height="40" viewBox="0 0 40 40" fill="none" xmlns="http://www.w3.org/2000/svg">
<mask id="mask0_10056_40301" style="mask-type:alpha" maskUnits="userSpaceOnUse" x="0" y="0" width="40" height="40">
<path d="M40 0H0V40H40V0Z" fill="#023047"/>
</mask>
<g mask="url(#mask0_10056_40301)">
<path d="M20.0003 32.2497C23.3892 29.1385 25.9032 26.3122 27.542 23.7705C29.1808 21.2288 30.0003 18.9718 30.0003 16.9997C30.0003 13.9719 29.035 11.4927 27.1045 9.56218C25.174 7.63163 22.8058 6.66634 20.0003 6.66634C17.1948 6.66634 14.8267 7.63163 12.8962 9.56218C10.9656 11.4927 10.0003 13.9719 10.0003 16.9997C10.0003 18.9718 10.8198 21.2288 12.4587 23.7705C14.0975 26.3122 16.6114 29.1385 20.0003 32.2497ZM20.0003 35.5413C19.6115 35.5413 19.2225 35.4718 18.8337 35.333C18.4448 35.1942 18.0975 34.9858 17.792 34.708C15.9864 33.0413 14.3892 31.4163 13.0003 29.833C11.6114 28.2497 10.4517 26.715 9.52116 25.2288C8.59061 23.7427 7.88228 22.3122 7.39616 20.9372C6.91004 19.5622 6.66699 18.2497 6.66699 16.9997C6.66699 12.833 8.00728 9.51356 10.6878 7.04134C13.3684 4.56912 16.4725 3.33301 20.0003 3.33301C23.5282 3.33301 26.6323 4.56912 29.3128 7.04134C31.9933 9.51356 33.3337 12.833 33.3337 16.9997C33.3337 18.2497 33.0907 19.5622 32.6045 20.9372C32.1183 22.3122 31.41 23.7427 30.4795 25.2288C29.549 26.715 28.3892 28.2497 27.0003 29.833C25.6115 31.4163 24.0142 33.0413 22.2087 34.708C21.9032 34.9858 21.5558 35.1942 21.167 35.333C20.7782 35.4718 20.3892 35.5413 20.0003 35.5413ZM20.0003 19.9997C20.917 19.9997 21.7017 19.6733 22.3545 19.0205C23.0073 18.3677 23.3337 17.583 23.3337 16.6663C23.3337 15.7497 23.0073 14.965 22.3545 14.3122C21.7017 13.6594 20.917 13.333 20.0003 13.333C19.0837 13.333 18.299 13.6594 17.6462 14.3122C16.9933 14.965 16.667 15.7497 16.667 16.6663C16.667 17.583 16.9933 18.3677 17.6462 19.0205C18.299 19.6733 19.0837 19.9997 20.0003 19.9997Z" fill="#1447D4"/>
<path fill-rule="evenodd" clip-rule="evenodd" d="M20 32.2493C23.3888 29.1382 25.9028 26.3118 27.5417 23.7702C29.1805 21.2285 30 18.9715 30 16.9993C30 13.9716 29.0347 11.4924 27.1042 9.56185C25.1737 7.6313 22.8055 6.66602 20 6.66602C17.1945 6.66602 14.8264 7.6313 12.8958 9.56185C10.9653 11.4924 10 13.9716 10 16.9993C10 18.9715 10.8194 21.2285 12.4583 23.7702C14.0972 26.3118 16.6111 29.1382 20 32.2493ZM22.3542 19.0202C21.7013 19.673 20.9167 19.9993 20 19.9993C19.0833 19.9993 18.2987 19.673 17.6458 19.0202C16.993 18.3673 16.6667 17.5827 16.6667 16.666C16.6667 15.7493 16.993 14.9646 17.6458 14.3118C18.2987 13.6591 19.0833 13.3327 20 13.3327C20.9167 13.3327 21.7013 13.6591 22.3542 14.3118C23.007 14.9646 23.3333 15.7493 23.3333 16.666C23.3333 17.5827 23.007 18.3673 22.3542 19.0202Z" fill="#1447D4"/>
<path d="M20.0003 32.2497C23.3892 29.1385 25.9032 26.3122 27.542 23.7705C29.1808 21.2288 30.0003 18.9718 30.0003 16.9997C30.0003 13.9719 29.035 11.4927 27.1045 9.56218C25.174 7.63163 22.8058 6.66634 20.0003 6.66634C17.1948 6.66634 14.8267 7.63163 12.8962 9.56218C10.9656 11.4927 10.0003 13.9719 10.0003 16.9997C10.0003 18.9718 10.8198 21.2288 12.4587 23.7705C14.0975 26.3122 16.6114 29.1385 20.0003 32.2497ZM20.0003 35.5413C19.6115 35.5413 19.2225 35.4718 18.8337 35.333C18.4448 35.1942 18.0975 34.9858 17.792 34.708C15.9864 33.0413 14.3892 31.4163 13.0003 29.833C11.6114 28.2497 10.4517 26.715 9.52116 25.2288C8.59061 23.7427 7.88228 22.3122 7.39616 20.9372C6.91004 19.5622 6.66699 18.2497 6.66699 16.9997C6.66699 12.833 8.00728 9.51356 10.6878 7.04134C13.3684 4.56912 16.4725 3.33301 20.0003 3.33301C23.5282 3.33301 26.6323 4.56912 29.3128 7.04134C31.9933 9.51356 33.3337 12.833 33.3337 16.9997C33.3337 18.2497 33.0907 19.5622 32.6045 20.9372C32.1183 22.3122 31.41 23.7427 30.4795 25.2288C29.549 26.715 28.3892 28.2497 27.0003 29.833C25.6115 31.4163 24.0142 33.0413 22.2087 34.708C21.9032 34.9858 21.5558 35.1942 21.167 35.333C20.7782 35.4718 20.3892 35.5413 20.0003 35.5413ZM20.0003 19.9997C20.917 19.9997 21.7017 19.6733 22.3545 19.0205C23.0073 18.3677 23.3337 17.583 23.3337 16.6663C23.3337 15.7497 23.0073 14.965 22.3545 14.3122C21.7017 13.6594 20.917 13.333 20.0003 13.333C19.0837 13.333 18.299 13.6594 17.6462 14.3122C16.9933 14.965 16.667 15.7497 16.667 16.6663C16.667 17.583 16.9933 18.3677 17.6462 19.0205C18.299 19.6733 19.0837 19.9997 20.0003 19.9997Z" fill="white"/>
</g>
</svg>
