<svg width="17" height="17" viewBox="0 0 17 17" fill="none" xmlns="http://www.w3.org/2000/svg">
<mask id="mask0_9226_19960" style="mask-type:alpha" maskUnits="userSpaceOnUse" x="0" y="0" width="17" height="17">
<rect width="17" height="17" fill="#D9D9D9"/>
</mask>
<g mask="url(#mask0_9226_19960)">
<path d="M3.54167 5.66667H13.4583V4.25001H3.54167V5.66667ZM3.54167 15.5833C3.15208 15.5833 2.81858 15.4446 2.54115 15.1672C2.26372 14.8898 2.125 14.5563 2.125 14.1667V4.25001C2.125 3.86042 2.26372 3.52691 2.54115 3.24948C2.81858 2.97205 3.15208 2.83334 3.54167 2.83334H4.25V2.12501C4.25 1.92431 4.31788 1.75608 4.45365 1.62032C4.58941 1.48455 4.75764 1.41667 4.95833 1.41667C5.15903 1.41667 5.32726 1.48455 5.46302 1.62032C5.59878 1.75608 5.66667 1.92431 5.66667 2.12501V2.83334H11.3333V2.12501C11.3333 1.92431 11.4012 1.75608 11.537 1.62032C11.6727 1.48455 11.841 1.41667 12.0417 1.41667C12.2424 1.41667 12.4106 1.48455 12.5464 1.62032C12.6821 1.75608 12.75 1.92431 12.75 2.12501V2.83334H13.4583C13.8479 2.83334 14.1814 2.97205 14.4589 3.24948C14.7363 3.52691 14.875 3.86042 14.875 4.25001V7.56146C14.875 7.76216 14.8071 7.93039 14.6714 8.06615C14.5356 8.20191 14.3674 8.2698 14.1667 8.2698C13.966 8.2698 13.7977 8.20191 13.662 8.06615C13.5262 7.93039 13.4583 7.76216 13.4583 7.56146V7.08334H3.54167V14.1667H7.65C7.8507 14.1667 8.01892 14.2346 8.15469 14.3703C8.29045 14.5061 8.35833 14.6743 8.35833 14.875C8.35833 15.0757 8.29045 15.2439 8.15469 15.3797C8.01892 15.5155 7.8507 15.5833 7.65 15.5833H3.54167ZM12.75 16.2917C11.7701 16.2917 10.9349 15.9464 10.2443 15.2557C9.55365 14.5651 9.20833 13.7299 9.20833 12.75C9.20833 11.7701 9.55365 10.9349 10.2443 10.2443C10.9349 9.55365 11.7701 9.20834 12.75 9.20834C13.7299 9.20834 14.5651 9.55365 15.2557 10.2443C15.9464 10.9349 16.2917 11.7701 16.2917 12.75C16.2917 13.7299 15.9464 14.5651 15.2557 15.2557C14.5651 15.9464 13.7299 16.2917 12.75 16.2917ZM13.1042 12.6083V10.9792C13.1042 10.8847 13.0688 10.8021 12.9979 10.7313C12.9271 10.6604 12.8444 10.625 12.75 10.625C12.6556 10.625 12.5729 10.6604 12.5021 10.7313C12.4313 10.8021 12.3958 10.8847 12.3958 10.9792V12.5906C12.3958 12.6851 12.4135 12.7766 12.449 12.8651C12.4844 12.9537 12.5375 13.0333 12.6083 13.1042L13.6885 14.1844C13.7594 14.2552 13.842 14.2906 13.9365 14.2906C14.0309 14.2906 14.1135 14.2552 14.1844 14.1844C14.2552 14.1135 14.2906 14.0309 14.2906 13.9365C14.2906 13.842 14.2552 13.7594 14.1844 13.6885L13.1042 12.6083Z" fill="#04247B"/>
</g>
</svg>
