<svg width="51" height="51" viewBox="0 0 51 51" fill="none" xmlns="http://www.w3.org/2000/svg">
<path d="M6 0.5H45C48.0376 0.5 50.5 2.96243 50.5 6V45C50.5 48.0376 48.0376 50.5 45 50.5H6C2.96243 50.5 0.5 48.0376 0.5 45V6C0.5 2.96243 2.96243 0.5 6 0.5Z" fill="#F9F9F8" stroke="#E8E8E7"/>
<mask id="mask0_10056_40779" style="mask-type:alpha" maskUnits="userSpaceOnUse" x="14" y="14" width="24" height="24">
<rect x="14" y="14" width="24" height="24" fill="#D9D9D9"/>
</mask>
<g mask="url(#mask0_10056_40779)">
<path d="M20 27C19.7167 27 19.4792 26.9042 19.2875 26.7125C19.0958 26.5208 19 26.2833 19 26C19 25.7167 19.0958 25.4792 19.2875 25.2875C19.4792 25.0958 19.7167 25 20 25H32C32.2833 25 32.5208 25.0958 32.7125 25.2875C32.9042 25.4792 33 25.7167 33 26C33 26.2833 32.9042 26.5208 32.7125 26.7125C32.5208 26.9042 32.2833 27 32 27H20Z" fill="#1E1D1D"/>
</g>
</svg>
