<svg width="17" height="17" viewBox="0 0 17 17" fill="none" xmlns="http://www.w3.org/2000/svg">
<mask id="mask0_10526_37919" style="mask-type:alpha" maskUnits="userSpaceOnUse" x="0" y="0" width="17" height="17">
<rect width="17" height="17" fill="#D9D9D9"/>
</mask>
<g mask="url(#mask0_10526_37919)">
<path d="M4.24967 9.91683C3.86009 9.91683 3.52658 9.77811 3.24915 9.50068C2.97172 9.22325 2.83301 8.88975 2.83301 8.50016C2.83301 8.11058 2.97172 7.77707 3.24915 7.49964C3.52658 7.22221 3.86009 7.0835 4.24967 7.0835C4.63926 7.0835 4.97276 7.22221 5.2502 7.49964C5.52763 7.77707 5.66634 8.11058 5.66634 8.50016C5.66634 8.88975 5.52763 9.22325 5.2502 9.50068C4.97276 9.77811 4.63926 9.91683 4.24967 9.91683ZM8.49967 9.91683C8.11009 9.91683 7.77658 9.77811 7.49915 9.50068C7.22172 9.22325 7.08301 8.88975 7.08301 8.50016C7.08301 8.11058 7.22172 7.77707 7.49915 7.49964C7.77658 7.22221 8.11009 7.0835 8.49967 7.0835C8.88926 7.0835 9.22276 7.22221 9.5002 7.49964C9.77763 7.77707 9.91634 8.11058 9.91634 8.50016C9.91634 8.88975 9.77763 9.22325 9.5002 9.50068C9.22276 9.77811 8.88926 9.91683 8.49967 9.91683ZM12.7497 9.91683C12.3601 9.91683 12.0266 9.77811 11.7492 9.50068C11.4717 9.22325 11.333 8.88975 11.333 8.50016C11.333 8.11058 11.4717 7.77707 11.7492 7.49964C12.0266 7.22221 12.3601 7.0835 12.7497 7.0835C13.1393 7.0835 13.4728 7.22221 13.7502 7.49964C14.0276 7.77707 14.1663 8.11058 14.1663 8.50016C14.1663 8.88975 14.0276 9.22325 13.7502 9.50068C13.4728 9.77811 13.1393 9.91683 12.7497 9.91683Z" fill="#1E1D1D"/>
</g>
</svg>
