<svg preserveAspectRatio="none" width="100%" height="100%" overflow="visible" style="display: block;" viewBox="0 0 18 18" fill="none" xmlns="http://www.w3.org/2000/svg">
<g id="notifications">
<mask id="mask0_9969_22334" style="mask-type:alpha" maskUnits="userSpaceOnUse" x="0" y="0" width="18" height="18">
<rect id="Bounding box" width="18" height="18" fill="var(--fill-0, #D9D9D9)"/>
</mask>
<g mask="url(#mask0_9969_22334)">
<path id="notifications_2" d="M4.28044 13.95C4.08931 13.95 3.92812 13.8857 3.79687 13.7571C3.66562 13.6284 3.6 13.4691 3.6 13.2789C3.6 13.0888 3.66469 12.9281 3.79406 12.7969C3.92344 12.6656 4.08375 12.6 4.275 12.6H4.5V8.1C4.5 7.0125 4.83438 6.05625 5.50313 5.23125C6.17188 4.40625 7.0375 3.89375 8.1 3.69375V2.7C8.1 2.45 8.1875 2.2375 8.3625 2.0625C8.5375 1.8875 8.75 1.8 9 1.8C9.25 1.8 9.4625 1.8875 9.6375 2.0625C9.8125 2.2375 9.9 2.45 9.9 2.7V3.69375C10.9625 3.89375 11.8281 4.40625 12.4969 5.23125C13.1656 6.05625 13.5 7.0125 13.5 8.1V12.6H13.725C13.9163 12.6 14.0766 12.6643 14.2059 12.7929C14.3353 12.9216 14.4 13.0809 14.4 13.2711C14.4 13.4612 14.3354 13.6219 14.2061 13.7531C14.0768 13.8844 13.9165 13.95 13.7254 13.95H4.28044ZM8.99606 16.2C8.62369 16.2 8.30625 16.0678 8.04375 15.8034C7.78125 15.5391 7.65 15.2212 7.65 14.85H10.35C10.35 15.225 10.2174 15.5437 9.95231 15.8062C9.68719 16.0687 9.36844 16.2 8.99606 16.2ZM5.85 12.6H12.15V8.1C12.15 7.225 11.8438 6.48125 11.2313 5.86875C10.6188 5.25625 9.875 4.95 9 4.95C8.125 4.95 7.38125 5.25625 6.76875 5.86875C6.15625 6.48125 5.85 7.225 5.85 8.1V12.6Z" fill="var(--fill-0, #1E1D1D)"/>
</g>
</g>
</svg>
