<svg preserveAspectRatio="none" width="100%" height="100%" overflow="visible" style="display: block;" viewBox="0 0 22 22" fill="none" xmlns="http://www.w3.org/2000/svg">
<g id="notifications">
<mask id="mask0_9966_22260" style="mask-type:alpha" maskUnits="userSpaceOnUse" x="0" y="0" width="22" height="22">
<rect id="Bounding box" width="22" height="22" fill="var(--fill-0, #D9D9D9)"/>
</mask>
<g mask="url(#mask0_9966_22260)">
<path id="notifications_2" d="M5.23117 17.0498C4.99757 17.0498 4.80056 16.9712 4.64015 16.8139C4.47973 16.6567 4.39952 16.4619 4.39952 16.2296C4.39952 15.9972 4.47859 15.8008 4.63671 15.6404C4.79484 15.48 4.99077 15.3998 5.22452 15.3998H5.49952V9.89976C5.49952 8.57059 5.9082 7.40184 6.72556 6.39351C7.54293 5.38518 8.60091 4.75879 9.89952 4.51434V3.29976C9.89952 2.99421 10.0065 2.73448 10.2204 2.52059C10.4342 2.30671 10.694 2.19976 10.9995 2.19976C11.3051 2.19976 11.5648 2.30671 11.7787 2.52059C11.9926 2.73448 12.0995 2.99421 12.0995 3.29976V4.51434C13.3981 4.75879 14.4561 5.38518 15.2735 6.39351C16.0908 7.40184 16.4995 8.57059 16.4995 9.89976V15.3998H16.7745C17.0083 15.3998 17.2042 15.4784 17.3623 15.6356C17.5205 15.7928 17.5995 15.9876 17.5995 16.2199C17.5995 16.4523 17.5205 16.6487 17.3626 16.8091C17.2044 16.9696 17.0086 17.0498 16.775 17.0498H5.23117ZM10.9947 19.7998C10.5396 19.7998 10.1516 19.6382 9.83077 19.3151C9.50994 18.9919 9.34952 18.6035 9.34952 18.1498H12.6495C12.6495 18.6081 12.4875 18.9977 12.1635 19.3185C11.8394 19.6393 11.4498 19.7998 10.9947 19.7998ZM7.14952 15.3998H14.8495V9.89976C14.8495 8.83032 14.4752 7.92129 13.7266 7.17268C12.978 6.42407 12.069 6.04976 10.9995 6.04976C9.93008 6.04976 9.02105 6.42407 8.27244 7.17268C7.52383 7.92129 7.14952 8.83032 7.14952 9.89976V15.3998Z" fill="var(--fill-0, #1447D4)"/>
</g>
</g>
</svg>
