<svg preserveAspectRatio="none" width="100%" height="100%" overflow="visible" style="display: block;" viewBox="0 0 24 24" fill="none" xmlns="http://www.w3.org/2000/svg">
<g id="notifications">
<mask id="mask0_9969_22430" style="mask-type:alpha" maskUnits="userSpaceOnUse" x="0" y="0" width="24" height="24">
<rect id="Bounding box" width="24" height="24" fill="var(--fill-0, #D9D9D9)"/>
</mask>
<g mask="url(#mask0_9969_22430)">
<path id="notifications_2" d="M5.70737 17.9995C5.45737 17.9995 5.25056 17.9157 5.08737 17.7487C4.92419 17.5817 4.84237 17.3749 4.84237 17.1275C4.84237 16.8801 4.92359 16.674 5.08609 16.5108C5.24859 16.3475 5.45424 16.2657 5.70424 16.2657H6.00004V11.0001C6.00004 9.50012 6.46742 8.16709 7.40219 6.99462C8.33696 5.82216 9.53983 5.1275 11.0000 4.9075V3.20004C11.0000 2.89921 11.1166 2.63938 11.3508 2.41913C11.5849 2.19888 11.8848 2.08873 12.2500 2.08873C12.6152 2.08873 12.9151 2.19888 13.1492 2.41913C13.3834 2.63938 13.5000 2.89921 13.5000 3.20004V4.9075C14.9602 5.1275 16.1631 5.82216 17.0979 6.99462C18.0327 8.16709 18.5000 9.50012 18.5000 11.0001V16.2657H18.7958C19.0458 16.2657 19.2525 16.3469 19.4149 16.5117C19.5774 16.6766 19.6586 16.8833 19.6586 17.1307C19.6586 17.3781 19.5774 17.5841 19.4154 17.7473C19.2533 17.9106 19.0465 17.9995 18.7965 17.9995H5.70737ZM11.0005 21.0001C10.5042 21.0001 10.0903 20.8335 9.76983 20.5002C9.44933 20.1668 9.28919 19.7523 9.28919 19.2501H12.7108C12.7108 19.7571 12.5414 20.1709 12.2105 20.5097C11.8796 20.8486 11.4646 21.0001 11.0005 21.0001ZM7.50004 16.2657H14.5001V11.0001C14.5001 9.87512 14.0751 8.93881 13.2251 8.18881C12.3751 7.43881 11.4388 7.00012 11.0001 7.00012C10.5614 7.00012 9.62512 7.43881 8.77512 8.18881C7.92512 8.93881 7.50004 9.87512 7.50004 11.0001V16.2657Z" fill="var(--fill-0, #1E1D1D)"/>
</g>
</g>
</svg>
