<svg preserveAspectRatio="none" width="100%" height="100%" overflow="visible" style="display: block;" viewBox="0 0 24 24" fill="none" xmlns="http://www.w3.org/2000/svg">
<g id="parking_sign">
<mask id="mask0_9957_22097" style="mask-type:alpha" maskUnits="userSpaceOnUse" x="0" y="0" width="24" height="24">
<rect id="Bounding box" width="24" height="24" fill="var(--fill-0, #D9D9D9)"/>
</mask>
<g mask="url(#mask0_9957_22097)">
<path id="parking_sign_2" d="M16.2788 8.80125H18.375C18.7328 8.80125 19.0371 8.676 19.2878 8.4255C19.5383 8.175 19.6635 7.87075 19.6635 7.51275V6.3975C19.6635 6.0395 19.5383 5.73525 19.2878 5.48475C19.0371 5.23425 18.7328 5.109 18.375 5.109H15.9263C15.7048 5.109 15.519 5.18392 15.369 5.33375C15.2192 5.48375 15.1443 5.6695 15.1443 5.891V10.0885C15.1443 10.2422 15.2005 10.3738 15.313 10.4833C15.4255 10.5928 15.5599 10.6475 15.7163 10.6475C15.8726 10.6475 16.0054 10.5912 16.1148 10.4785C16.2241 10.3658 16.2788 10.2324 16.2788 10.0783V8.80125ZM16.2788 7.73075V6.1795H18.5352V7.73075H16.2788ZM13.3078 13.2563C12.8779 13.2563 12.5098 13.1031 12.2033 12.7968C11.8969 12.4903 11.7438 12.121 11.7438 11.689V4.06725C11.7438 3.63542 11.8969 3.26625 12.2033 2.95975C12.5098 2.65325 12.879 2.5 13.311 2.5H20.9328C21.3646 2.5 21.7337 2.65325 22.0402 2.95975C22.3468 3.26625 22.5 3.63542 22.5 4.06725V11.689C22.5 12.121 22.3468 12.4903 22.0402 12.7968C21.7337 13.1031 21.3656 13.2563 20.9358 13.2563H17.75V19.8718C17.75 20.0498 17.6895 20.1989 17.5685 20.3193C17.4473 20.4398 17.2973 20.5 17.1185 20.5C16.9395 20.5 16.7906 20.4398 16.6718 20.3193C16.5529 20.1989 16.4935 20.0498 16.4935 19.8718V13.2563H13.3078ZM13.3078 12H20.9358C21.0256 12 21.0993 11.9712 21.157 11.9135C21.2147 11.8558 21.2435 11.7821 21.2435 11.6923V4.06425C21.2435 3.97442 21.2147 3.90067 21.157 3.843C21.0993 3.78533 21.0256 3.7565 20.9358 3.7565H13.3078C13.2179 3.7565 13.1442 3.78533 13.0865 3.843C13.0288 3.90067 13 3.97442 13 4.06425V11.6923C13 11.7821 13.0288 11.8558 13.0865 11.9135C13.1442 11.9712 13.2179 12 13.3078 12ZM9.134 20.5C8.9515 20.5 8.80292 20.4398 8.68825 20.3193C8.57342 20.1989 8.516 20.0498 8.516 19.8718V18.4525H3.12825C2.95025 18.4525 2.80108 18.392 2.68075 18.271C2.56025 18.15 2.5 18 2.5 17.821C2.5 17.642 2.56025 17.4931 2.68075 17.3743C2.80108 17.2556 2.95025 17.1963 3.12825 17.1963H8.88775V12.1513H3.12825C2.95025 12.1513 2.80108 12.0908 2.68075 11.9698C2.56025 11.8488 2.5 11.6988 2.5 11.5198C2.5 11.3408 2.56025 11.1918 2.68075 11.073C2.80108 10.9543 2.95025 10.895 3.12825 10.895H8.39175L6.97125 6.7565H3.12825C2.95025 6.7565 2.80108 6.69592 2.68075 6.57475C2.56025 6.45375 2.5 6.30375 2.5 6.12475C2.5 5.94592 2.56025 5.79708 2.68075 5.67825C2.80108 5.55942 2.95025 5.5 3.12825 5.5H7.216C7.41867 5.5 7.59858 5.55617 7.75575 5.6685C7.91275 5.781 8.02475 5.93425 8.09175 6.12825L10.0645 11.905C10.0975 11.9858 10.1191 12.0695 10.1293 12.156C10.1393 12.2425 10.1443 12.329 10.1443 12.4155V19.8718C10.1443 20.0498 10.0841 20.1989 9.96375 20.3193C9.84325 20.4398 9.694 20.5 9.516 20.5H9.134ZM6.37025 15.9205C6.71925 15.9205 7.01525 15.7997 7.25825 15.558C7.50108 15.3163 7.6225 15.0243 7.6225 14.6818C7.6225 14.3299 7.50067 14.0328 7.257 13.7905C7.01333 13.5482 6.7175 13.427 6.3695 13.427C6.0215 13.427 5.72775 13.5485 5.48825 13.7915C5.24875 14.0347 5.129 14.3316 5.129 14.6823C5.129 15.0329 5.25092 15.327 5.49475 15.5645C5.73842 15.8018 6.03025 15.9205 6.37025 15.9205Z" fill="var(--fill-0, #464646)"/>
</g>
</g>
</svg>
