<svg width="19" height="19" viewBox="0 0 19 19" fill="none" xmlns="http://www.w3.org/2000/svg">
<mask id="mask0_9553_18778" style="mask-type:alpha" maskUnits="userSpaceOnUse" x="0" y="0" width="19" height="19">
<rect width="19" height="19" fill="#D9D9D9"/>
</mask>
<g mask="url(#mask0_9553_18778)">
<path d="M9.49844 12.6667C10.488 12.6667 11.3292 12.3204 12.0219 11.6277C12.7146 10.935 13.0609 10.0938 13.0609 9.10425C13.0609 8.11467 12.7146 7.27352 12.0219 6.58081C11.3292 5.8881 10.488 5.54175 9.49844 5.54175C8.50885 5.54175 7.66771 5.8881 6.975 6.58081C6.28229 7.27352 5.93594 8.11467 5.93594 9.10425C5.93594 10.0938 6.28229 10.935 6.975 11.6277C7.66771 12.3204 8.50885 12.6667 9.49844 12.6667ZM9.49844 11.2417C8.90469 11.2417 8.4 11.0339 7.98438 10.6183C7.56875 10.2027 7.36094 9.698 7.36094 9.10425C7.36094 8.5105 7.56875 8.00581 7.98438 7.59019C8.4 7.17456 8.90469 6.96675 9.49844 6.96675C10.0922 6.96675 10.5969 7.17456 11.0125 7.59019C11.4281 8.00581 11.6359 8.5105 11.6359 9.10425C11.6359 9.698 11.4281 10.2027 11.0125 10.6183C10.5969 11.0339 10.0922 11.2417 9.49844 11.2417ZM9.49844 15.0417C7.73038 15.0417 6.11736 14.5667 4.65938 13.6167C3.20139 12.6667 2.05017 11.4133 1.20573 9.85633C1.13976 9.73758 1.09028 9.61553 1.05729 9.49019C1.02431 9.36484 1.00781 9.23619 1.00781 9.10425C1.00781 8.9723 1.02431 8.84366 1.05729 8.71831C1.09028 8.59296 1.13976 8.47091 1.20573 8.35217C2.05017 6.79522 3.20139 5.54175 4.65938 4.59175C6.11736 3.64175 7.73038 3.16675 9.49844 3.16675C11.2665 3.16675 12.8795 3.64175 14.3375 4.59175C15.7955 5.54175 16.9467 6.79522 17.7911 8.35217C17.8571 8.47091 17.9066 8.59296 17.9396 8.71831C17.9726 8.84366 17.9891 8.9723 17.9891 9.10425C17.9891 9.23619 17.9726 9.36484 17.9396 9.49019C17.9066 9.61553 17.8571 9.73758 17.7911 9.85633C16.9467 11.4133 15.7955 12.6667 14.3375 13.6167C12.8795 14.5667 11.2665 15.0417 9.49844 15.0417ZM9.49844 13.4584C10.9894 13.4584 12.3583 13.0659 13.6052 12.2808C14.8521 11.4957 15.8054 10.4369 16.4651 9.10425C15.8054 7.77161 14.8521 6.71276 13.6052 5.92769C12.3583 5.14262 10.9894 4.75008 9.49844 4.75008C8.00747 4.75008 6.63854 5.14262 5.39167 5.92769C4.14479 6.71276 3.19149 7.77161 2.53177 9.10425C3.19149 10.4369 4.14479 11.4957 5.39167 12.2808C6.63854 13.0659 8.00747 13.4584 9.49844 13.4584Z" fill="#464646"/>
</g>
</svg>
