<svg width="19" height="19" viewBox="0 0 19 19" fill="none" xmlns="http://www.w3.org/2000/svg">
<mask id="mask0_9553_18771" style="mask-type:alpha" maskUnits="userSpaceOnUse" x="0" y="0" width="19" height="19">
<rect width="19" height="19" fill="#D9D9D9"/>
</mask>
<g mask="url(#mask0_9553_18771)">
<path d="M12.7432 10.5293L11.5953 9.38138C11.7141 8.76124 11.5359 8.18069 11.0609 7.63971C10.5859 7.09874 9.9724 6.88763 9.22031 7.00638L8.0724 5.85846C8.2967 5.75291 8.52431 5.67374 8.75521 5.62096C8.98611 5.56819 9.23351 5.5418 9.4974 5.5418C10.487 5.5418 11.3281 5.88815 12.0208 6.58086C12.7135 7.27357 13.0599 8.11471 13.0599 9.1043C13.0599 9.36819 13.0335 9.61558 12.9807 9.84649C12.928 10.0774 12.8488 10.305 12.7432 10.5293ZM15.2766 13.023L14.1286 11.9147C14.63 11.5321 15.0753 11.1132 15.4646 10.6579C15.8538 10.2027 16.187 9.68485 16.4641 9.1043C15.8043 7.77166 14.8576 6.7128 13.624 5.92773C12.3903 5.14267 11.0148 4.75013 9.4974 4.75013C9.11476 4.75013 8.73871 4.77652 8.36927 4.8293C7.99983 4.88207 7.63698 4.96124 7.28073 5.0668L6.05365 3.83971C6.59462 3.61541 7.14878 3.44718 7.71615 3.33503C8.28351 3.22287 8.87726 3.1668 9.4974 3.1668C11.4898 3.1668 13.2644 3.71767 14.8214 4.8194C16.3783 5.92114 17.5064 7.34944 18.2057 9.1043C17.9023 9.88277 17.5031 10.6052 17.0083 11.2715C16.5135 11.9378 15.9363 12.5217 15.2766 13.023ZM15.6724 17.8918L12.3474 14.6064C11.8856 14.7515 11.4205 14.8604 10.9521 14.9329C10.4837 15.0055 9.99878 15.0418 9.4974 15.0418C7.50503 15.0418 5.73038 14.4909 4.17344 13.3892C2.61649 12.2875 1.48837 10.8592 0.789062 9.1043C1.06615 8.40499 1.4158 7.75517 1.83802 7.15482C2.26024 6.55447 2.74184 6.0168 3.28281 5.5418L1.10573 3.32513L2.21406 2.2168L16.7807 16.7835L15.6724 17.8918ZM4.39115 6.65013C4.00851 6.99319 3.65885 7.36923 3.34219 7.77826C3.02552 8.18728 2.75503 8.6293 2.53073 9.1043C3.19045 10.4369 4.13715 11.4958 5.37083 12.2809C6.60451 13.0659 7.98003 13.4585 9.4974 13.4585C9.76128 13.4585 10.0186 13.442 10.2693 13.409C10.52 13.376 10.7773 13.3397 11.0411 13.3001L10.3286 12.548C10.1835 12.5876 10.045 12.6173 9.91302 12.6371C9.78108 12.6569 9.64253 12.6668 9.4974 12.6668C8.50781 12.6668 7.66667 12.3204 6.97396 11.6277C6.28125 10.935 5.9349 10.0939 5.9349 9.1043C5.9349 8.95916 5.94479 8.82062 5.96458 8.68867C5.98437 8.55673 6.01406 8.41819 6.05365 8.27305L4.39115 6.65013Z" fill="#464646"/>
</g>
</svg>
