<svg width="48" height="48" viewBox="0 0 48 48" fill="none" xmlns="http://www.w3.org/2000/svg">
<g clip-path="url(#clip0_10051_39656)">
<path d="M16.2656 8.4375H17.6719V20.5782H16.2656V8.4375Z" fill="#1447D4"/>
<path d="M30.3281 8.4375H31.7344V17.7657H30.3281V8.4375Z" fill="#1447D4"/>
<path d="M33.1404 0H20.4843V1.40625H31.7342V5.625H16.2656V1.40625H19.078V0H14.8594V7.03125H33.1404V0Z" fill="#1447D4"/>
<path d="M13.4531 43.7812H14.8594V45.1875H13.4531V43.7812Z" fill="#1447D4"/>
<path d="M17.6719 2.8125H19.0781V4.21875H17.6719V2.8125Z" fill="#1447D4"/>
<path d="M21.8906 43.0781H23.2969V45.1875H21.8906V43.0781Z" fill="#1447D4"/>
<path d="M13.4531 38.1562H14.8594V39.5625H13.4531V38.1562Z" fill="#1447D4"/>
<path d="M5.625 10.0635H7.03125V11.4697H5.625V10.0635Z" fill="#1447D4"/>
<path d="M28.9219 2.8125H30.3281V4.21875H28.9219V2.8125Z" fill="#1447D4"/>
<path d="M24.7031 36.0469H26.1094V38.1562H24.7031V36.0469Z" fill="#1447D4"/>
<path d="M24.7031 21.9844H26.1094V24.0938H24.7031V21.9844Z" fill="#1447D4"/>
<path d="M16.2656 24.7969H17.6719V26.9062H16.2656V24.7969Z" fill="#1447D4"/>
<path d="M23.2969 2.8125H24.7031V4.21875H23.2969V2.8125Z" fill="#1447D4"/>
<path d="M40.9688 21.9844H42.375V23.3906H40.9688V21.9844Z" fill="#1447D4"/>
<path d="M21.8906 14.9531H23.2969V17.0625H21.8906V14.9531Z" fill="#1447D4"/>
<path d="M30.3281 21.2812H31.7344V23.3906H30.3281V21.2812Z" fill="#1447D4"/>
<path d="M30.3281 28.3125H31.7344V30.4219H30.3281V28.3125Z" fill="#1447D4"/>
<path d="M33.1406 40.9688H34.5469V42.375H33.1406V40.9688Z" fill="#1447D4"/>
<path d="M21.8906 29.0156H23.2969V31.125H21.8906V29.0156Z" fill="#1447D4"/>
<path d="M27.5156 14.9531H28.9219V17.0625H27.5156V14.9531Z" fill="#1447D4"/>
<path d="M27.5156 8.4375H28.9219V10.0313H27.5156V8.4375Z" fill="#1447D4"/>
<path d="M24.7031 14.9531H26.1094V17.0625H24.7031V14.9531Z" fill="#1447D4"/>
<path d="M24.7031 25.5H26.1094V27.6094H24.7031V25.5Z" fill="#1447D4"/>
<path d="M24.7031 32.5312H26.1094V34.6406H24.7031V32.5312Z" fill="#1447D4"/>
<path d="M24.7031 29.0156H26.1094V31.125H24.7031V29.0156Z" fill="#1447D4"/>
<path d="M30.3281 31.8281H31.7344V33.9375H30.3281V31.8281Z" fill="#1447D4"/>
<path d="M24.7031 18.4688H26.1094V20.5781H24.7031V18.4688Z" fill="#1447D4"/>
<path d="M20.4844 2.8125H21.8906V4.21875H20.4844V2.8125Z" fill="#1447D4"/>
<path d="M24.7031 39.5625H26.1094V41.6719H24.7031V39.5625Z" fill="#1447D4"/>
<path d="M26.1094 2.8125H27.5156V4.21875H26.1094V2.8125Z" fill="#1447D4"/>
<path d="M30.3281 35.3438H31.7344V36.75H30.3281V35.3438Z" fill="#1447D4"/>
<path d="M30.3281 24.7969H31.7344V26.9062H30.3281V24.7969Z" fill="#1447D4"/>
<path d="M27.5156 11.4375H28.9219V13.5469H27.5156V11.4375Z" fill="#1447D4"/>
<path d="M24.7031 43.0781H26.1094V45.1875H24.7031V43.0781Z" fill="#1447D4"/>
<path d="M21.8906 11.4375H23.2969V13.5469H21.8906V11.4375Z" fill="#1447D4"/>
<path d="M24.7031 11.4375H26.1094V13.5469H24.7031V11.4375Z" fill="#1447D4"/>
<path d="M21.8906 25.5H23.2969V27.6094H21.8906V25.5Z" fill="#1447D4"/>
<path d="M13.4531 40.9688H14.8594V42.375H13.4531V40.9688Z" fill="#1447D4"/>
<path d="M21.8906 39.5625H23.2969V41.6719H21.8906V39.5625Z" fill="#1447D4"/>
<path d="M21.8906 36.0469H23.2969V38.1562H21.8906V36.0469Z" fill="#1447D4"/>
<path d="M33.1406 43.7812H34.5469V45.1875H33.1406V43.7812Z" fill="#1447D4"/>
<path d="M21.8906 8.4375H23.2969V10.0313H21.8906V8.4375Z" fill="#1447D4"/>
<path d="M21.8906 18.4688H23.2969V20.5781H21.8906V18.4688Z" fill="#1447D4"/>
<path d="M21.8906 21.9844H23.2969V24.0938H21.8906V21.9844Z" fill="#1447D4"/>
<path d="M21.8906 32.5312H23.2969V34.6406H21.8906V32.5312Z" fill="#1447D4"/>
<path d="M16.2656 31.8281H17.6719V33.9375H16.2656V31.8281Z" fill="#1447D4"/>
<path d="M16.2656 28.3125H17.6719V30.4219H16.2656V28.3125Z" fill="#1447D4"/>
<path d="M19.0781 18.4688H20.4844V20.5781H19.0781V18.4688Z" fill="#1447D4"/>
<path d="M24.7031 8.4375H26.1094V10.0313H24.7031V8.4375Z" fill="#1447D4"/>
<path d="M19.0781 14.9531H20.4844V17.0625H19.0781V14.9531Z" fill="#1447D4"/>
<path d="M19.0781 8.4375H20.4844V10.0313H19.0781V8.4375Z" fill="#1447D4"/>
<path d="M19.0781 11.4375H20.4844V13.5469H19.0781V11.4375Z" fill="#1447D4"/>
<path d="M17.6719 40.9688H16.2656V46.5938H12.0469V36.75H16.2656V39.5625H17.6719V35.3438H10.6406V48H23.2968V46.5938H17.6719V40.9688Z" fill="#1447D4"/>
<path d="M30.328 46.5938H24.7031V48H37.3592V42.375H35.9529V46.5938H31.7343V39.5625H35.9529V40.9688H37.3592V38.1562H30.328V46.5938Z" fill="#1447D4"/>
<path d="M33.1406 24.7969H34.5469V36.7499H33.1406V24.7969Z" fill="#1447D4"/>
<path d="M34.5468 18.4688H27.5156V45.1874H28.9219V19.875H33.1405V23.3906H34.5468V18.4688Z" fill="#1447D4"/>
<path d="M19.0781 28.3125H20.4844V45.1875H19.0781V28.3125Z" fill="#1447D4"/>
<path d="M20.4843 21.9844H13.4531V33.9375H14.8594V23.3906H19.078V26.9062H20.4843V21.9844Z" fill="#1447D4"/>
<path d="M11.9531 12.876H9.84375V14.2822H11.9531C13.1162 14.2822 14.0625 13.3359 14.0625 12.1729C14.0625 11.0098 13.1163 10.0635 11.9531 10.0635H9.77316C9.44653 8.46063 8.02594 7.25098 6.32812 7.25098C4.63031 7.25098 3.20972 8.46063 2.88309 10.0635H2.10938C0.946219 10.0635 0 11.0098 0 12.1729C0 13.3359 0.946312 14.2822 2.10938 14.2822H8.4375V12.876H2.10938C1.72162 12.876 1.40625 12.5606 1.40625 12.1729C1.40625 11.7851 1.72172 11.4697 2.10938 11.4697H4.21875V10.7666C4.21875 9.60354 5.16506 8.65723 6.32812 8.65723C7.49119 8.65723 8.4375 9.60354 8.4375 10.7666V11.4697H11.9531C12.3408 11.4697 12.6562 11.7851 12.6562 12.1729C12.6562 12.5606 12.3408 12.876 11.9531 12.876Z" fill="#1447D4"/>
<path d="M45.8906 21.9843H45.1168C44.7901 20.3816 43.3696 19.1719 41.6719 19.1719C39.9742 19.1719 38.5537 20.3816 38.2269 21.9843H38.1562C36.9932 21.9843 36.0469 22.9306 36.0469 24.0938C36.0469 25.2568 36.9932 26.203 38.1562 26.203H41.3203V24.7968H38.1562C37.7685 24.7968 37.4531 24.4814 37.4531 24.0938C37.4531 23.706 37.7685 23.3905 38.1562 23.3905H39.5625V22.6874C39.5625 21.5243 40.5088 20.5781 41.6719 20.5781C42.8349 20.5781 43.7812 21.5243 43.7812 22.6874V23.3905H45.8906C46.2784 23.3905 46.5938 23.7059 46.5938 24.0937C46.5938 24.4814 46.2784 24.7968 45.8906 24.7968H42.7266V26.203H45.8906C47.0537 26.203 48 25.2567 48 24.0937C48 22.9306 47.0537 21.9843 45.8906 21.9843Z" fill="#1447D4"/>
</g>
<defs>
<clipPath id="clip0_10051_39656">
<rect width="48" height="48" fill="white"/>
</clipPath>
</defs>
</svg>
