<svg width="24" height="24" viewBox="0 0 24 24" fill="none" xmlns="http://www.w3.org/2000/svg">
<mask id="mask0_9177_19871" style="mask-type:alpha" maskUnits="userSpaceOnUse" x="0" y="0" width="24" height="24">
<rect width="24" height="24" fill="#D9D9D9"/>
</mask>
<g mask="url(#mask0_9177_19871)">
<path d="M9.35125 21.5002C8.54525 21.5002 7.87308 21.2312 7.33475 20.6932C6.79625 20.1552 6.527 19.4818 6.527 18.673C6.527 18.4548 6.52567 18.2382 6.523 18.023C6.5205 17.8078 6.48167 17.6647 6.4065 17.5937C6.3355 17.5186 6.19242 17.4765 5.97725 17.4675C5.76208 17.4585 5.54542 17.454 5.32725 17.454C4.51842 17.454 3.845 17.188 3.307 16.656C2.769 16.124 2.5 15.4539 2.5 14.6457C2.5 13.8376 2.769 13.1643 3.307 12.626C3.845 12.0875 4.51958 11.8182 5.33075 11.8182C5.75808 11.8182 6.13733 11.8884 6.4685 12.0287C6.79967 12.1692 7.06233 12.3234 7.2565 12.4912C7.3505 12.5617 7.45675 12.597 7.57525 12.597C7.69392 12.597 7.79275 12.5553 7.87175 12.472L12.4332 7.91049C12.5166 7.83149 12.5647 7.72683 12.5775 7.59649C12.5903 7.46616 12.5615 7.35291 12.491 7.25674C12.3363 7.05624 12.1855 6.79199 12.0385 6.46399C11.8915 6.13599 11.818 5.75833 11.818 5.33099C11.818 4.51983 12.087 3.84524 12.625 3.30724C13.163 2.76924 13.8376 2.50024 14.6487 2.50024C15.4548 2.50024 16.1269 2.76924 16.6652 3.30724C17.2037 3.84524 17.473 4.51866 17.473 5.32749C17.473 5.54566 17.4743 5.76233 17.477 5.97749C17.4795 6.19266 17.5183 6.33574 17.5935 6.40674C17.6645 6.48191 17.8076 6.52074 18.0227 6.52324C18.2379 6.52591 18.4546 6.52724 18.6727 6.52724C19.4816 6.52724 20.155 6.79649 20.693 7.33499C21.231 7.87333 21.5 8.54658 21.5 9.35474C21.5 10.1629 21.231 10.8362 20.693 11.3745C20.155 11.913 19.4804 12.1822 18.6693 12.1822C18.2419 12.1822 17.8642 12.1087 17.5362 11.9617C17.2082 11.8147 16.944 11.6639 16.7435 11.5092C16.6473 11.4451 16.5373 11.4178 16.4135 11.4275C16.2895 11.4372 16.188 11.4837 16.109 11.567L11.5667 16.1092C11.4834 16.1882 11.4353 16.2849 11.4225 16.3992C11.4097 16.5136 11.4321 16.6221 11.4897 16.7247C11.6449 16.9251 11.7991 17.1924 11.9522 17.5267C12.1054 17.8612 12.182 18.2422 12.182 18.6695C12.182 19.4807 11.913 20.1552 11.375 20.6932C10.837 21.2312 10.1624 21.5002 9.35125 21.5002ZM9.3545 20.2335C9.806 20.2335 10.1807 20.0873 10.4787 19.795C10.7767 19.5028 10.9257 19.1277 10.9257 18.6695C10.9257 18.4067 10.8739 18.17 10.7702 17.9595C10.6666 17.749 10.5628 17.5737 10.459 17.4335C10.2022 17.0895 10.0938 16.7149 10.134 16.3097C10.1742 15.9047 10.3534 15.543 10.6717 15.2245L15.214 10.6822C15.5235 10.3627 15.8854 10.1847 16.2997 10.1482C16.7141 10.1119 17.0919 10.2156 17.4333 10.4592C17.5734 10.5631 17.7487 10.6668 17.9592 10.7705C18.1697 10.8742 18.4064 10.926 18.6693 10.926C19.1241 10.926 19.5002 10.7772 19.7975 10.4797C20.0948 10.1824 20.2435 9.80633 20.2435 9.35149C20.2435 8.90216 20.0948 8.52849 19.7975 8.23049C19.5002 7.93249 19.1241 7.78349 18.6693 7.78349C18.2116 7.78349 17.8202 7.75574 17.4952 7.70024C17.1702 7.64474 16.9047 7.51183 16.6988 7.30149C16.4884 7.09549 16.3555 6.82999 16.3 6.50499C16.2445 6.17999 16.2167 5.78866 16.2167 5.33099C16.2167 4.87616 16.0677 4.50008 15.7697 4.20274C15.4717 3.90541 15.097 3.75674 14.6455 3.75674C14.194 3.75674 13.8192 3.90541 13.5212 4.20274C13.2232 4.50008 13.0742 4.87616 13.0742 5.33099C13.0742 5.59499 13.1253 5.83199 13.2273 6.04199C13.3293 6.25183 13.4338 6.42683 13.541 6.56699C13.7978 6.91099 13.9062 7.28558 13.866 7.69074C13.8258 8.09574 13.6466 8.45749 13.3282 8.77599L8.79225 13.3182C8.47842 13.6382 8.11442 13.8163 7.70025 13.8525C7.28592 13.8887 6.90808 13.7849 6.56675 13.5412C6.42658 13.4374 6.25125 13.3337 6.04075 13.23C5.83025 13.1263 5.59358 13.0745 5.33075 13.0745C4.87258 13.0745 4.49742 13.2232 4.20525 13.5207C3.91292 13.8181 3.76675 14.1942 3.76675 14.649C3.76675 15.0983 3.91292 15.4688 4.20525 15.7605C4.49742 16.052 4.87258 16.1977 5.33075 16.1977C5.78842 16.1977 6.17975 16.2287 6.50475 16.2907C6.82975 16.3526 7.09525 16.4887 7.30125 16.699C7.51158 16.905 7.6445 17.1737 7.7 17.505C7.7555 17.8365 7.78325 18.2311 7.78325 18.6887C7.78325 19.1469 7.93225 19.5189 8.23025 19.8047C8.52825 20.0906 8.903 20.2335 9.3545 20.2335Z" fill="#464646"/>
</g>
</svg>
