<svg width="51" height="51" viewBox="0 0 51 51" fill="none" xmlns="http://www.w3.org/2000/svg">
<rect x="0.5" y="0.5" width="49.9999" height="50" rx="5.5" fill="#F9F9F8" stroke="#E8E8E7"/>
<mask id="mask0_10056_40774" style="mask-type:alpha" maskUnits="userSpaceOnUse" x="14" y="14" width="24" height="24">
<rect x="14" y="14" width="24" height="24" fill="#D9D9D9"/>
</mask>
<g mask="url(#mask0_10056_40774)">
<path d="M25 27H20C19.7167 27 19.4792 26.9042 19.2875 26.7125C19.0958 26.5208 19 26.2833 19 26C19 25.7167 19.0958 25.4792 19.2875 25.2875C19.4792 25.0958 19.7167 25 20 25H25V20C25 19.7167 25.0958 19.4792 25.2875 19.2875C25.4792 19.0958 25.7167 19 26 19C26.2833 19 26.5208 19.0958 26.7125 19.2875C26.9042 19.4792 27 19.7167 27 20V25H32C32.2833 25 32.5208 25.0958 32.7125 25.2875C32.9042 25.4792 33 25.7167 33 26C33 26.2833 32.9042 26.5208 32.7125 26.7125C32.5208 26.9042 32.2833 27 32 27H27V32C27 32.2833 26.9042 32.5208 26.7125 32.7125C26.5208 32.9042 26.2833 33 26 33C25.7167 33 25.4792 32.9042 25.2875 32.7125C25.0958 32.5208 25 32.2833 25 32V27Z" fill="#1E1D1D"/>
</g>
</svg>
