<svg preserveAspectRatio="none" width="100%" height="100%" overflow="visible" style="display: block;" viewBox="0 0 24 24" fill="none" xmlns="http://www.w3.org/2000/svg">
<g id="pool">
<mask id="mask0_9957_22123" style="mask-type:alpha" maskUnits="userSpaceOnUse" x="0" y="0" width="24" height="24">
<rect id="Bounding box" width="24" height="24" fill="var(--fill-0, #D9D9D9)"/>
</mask>
<g mask="url(#mask0_9957_22123)">
<path id="pool_2" d="M12 19.723C11.3735 19.723 10.8478 19.8941 10.423 20.2365C9.99833 20.5788 9.40133 20.75 8.632 20.75C7.86283 20.75 7.26417 20.5788 6.836 20.2365C6.40767 19.8941 5.88025 19.723 5.25375 19.723C4.75808 19.723 4.34442 19.8278 4.01275 20.0375C3.68125 20.2471 3.31483 20.4241 2.9135 20.5685C2.75583 20.6335 2.60583 20.613 2.4635 20.507C2.32117 20.401 2.25 20.254 2.25 20.066C2.25 19.8758 2.31358 19.7085 2.44075 19.564C2.56792 19.4196 2.724 19.3103 2.909 19.236C3.24317 19.0966 3.567 18.9319 3.8805 18.7417C4.194 18.5516 4.65175 18.4565 5.25375 18.4565C6.02908 18.4565 6.63083 18.6293 7.059 18.975C7.48717 19.3206 8.02733 19.4935 8.6795 19.4935C9.33583 19.4935 9.85958 19.3206 10.2508 18.975C10.6418 18.6293 11.2248 18.4565 12 18.4565C12.7752 18.4565 13.3801 18.6293 13.8148 18.975C14.2494 19.3206 14.7927 19.4935 15.4447 19.4935C16.1013 19.4935 16.6246 19.3206 17.0148 18.975C17.4049 18.6293 17.9855 18.4565 18.7565 18.4565C19.3585 18.4565 19.8163 18.5516 20.1298 18.7417C20.4433 18.9319 20.7637 19.0966 21.091 19.236C21.276 19.3103 21.4321 19.4196 21.5593 19.564C21.6864 19.7085 21.75 19.8758 21.75 20.066C21.75 20.254 21.6788 20.401 21.5365 20.507C21.3942 20.613 21.2442 20.6335 21.0865 20.5685C20.6852 20.4241 20.3233 20.2471 20.0008 20.0375C19.6781 19.8278 19.2633 19.723 18.7565 19.723C18.13 19.723 17.6138 19.8941 17.2078 20.2365C16.8018 20.5788 16.2141 20.75 15.4447 20.75C14.6756 20.75 14.0658 20.5788 13.6155 20.2365C13.165 19.8941 12.6265 19.723 12 19.723ZM12 15.1282C11.3667 15.1282 10.8488 15.2994 10.4463 15.6417C10.0436 15.9839 9.45467 16.155 8.6795 16.155C7.90433 16.155 7.29625 15.9839 6.85525 15.6417C6.41408 15.2994 5.88025 15.1282 5.25375 15.1282C4.74692 15.1282 4.32708 15.2347 3.99425 15.4477C3.66125 15.6607 3.29417 15.8395 2.893 15.984C2.73533 16.0446 2.58875 16.0213 2.45325 15.914C2.31775 15.8068 2.25 15.6681 2.25 15.498C2.25 15.3105 2.31358 15.149 2.44075 15.0135C2.56792 14.878 2.71842 14.7731 2.89225 14.6987C3.23075 14.5662 3.55842 14.4032 3.87525 14.2097C4.19225 14.0161 4.65175 13.9192 5.25375 13.9192C6.02908 13.9192 6.62267 14.0825 7.0345 14.409C7.4465 14.7355 7.979 14.8987 8.632 14.8987C9.2885 14.8987 9.82017 14.7355 10.227 14.409C10.6338 14.0825 11.2248 13.9192 12 13.9192C12.7752 13.9192 13.3679 14.0825 13.7783 14.409C14.1884 14.7355 14.7218 14.8987 15.3783 14.8987C16.0346 14.8987 16.569 14.7355 16.9815 14.409C17.3938 14.0825 17.9855 13.9192 18.7565 13.9192C19.3628 13.9192 19.8234 14.0161 20.1383 14.2097C20.4529 14.4032 20.7795 14.5662 21.118 14.6987C21.2918 14.7731 21.4407 14.878 21.5645 15.0135C21.6882 15.149 21.75 15.3105 21.75 15.498C21.75 15.6681 21.684 15.8068 21.552 15.914C21.4198 16.0213 21.2771 16.0446 21.1238 15.984C20.7183 15.8395 20.349 15.6607 20.016 15.4477C19.6832 15.2347 19.2633 15.1282 18.7565 15.1282C18.13 15.1282 17.6153 15.2994 17.2123 15.6417C16.8093 15.9839 16.2201 16.155 15.4447 16.155C14.6764 16.155 14.0668 15.9839 13.616 15.6417C13.1652 15.2994 12.6265 15.1282 12 15.1282ZM7.491 11.136L10.7885 7.83848L9.35 6.39998C8.89617 5.94615 8.4435 5.6144 7.992 5.40473C7.5405 5.19506 6.99975 5.05415 6.36975 4.98198C6.13175 4.95248 5.92842 4.85306 5.75975 4.68373C5.59092 4.51423 5.5065 4.31048 5.5065 4.07248C5.5065 3.83531 5.59017 3.63881 5.7575 3.48298C5.92467 3.32731 6.12733 3.2629 6.3655 3.28973C7.23333 3.36873 7.97942 3.5489 8.60375 3.83023C9.22825 4.1114 9.84408 4.55556 10.4513 5.16273L16.5255 11.2372C16.3687 11.3641 16.1942 11.4592 16.002 11.5227C15.8097 11.5862 15.6049 11.618 15.3878 11.618C14.8511 11.618 14.3604 11.4468 13.9158 11.1045C13.4711 10.7621 12.8325 10.591 12 10.591C11.1675 10.591 10.5318 10.7621 10.0928 11.1045C9.65358 11.4468 9.1635 11.618 8.6225 11.618C8.38067 11.618 8.16467 11.5738 7.9745 11.4855C7.78433 11.3973 7.62317 11.2808 7.491 11.136ZM16.5653 3.38323C17.1939 3.38323 17.7261 3.6009 18.1618 4.03623C18.5974 4.4714 18.8153 5.00165 18.8153 5.62698C18.8153 6.25565 18.5974 6.78781 18.1618 7.22348C17.7261 7.65915 17.1939 7.87698 16.5653 7.87698C15.9368 7.87698 15.4057 7.65915 14.972 7.22348C14.5385 6.78781 14.3218 6.25565 14.3218 5.62698C14.3218 5.00165 14.5385 4.4714 14.972 4.03623C15.4057 3.6009 15.9368 3.38323 16.5653 3.38323Z" fill="var(--fill-0, #464646)"/>
</g>
</g>
</svg>
