<svg width="20" height="20" viewBox="0 0 20 20" fill="none" xmlns="http://www.w3.org/2000/svg">
<mask id="mask0_9348_9206" style="mask-type:alpha" maskUnits="userSpaceOnUse" x="0" y="0" width="20" height="20">
<rect width="20" height="20" fill="#D9D9D9"/>
</mask>
<g mask="url(#mask0_9348_9206)">
<path d="M9.99524 11.0618L6.57858 14.4785C6.4258 14.6313 6.25219 14.7042 6.05774 14.6973C5.8633 14.6903 5.68969 14.6105 5.53691 14.4577C5.38413 14.3049 5.30774 14.1278 5.30774 13.9264C5.30774 13.725 5.38413 13.548 5.53691 13.3952L8.93274 9.99935L5.51608 6.58268C5.3633 6.4299 5.29038 6.25282 5.29733 6.05143C5.30427 5.85004 5.38413 5.67296 5.53691 5.52018C5.68969 5.3674 5.86677 5.29102 6.06816 5.29102C6.26955 5.29102 6.44663 5.3674 6.59941 5.52018L9.99524 8.93685L13.4119 5.52018C13.5647 5.3674 13.7418 5.29102 13.9432 5.29102C14.1446 5.29102 14.3216 5.3674 14.4744 5.52018C14.6272 5.67296 14.7036 5.85004 14.7036 6.05143C14.7036 6.25282 14.6272 6.4299 14.4744 6.58268L11.0577 9.99935L14.4744 13.416C14.6272 13.5688 14.7036 13.7424 14.7036 13.9368C14.7036 14.1313 14.6272 14.3049 14.4744 14.4577C14.3216 14.6105 14.1446 14.6868 13.9432 14.6868C13.7418 14.6868 13.5647 14.6105 13.4119 14.4577L9.99524 11.0618Z" fill="#ED0707"/>
</g>
</svg>
