<svg preserveAspectRatio="none" width="100%" height="100%" overflow="visible" style="display: block;" viewBox="0 0 19.2 19.2" fill="none" xmlns="http://www.w3.org/2000/svg">
<g id="remove">
<mask id="mask0_9972_22816" style="mask-type:alpha" maskUnits="userSpaceOnUse" x="0" y="0" width="20" height="20">
<rect id="Bounding box" x="9.76562e-05" y="-2.44141e-05" width="19.2" height="19.2" fill="var(--fill-0, #D9D9D9)"/>
</mask>
<g mask="url(#mask0_9972_22816)">
<path id="remove_2" d="M4.8001 10.4C4.57343 10.4 4.38343 10.3233 4.2301 10.17C4.07676 10.0166 4.0001 9.82664 4.0001 9.59998C4.0001 9.37331 4.07676 9.18331 4.2301 9.02998C4.38343 8.87664 4.57343 8.79998 4.8001 8.79998H14.4001C14.6268 8.79998 14.8168 8.87664 14.9701 9.02998C15.1234 9.18331 15.2001 9.37331 15.2001 9.59998C15.2001 9.82664 15.1234 10.0166 14.9701 10.17C14.8168 10.3233 14.6268 10.4 14.4001 10.4H4.8001Z" fill="var(--fill-0, #1447D4)"/>
</g>
</g>
</svg>
