<svg width="18" height="18" viewBox="0 0 18 18" fill="none" xmlns="http://www.w3.org/2000/svg">
<mask id="mask0_10147_33912" style="mask-type:alpha" maskUnits="userSpaceOnUse" x="0" y="0" width="18" height="18">
<rect width="18" height="18" fill="#D9D9D9"/>
</mask>
<g mask="url(#mask0_10147_33912)">
<path d="M9.67505 8.43633V5.17383C9.67505 4.98258 9.61074 4.82227 9.48211 4.69289C9.35349 4.56352 9.19411 4.49883 9.00399 4.49883C8.81386 4.49883 8.65317 4.56352 8.52192 4.69289C8.39067 4.82227 8.32505 4.98258 8.32505 5.17383V8.71758C8.32505 8.81758 8.3438 8.9082 8.3813 8.98945C8.4188 9.0707 8.4688 9.14258 8.5313 9.20508L11.041 11.7148C11.1804 11.8541 11.3407 11.9207 11.5219 11.9145C11.7032 11.9082 11.8625 11.8363 12 11.6988C12.1375 11.5613 12.2063 11.402 12.2063 11.2207C12.2063 11.0395 12.1354 10.8785 11.9937 10.7379L9.67505 8.43633ZM9.00005 16.1988C8.0078 16.1988 7.07536 16.0113 6.20274 15.6363C5.33011 15.2613 4.56567 14.7457 3.90942 14.0895C3.25317 13.4332 2.73755 12.6678 2.36255 11.7933C1.98755 10.9188 1.80005 9.98445 1.80005 8.9902C1.80005 7.99595 1.98755 7.06133 2.36255 6.18633C2.73755 5.31133 3.25317 4.54883 3.90942 3.89883C4.56567 3.24883 5.33105 2.73633 6.20555 2.36133C7.08005 1.98633 8.01442 1.79883 9.00867 1.79883C10.0029 1.79883 10.9376 1.98783 11.8127 2.36583C12.6877 2.74383 13.4489 3.25683 14.0963 3.90483C14.7435 4.55283 15.256 5.31483 15.6336 6.19083C16.0112 7.06683 16.2 8.00283 16.2 8.99883C16.2 9.99108 16.0125 10.9235 15.6375 11.7961C15.2625 12.6688 14.75 13.4332 14.1 14.0895C13.45 14.7457 12.6867 15.2613 11.8101 15.6363C10.9335 16.0113 9.9968 16.1988 9.00005 16.1988ZM9.00905 14.8488C10.6274 14.8488 12.0055 14.277 13.1434 13.1332C14.2812 11.9895 14.85 10.6083 14.85 8.98983C14.85 7.37145 14.2812 5.99333 13.1434 4.85545C12.0055 3.7177 10.6274 3.14883 9.00905 3.14883C7.39055 3.14883 6.00942 3.7177 4.86567 4.85545C3.72192 5.99333 3.15005 7.37145 3.15005 8.98983C3.15005 10.6083 3.72192 11.9895 4.86567 13.1332C6.00942 14.277 7.39055 14.8488 9.00905 14.8488Z" fill="#1E1D1D"/>
</g>
</svg>
