<svg preserveAspectRatio="none" width="100%" height="100%" overflow="visible" style="display: block;" viewBox="0 0 18 18" fill="none" xmlns="http://www.w3.org/2000/svg">
<g id="search">
<mask id="mask0_9969_22338" style="mask-type:alpha" maskUnits="userSpaceOnUse" x="0" y="0" width="18" height="18">
<rect id="Bounding box" width="18" height="18" fill="var(--fill-0, #D9D9D9)"/>
</mask>
<g mask="url(#mask0_9969_22338)">
<path id="search_2" d="M7.20056 11.7C5.95019 11.7 4.8875 11.2625 4.0125 10.3875C3.1375 9.5125 2.7 8.45 2.7 7.2C2.7 5.95 3.1375 4.8875 4.0125 4.0125C4.8875 3.1375 5.95 2.7 7.2 2.7C8.45 2.7 9.5125 3.1375 10.3875 4.0125C11.2625 4.8875 11.7 5.95019 11.7 7.20056C11.7 7.70544 11.6219 8.18156 11.4656 8.62894C11.3094 9.07631 11.0938 9.4875 10.8188 9.8625L14.8313 13.875C14.9688 14.0125 15.0375 14.1688 15.0375 14.3438C15.0375 14.5188 14.9688 14.675 14.8313 14.8125C14.6938 14.95 14.5344 15.0188 14.3531 15.0188C14.1719 15.0188 14.0125 14.95 13.875 14.8125L9.8625 10.8188C9.4875 11.0938 9.07631 11.3094 8.62894 11.4656C8.18156 11.6219 7.70544 11.7 7.20056 11.7ZM7.2 10.35C8.075 10.35 8.81875 10.0438 9.43125 9.43125C10.0438 8.81875 10.35 8.075 10.35 7.2C10.35 6.325 10.0438 5.58125 9.43125 4.96875C4.35625 5.58125 4.05 6.325 4.05 7.2C4.05 8.075 4.35625 8.81875 4.96875 9.43125C5.58125 10.0438 6.325 10.35 7.2 10.35Z" fill="var(--fill-0, #1E1D1D)"/>
</g>
</g>
</svg>
