<svg width="17" height="17" viewBox="0 0 17 17" fill="none" xmlns="http://www.w3.org/2000/svg">
<g clip-path="url(#clip0_10026_8213)">
<path fill-rule="evenodd" clip-rule="evenodd" d="M16.9499 1.02974C17.0022 0.892854 17.0138 0.743741 16.9833 0.600412C16.9527 0.457083 16.8813 0.325669 16.7777 0.222041C16.674 0.118414 16.5426 0.047006 16.3993 0.0164431C16.256 -0.0141197 16.1069 -0.0025305 15.97 0.049811L0.487833 5.96945C0.346689 6.02321 0.224794 6.11786 0.137747 6.24129C0.0507002 6.36471 0.00246022 6.5113 -0.000799695 6.6623C-0.00405961 6.8133 0.0378088 6.96184 0.119448 7.08891C0.201087 7.21598 0.318783 7.3158 0.457476 7.3756L6.8604 10.1393L9.62412 16.5422C9.68392 16.6809 9.78374 16.7986 9.91081 16.8803C10.0379 16.9619 10.1864 17.0038 10.3374 17.0005C10.4884 16.9973 10.635 16.949 10.7584 16.862C10.8819 16.7749 10.9765 16.653 11.0303 16.5119L16.9499 1.02974ZM7.11419 8.59717L2.77312 6.7211L14.9269 2.07403L10.2798 14.2278L8.40255 9.88431L11.42 6.86681C11.5809 6.69417 11.6685 6.46583 11.6643 6.22989C11.6602 5.99395 11.5646 5.76884 11.3977 5.60198C11.2309 5.43513 11.0058 5.33955 10.7698 5.33538C10.5339 5.33122 10.3055 5.4188 10.1329 5.57967L7.11419 8.59717Z" fill="#F9F9F8"/>
</g>
<defs>
<clipPath id="clip0_10026_8213">
<rect width="17" height="17" fill="white"/>
</clipPath>
</defs>
</svg>
