<svg preserveAspectRatio="none" width="100%" height="100%" overflow="visible" style="display: block;" viewBox="0 0 25 25" fill="none" xmlns="http://www.w3.org/2000/svg">
<g id="share">
<mask id="mask0_9957_22093" style="mask-type:alpha" maskUnits="userSpaceOnUse" x="0" y="0" width="25" height="25">
<rect id="Bounding box" width="25" height="25" fill="var(--fill-0, #D9D9D9)"/>
</mask>
<g mask="url(#mask0_9957_22093)">
<path id="share_2" d="M17.7083 22.9167C16.8403 22.9167 16.1024 22.6128 15.4948 22.0052C14.8872 21.3976 14.5833 20.6597 14.5833 19.7917C14.5833 19.6875 14.6094 19.4444 14.6615 19.0625L7.34375 14.7917C7.06597 15.0521 6.74479 15.2561 6.38021 15.4036C6.01562 15.5512 5.625 15.625 5.20833 15.625C4.34028 15.625 3.60243 15.3212 2.99479 14.7135C2.38715 14.1059 2.08333 13.3681 2.08333 12.5C2.08333 11.6319 2.38715 10.8941 2.99479 10.2865C3.60243 9.67882 4.34028 9.375 5.20833 9.375C5.625 9.375 6.01562 9.44879 6.38021 9.59635C6.74479 9.74392 7.06597 9.94792 7.34375 10.2083L14.6615 5.9375C14.6267 5.81597 14.605 5.69878 14.5964 5.58594C14.5877 5.47309 14.5833 5.34722 14.5833 5.20833C14.5833 4.34028 14.8872 3.60243 15.4948 2.99479C16.1024 2.38715 16.8403 2.08333 17.7083 2.08333C18.5764 2.08333 19.3142 2.38715 19.9219 2.99479C20.5295 3.60243 20.8333 4.34028 20.8333 5.20833C20.8333 6.07639 20.5295 6.81424 19.9219 7.42188C19.3142 8.02951 18.5764 8.33333 17.7083 8.33333C17.2917 8.33333 16.901 8.25955 16.5365 8.11198C16.1719 7.96441 15.8507 7.76042 15.5729 7.5L8.25521 11.7708C8.28993 11.8924 8.31163 12.0095 8.32031 12.1224C8.32899 12.2352 8.33333 12.3611 8.33333 12.5C8.33333 12.6389 8.32899 12.7648 8.32031 12.8776C8.31163 12.9905 8.28993 13.1076 8.25521 13.2292L15.5729 17.5C15.8507 17.2396 16.1719 17.0356 16.5365 16.888C16.901 16.7405 17.2917 16.6667 17.7083 16.6667C18.5764 16.6667 19.3142 16.9705 19.9219 17.5781C20.5295 18.1858 20.8333 18.9236 20.8333 19.7917C20.8333 20.6597 20.5295 21.3976 19.9219 22.0052C19.3142 22.6128 18.5764 22.9167 17.7083 22.9167ZM17.7083 20.8333C18.0035 20.8333 18.2509 20.7335 18.4505 20.5339C18.6502 20.3342 18.75 20.0868 18.75 19.7917C18.75 19.4965 18.6502 19.2491 18.4505 19.0495C18.2509 18.8498 18.0035 18.75 17.7083 18.75C17.4132 18.75 17.1658 18.8498 16.9661 19.0495C16.7665 19.2491 16.6667 19.4965 16.6667 19.7917C16.6667 20.0868 16.7665 20.3342 16.9661 20.5339C17.1658 20.7335 17.4132 20.8333 17.7083 20.8333ZM5.20833 13.5417C5.50347 13.5417 5.75087 13.4418 5.95052 13.2422C6.15017 13.0425 6.25 12.7951 6.25 12.5C6.25 12.2049 6.15017 11.9575 5.95052 11.7578C5.75087 11.5582 5.50347 11.4583 5.20833 11.4583C4.91319 11.4583 4.6658 11.5582 4.46615 11.7578C4.26649 11.9575 4.16667 12.2049 4.16667 12.5C4.16667 12.7951 4.26649 13.0425 4.46615 13.2422C4.6658 13.4418 4.91319 13.5417 5.20833 13.5417ZM17.7083 6.25C18.0035 6.25 18.2509 6.15017 18.4505 5.95052C18.6502 5.75087 18.75 5.50347 18.75 5.20833C18.75 4.91319 18.6502 4.6658 18.4505 4.46615C18.2509 4.26649 18.0035 4.16667 17.7083 4.16667C17.4132 4.16667 17.1658 4.26649 16.9661 4.46615C16.7665 4.6658 16.6667 4.91319 16.6667 5.20833C16.6667 5.50347 16.7665 5.75087 16.9661 5.95052C17.1658 6.15017 17.4132 6.25 17.7083 6.25Z" fill="var(--fill-0, #464646)"/>
</g>
</g>
</svg>
