<svg width="18" height="18" viewBox="0 0 18 18" fill="none" xmlns="http://www.w3.org/2000/svg">
<mask id="mask0_10155_39531" style="mask-type:alpha" maskUnits="userSpaceOnUse" x="0" y="0" width="18" height="18">
<rect width="18" height="18" fill="#D9D9D9"/>
</mask>
<g mask="url(#mask0_10155_39531)">
<path d="M9.00001 12.9566L5.88751 14.8316C5.75001 14.9191 5.60626 14.9566 5.45626 14.9441C5.30626 14.9316 5.17501 14.8816 5.06251 14.7941C4.95001 14.7066 4.86251 14.5973 4.80001 14.466C4.73751 14.3348 4.72501 14.1879 4.76251 14.0254L5.58751 10.4816L2.83126 8.10039C2.70626 7.98789 2.62814 7.85977 2.59689 7.71602C2.56564 7.57227 2.57501 7.43164 2.62501 7.29414C2.67501 7.15664 2.75001 7.04414 2.85001 6.95664C2.95001 6.86914 3.08751 6.81289 3.26251 6.78789L6.90001 6.46914L8.30626 3.13164C8.36876 2.98164 8.46564 2.86914 8.59689 2.79414C8.72814 2.71914 8.86251 2.68164 9.00001 2.68164C9.13751 2.68164 9.27189 2.71914 9.40314 2.79414C9.53439 2.86914 9.63126 2.98164 9.69376 3.13164L11.1 6.46914L14.7375 6.78789C14.9125 6.81289 15.05 6.86914 15.15 6.95664C15.25 7.04414 15.325 7.15664 15.375 7.29414C15.425 7.43164 15.4344 7.57227 15.4031 7.71602C15.3719 7.85977 15.2938 7.98789 15.1688 8.10039L12.4125 10.4816L13.2375 14.0254C13.275 14.1879 13.2625 14.3348 13.2 14.466C13.1375 14.5973 13.05 14.7066 12.9375 14.7941C12.825 14.8816 12.6938 14.9316 12.5438 14.9441C12.3938 14.9566 12.25 14.9191 12.1125 14.8316L9.00001 12.9566Z" fill="#1E1D1D"/>
</g>
</svg>
