<svg width="28" height="28" viewBox="0 0 28 28" fill="none" xmlns="http://www.w3.org/2000/svg">
<mask id="mask0_9348_9273" style="mask-type:alpha" maskUnits="userSpaceOnUse" x="0" y="0" width="28" height="28">
<rect width="28" height="28" fill="#D9D9D9"/>
</mask>
<g mask="url(#mask0_9348_9273)">
<path d="M12.3654 19.3666L20.5904 11.1416L18.957 9.50825L12.3654 16.0999L9.04037 12.7749L7.40703 14.4083L12.3654 19.3666ZM13.9987 25.6666C12.3848 25.6666 10.8681 25.3603 9.4487 24.7478C8.02925 24.1353 6.79453 23.3041 5.74453 22.2541C4.69453 21.2041 3.86328 19.9694 3.25078 18.5499C2.63828 17.1305 2.33203 15.6138 2.33203 13.9999C2.33203 12.386 2.63828 10.8694 3.25078 9.44992C3.86328 8.03047 4.69453 6.79575 5.74453 5.74575C6.79453 4.69575 8.02925 3.8645 9.4487 3.252C10.8681 2.6395 12.3848 2.33325 13.9987 2.33325C15.6126 2.33325 17.1293 2.6395 18.5487 3.252C19.9681 3.8645 21.2029 4.69575 22.2529 5.74575C23.3029 6.79575 24.1341 8.03047 24.7466 9.44992C25.3591 10.8694 25.6654 12.386 25.6654 13.9999C25.6654 15.6138 25.3591 17.1305 24.7466 18.5499C24.1341 19.9694 23.3029 21.2041 22.2529 22.2541C21.2029 23.3041 19.9681 24.1353 18.5487 24.7478C17.1293 25.3603 15.6126 25.6666 13.9987 25.6666Z" fill="#1447D4"/>
</g>
</svg>
