<svg preserveAspectRatio="none" width="100%" height="100%" overflow="visible" style="display: block;" viewBox="0 0 18 18" fill="none" xmlns="http://www.w3.org/2000/svg">
<g id="speed">
<mask id="mask0_9969_22354" style="mask-type:alpha" maskUnits="userSpaceOnUse" x="0" y="0" width="18" height="18">
<rect id="Bounding box" width="18" height="18" fill="var(--fill-0, #D9D9D9)"/>
</mask>
<g mask="url(#mask0_9969_22354)">
<path id="speed_2" d="M8.04355 11.2871C8.33105 11.5621 8.6873 11.6902 9.1123 11.6715C9.5373 11.6527 9.8498 11.4934 10.0498 11.1934L12.9936 6.82461C13.0936 6.67461 13.0779 6.53398 12.9467 6.40273C12.8154 6.27148 12.6748 6.25586 12.5248 6.35586L8.1538 9.3043C7.8428 9.51367 7.6748 9.82773 7.6498 10.2465C7.6248 10.6652 7.75605 11.0121 8.04355 11.2871ZM9.01856 3.59961C9.49356 3.59961 9.9373 3.64023 10.3498 3.72148C10.7623 3.80273 11.1496 3.9118 11.5116 4.04867C11.6871 4.1118 11.7967 4.2293 11.8404 4.40117C11.8842 4.57305 11.8561 4.73711 11.7561 4.89336C11.6436 5.05586 11.4967 5.16523 11.3154 5.22148C11.1342 5.27773 10.9525 5.27586 10.7704 5.21586C10.5025 5.12586 10.2248 5.05898 9.9373 5.01523C9.6498 4.97148 9.34662 4.94961 9.02774 4.94961C7.39662 4.94961 6.00918 5.53398 4.86543 6.70273C3.72168 7.87148 3.1498 9.23711 3.1498 10.7996C3.1498 11.2746 3.18418 11.6652 3.25293 11.9715C3.32168 12.2777 3.43105 12.6371 3.58105 13.0496H14.3998C14.5623 12.6371 14.6779 12.259 14.7467 11.9152C14.8154 11.5715 14.8498 11.1996 14.8498 10.7996C14.8498 10.3996 14.8061 9.99023 14.7186 9.57148C14.6311 9.15273 14.4998 8.75586 14.3248 8.38086C14.2373 8.20586 14.2123 8.02461 14.2498 7.83711C14.2873 7.64961 14.3871 7.49692 14.5491 7.37905C14.6996 7.27192 14.8654 7.24023 15.0467 7.28398C15.2279 7.32773 15.3623 7.43711 15.4498 7.61211C15.6998 8.09961 15.8873 8.60898 16.0123 9.14023C16.1373 9.67148 16.1998 10.2121 16.1998 10.7621C16.1998 11.3996 16.1467 11.9559 16.0404 12.4309C15.9342 12.9059 15.7623 13.3434 15.5248 13.7434C15.3998 13.9559 15.2404 14.1184 15.0467 14.2309C14.8529 14.3434 14.6373 14.3996 14.3998 14.3996H3.5998C3.3623 14.3996 3.14668 14.3434 2.95293 14.2309C2.75918 14.1184 2.5998 13.9559 2.4748 13.7434C2.2373 13.3434 2.06543 12.9059 1.95918 12.4309C1.85293 11.9559 1.7998 11.3996 1.7998 10.7621C1.7998 9.76561 1.99043 8.83211 2.37168 7.96161C2.75293 7.09111 3.26855 6.33398 3.91855 5.69023C4.56855 5.04648 5.3338 4.53711 6.2143 4.16211C7.0948 3.78711 8.02956 3.59961 9.01856 3.59961Z" fill="var(--fill-0, #1E1D1D)"/>
</g>
</g>
</svg>
