<svg preserveAspectRatio="none" width="100%" height="100%" overflow="visible" style="display: block;" viewBox="0 0 24 24" fill="none" xmlns="http://www.w3.org/2000/svg">
<g id="speed">
<mask id="mask0_9969_22422" style="mask-type:alpha" maskUnits="userSpaceOnUse" x="0" y="0" width="24" height="24">
<rect id="Bounding box" width="24" height="24" fill="var(--fill-0, #D9D9D9)"/>
</mask>
<g mask="url(#mask0_9969_22422)">
<path id="speed_2" d="M10.7247 15.0495C11.1081 15.4161 11.5831 15.587 12.1497 15.562C12.7164 15.537 13.1331 15.3245 13.3997 14.9245L17.3247 9.09948C17.4581 8.89948 17.4372 8.71198 17.2622 8.53698C17.0872 8.36198 16.8997 8.34115 16.6997 8.47448L10.8717 12.4057C10.4571 12.6849 10.2331 13.1036 10.1997 13.662C10.1664 14.2203 10.3414 14.6828 10.7247 15.0495ZM12.0247 4.79948C12.6581 4.79948 13.2497 4.85365 13.7997 4.96198C14.3497 5.07031 14.8661 5.21573 15.3487 5.39823C15.5827 5.4824 15.7289 5.63906 15.7872 5.86823C15.8456 6.0974 15.8081 6.31615 15.6747 6.52448C15.5247 6.74115 15.3289 6.88698 15.0872 6.96198C14.8456 7.03698 14.6033 7.03448 14.3605 6.95448C14.0033 6.83448 13.6331 6.74531 13.2497 6.68698C12.8664 6.62865 12.4622 6.59948 12.037 6.59948C9.86216 6.59948 8.01224 7.37865 6.48724 8.93698C4.96224 10.4953 4.19974 12.3161 4.19974 14.3995C4.19974 15.0328 4.24557 15.5536 4.33724 15.962C4.42891 16.3703 4.57474 16.8495 4.77474 17.3995H19.1997C19.4164 16.8495 19.5706 16.3453 19.6622 15.887C19.7539 15.4286 19.7997 14.9328 19.7997 14.3995C19.7997 13.8661 19.7414 13.3203 19.6247 12.762C19.5081 12.2036 19.3331 11.6745 19.0997 11.1745C18.9831 10.9411 18.9497 10.6995 18.9997 10.4495C19.0497 10.1995 19.1827 9.9959 19.3987 9.83873C19.5994 9.6959 19.8206 9.65365 20.0622 9.71198C20.3039 9.77031 20.4831 9.91615 20.5997 10.1495C20.9331 10.7995 21.1831 11.4786 21.3497 12.187C21.5164 12.8953 21.5997 13.6161 21.5997 14.3495C21.5997 15.1995 21.5289 15.9411 21.3872 16.5745C21.2456 17.2078 21.0164 17.7911 20.6997 18.3245C20.5331 18.6078 20.3206 18.8245 20.0622 18.9745C19.8039 19.1245 19.5164 19.1995 19.1997 19.1995H4.79974C4.48307 19.1995 4.19557 19.1245 3.93724 18.9745C3.67891 18.8245 3.46641 18.6078 3.29974 18.3245C2.98307 17.7911 2.75391 17.2078 2.61224 16.5745C2.47057 15.9411 2.39974 15.1995 2.39974 14.3495C2.39974 13.0208 2.65391 11.7761 3.16224 10.6155C3.67057 9.45481 4.35807 8.44531 5.22474 7.58698C6.09141 6.72865 7.11174 6.04948 8.28574 5.54948C9.45974 5.04948 10.7061 4.79948 12.0247 4.79948Z" fill="var(--fill-0, #1447D4)"/>
</g>
</g>
</svg>
