<svg preserveAspectRatio="none" width="100%" height="100%" overflow="visible" style="display: block;" viewBox="0 0 21 21" fill="none" xmlns="http://www.w3.org/2000/svg">
<g id="star">
<mask id="mask0_9957_22109" style="mask-type:alpha" maskUnits="userSpaceOnUse" x="0" y="0" width="21" height="21">
<rect id="Bounding box" width="21" height="21" fill="var(--fill-0, #D9D9D9)"/>
</mask>
<g mask="url(#mask0_9957_22109)">
<path id="star_2" d="M10.5 12V13.0593L13.2563 14.7437L12.5344 11.5937L14.9625 9.49371L11.7688 9.20933L10.5 6.23433V9.18746V10V11.5937V12ZM10.5 15.1156L6.86876 17.3031C6.70835 17.4052 6.54064 17.4489 6.36564 17.4343C6.19064 17.4197 6.03751 17.3614 5.90626 17.2593C5.77501 17.1573 5.67293 17.0296 5.60001 16.8765C5.5271 16.7234 5.51251 16.552 5.55626 16.3625L6.51876 12.2281L3.30314 9.44996C3.1573 9.31871 3.06616 9.16923 3.0297 9.00152C2.99324 8.83381 3.00418 8.66975 3.06251 8.50933C3.12085 8.34892 3.20835 8.21767 3.32501 8.11558C3.44168 8.0135 3.6021 7.94787 3.80626 7.91871L8.05001 7.54683L9.69064 3.65308C9.76356 3.47808 9.87658 3.34683 10.0297 3.25933C10.1828 3.17183 10.3396 3.12808 10.5 3.12808C10.6604 3.12808 10.8172 3.17183 10.9703 3.25933C11.1235 3.34683 11.2365 3.47808 11.3094 3.65308L12.95 7.54683L17.1938 7.91871C17.3979 7.94787 17.5583 8.0135 17.675 8.11558C17.7917 8.21767 17.8792 8.34892 17.9375 8.50933C17.9958 8.66975 18.0068 8.83381 17.9703 9.00152C17.9339 9.16923 17.8427 9.31871 17.6969 9.44996L14.4813 12.2281L15.4438 16.3625C15.4875 16.552 15.4729 16.7234 15.4 16.8765C15.3271 17.0296 15.225 17.1573 15.0938 17.2593C14.9625 17.3614 14.8094 17.4197 14.6344 17.4343C14.4594 17.4489 14.2917 17.4052 14.1313 17.3031L10.5 15.1156Z" fill="var(--fill-0, #1447D4)"/>
</g>
</g>
</svg>
