<svg width="21" height="21" viewBox="0 0 21 21" fill="none" xmlns="http://www.w3.org/2000/svg">
<mask id="mask0_10442_36623" style="mask-type:alpha" maskUnits="userSpaceOnUse" x="0" y="0" width="21" height="21">
<rect width="21" height="21" fill="#D9D9D9"/>
</mask>
<g mask="url(#mask0_10442_36623)">
<path d="M10.5001 15.1156L6.86889 17.3031C6.70847 17.4051 6.54076 17.4489 6.36576 17.4343C6.19076 17.4197 6.03764 17.3614 5.90639 17.2593C5.77514 17.1572 5.67305 17.0296 5.60014 16.8765C5.52722 16.7234 5.51264 16.552 5.55639 16.3624L6.51889 12.2281L3.30326 9.44993C3.15743 9.31868 3.06628 9.1692 3.02982 9.00149C2.99336 8.83378 3.0043 8.66972 3.06264 8.5093C3.12097 8.34889 3.20847 8.21764 3.32514 8.11555C3.4418 8.01347 3.60222 7.94784 3.80639 7.91868L8.05014 7.5468L9.69076 3.65305C9.76368 3.47805 9.8767 3.3468 10.0298 3.2593C10.1829 3.1718 10.3397 3.12805 10.5001 3.12805C10.6606 3.12805 10.8173 3.1718 10.9704 3.2593C11.1236 3.3468 11.2366 3.47805 11.3095 3.65305L12.9501 7.5468L17.1939 7.91868C17.3981 7.94784 17.5585 8.01347 17.6751 8.11555C17.7918 8.21764 17.8793 8.34889 17.9376 8.5093C17.996 8.66972 18.0069 8.83378 17.9704 9.00149C17.934 9.1692 17.8428 9.31868 17.697 9.44993L14.4814 12.2281L15.4439 16.3624C15.4876 16.552 15.4731 16.7234 15.4001 16.8765C15.3272 17.0296 15.2251 17.1572 15.0939 17.2593C14.9626 17.3614 14.8095 17.4197 14.6345 17.4343C14.4595 17.4489 14.2918 17.4051 14.1314 17.3031L10.5001 15.1156Z" fill="#1447D4"/>
</g>
</svg>
