<svg width="21" height="21" viewBox="0 0 21 21" fill="none" xmlns="http://www.w3.org/2000/svg">
<mask id="mask0_9226_20076" style="mask-type:alpha" maskUnits="userSpaceOnUse" x="0" y="0" width="21" height="21">
<rect width="21" height="21" fill="#D9D9D9"/>
</mask>
<g mask="url(#mask0_9226_20076)">
<path d="M7.74291 14.7218L10.4992 13.0593L13.2554 14.7437L12.5335 11.5937L14.9617 9.49368L11.7679 9.2093L10.4992 6.2343L9.23041 9.18743L6.03666 9.4718L8.46478 11.5937L7.74291 14.7218ZM10.4992 15.1156L6.86791 17.3031C6.70749 17.4051 6.53978 17.4489 6.36478 17.4343C6.18978 17.4197 6.03666 17.3614 5.90541 17.2593C5.77416 17.1572 5.67208 17.0296 5.59916 16.8765C5.52624 16.7234 5.51166 16.552 5.55541 16.3624L6.51791 12.2281L3.30228 9.44993C3.15645 9.31868 3.0653 9.1692 3.02885 9.00149C2.99239 8.83378 3.00333 8.66972 3.06166 8.5093C3.11999 8.34888 3.20749 8.21763 3.32416 8.11555C3.44083 8.01347 3.60124 7.94784 3.80541 7.91868L8.04916 7.5468L9.68978 3.65305C9.7627 3.47805 9.87572 3.3468 10.0288 3.2593C10.182 3.1718 10.3387 3.12805 10.4992 3.12805C10.6596 3.12805 10.8163 3.1718 10.9695 3.2593C11.1226 3.3468 11.2356 3.47805 11.3085 3.65305L12.9492 7.5468L17.1929 7.91868C17.3971 7.94784 17.5575 8.01347 17.6742 8.11555C17.7908 8.21763 17.8783 8.34888 17.9367 8.5093C17.995 8.66972 18.0059 8.83378 17.9695 9.00149C17.933 9.1692 17.8419 9.31868 17.696 9.44993L14.4804 12.2281L15.4429 16.3624C15.4867 16.552 15.4721 16.7234 15.3992 16.8765C15.3262 17.0296 15.2242 17.1572 15.0929 17.2593C14.9617 17.3614 14.8085 17.4197 14.6335 17.4343C14.4585 17.4489 14.2908 17.4051 14.1304 17.3031L10.4992 15.1156Z" fill="#1447D4"/>
</g>
</svg>
