<svg width="18" height="18" viewBox="0 0 18 18" fill="none" xmlns="http://www.w3.org/2000/svg">
<mask id="mask0_10104_11571" style="mask-type:alpha" maskUnits="userSpaceOnUse" x="0" y="0" width="18" height="18">
<rect width="18" height="18" fill="#D9D9D9"/>
</mask>
<g mask="url(#mask0_10104_11571)">
<path d="M9.00001 12.9557L5.88751 14.8307C5.75001 14.9182 5.60626 14.9557 5.45626 14.9432C5.30626 14.9307 5.17501 14.8807 5.06251 14.7932C4.95001 14.7057 4.86251 14.5963 4.80001 14.465C4.73751 14.3338 4.72501 14.1869 4.76251 14.0244L5.58751 10.4807L2.83126 8.09941C2.70626 7.98691 2.62814 7.85879 2.59689 7.71504C2.56564 7.57129 2.57501 7.43066 2.62501 7.29316C2.67501 7.15566 2.75001 7.04316 2.85001 6.95566C2.95001 6.86816 3.08751 6.81191 3.26251 6.78691L6.90001 6.46816L8.30626 3.13066C8.36876 2.98066 8.46564 2.86816 8.59689 2.79316C8.72814 2.71816 8.86251 2.68066 9.00001 2.68066C9.13751 2.68066 9.27189 2.71816 9.40314 2.79316C9.53439 2.86816 9.63126 2.98066 9.69376 3.13066L11.1 6.46816L14.7375 6.78691C14.9125 6.81191 15.05 6.86816 15.15 6.95566C15.25 7.04316 15.325 7.15566 15.375 7.29316C15.425 7.43066 15.4344 7.57129 15.4031 7.71504C15.3719 7.85879 15.2938 7.98691 15.1688 8.09941L12.4125 10.4807L13.2375 14.0244C13.275 14.1869 13.2625 14.3338 13.2 14.465C13.1375 14.5963 13.05 14.7057 12.9375 14.7932C12.825 14.8807 12.6938 14.9307 12.5438 14.9432C12.3938 14.9557 12.25 14.9182 12.1125 14.8307L9.00001 12.9557Z" fill="#1E1D1D"/>
</g>
</svg>
