<svg width="46" height="46" viewBox="0 0 46 46" fill="none" xmlns="http://www.w3.org/2000/svg">
<rect width="46" height="46" rx="6" fill="#F9F9F8"/>
<mask id="mask0_9211_30834" style="mask-type:alpha" maskUnits="userSpaceOnUse" x="11" y="11" width="24" height="24">
<rect x="11" y="11" width="24" height="24" fill="#D9D9D9"/>
</mask>
<g mask="url(#mask0_9211_30834)">
<path d="M16 31C15.7167 31 15.4792 30.9042 15.2875 30.7125C15.0958 30.5208 15 30.2833 15 30V16C15 15.7167 15.0958 15.4792 15.2875 15.2875C15.4792 15.0958 15.7167 15 16 15C16.2833 15 16.5208 15.0958 16.7125 15.2875C16.9042 15.4792 17 15.7167 17 16V30C17 30.2833 16.9042 30.5208 16.7125 30.7125C16.5208 30.9042 16.2833 31 16 31ZM23 31C22.7167 31 22.4792 30.9042 22.2875 30.7125C22.0958 30.5208 22 30.2833 22 30V28C22 27.7167 22.0958 27.4792 22.2875 27.2875C22.4792 27.0958 22.7167 27 23 27C23.2833 27 23.5208 27.0958 23.7125 27.2875C23.9042 27.4792 24 27.7167 24 28V30C24 30.2833 23.9042 30.5208 23.7125 30.7125C23.5208 30.9042 23.2833 31 23 31ZM30 31C29.7167 31 29.4792 30.9042 29.2875 30.7125C29.0958 30.5208 29 30.2833 29 30V16C29 15.7167 29.0958 15.4792 29.2875 15.2875C29.4792 15.0958 29.7167 15 30 15C30.2833 15 30.5208 15.0958 30.7125 15.2875C30.9042 15.4792 31 15.7167 31 16V30C31 30.2833 30.9042 30.5208 30.7125 30.7125C30.5208 30.9042 30.2833 31 30 31ZM23 25C22.7167 25 22.4792 24.9042 22.2875 24.7125C22.0958 24.5208 22 24.2833 22 24V22C22 21.7167 22.0958 21.4792 22.2875 21.2875C22.4792 21.0958 22.7167 21 23 21C23.2833 21 23.5208 21.0958 23.7125 21.2875C23.9042 21.4792 24 21.7167 24 22V24C24 24.2833 23.9042 24.5208 23.7125 24.7125C23.5208 24.9042 23.2833 25 23 25ZM23 19C22.7167 19 22.4792 18.9042 22.2875 18.7125C22.0958 18.5208 22 18.2833 22 18V16C22 15.7167 22.0958 15.4792 22.2875 15.2875C22.4792 15.0958 22.7167 15 23 15C23.2833 15 23.5208 15.0958 23.7125 15.2875C23.9042 15.4792 24 15.7167 24 16V18C24 18.2833 23.9042 18.5208 23.7125 18.7125C23.5208 18.9042 23.2833 19 23 19Z" fill="#464646"/>
</g>
</svg>
