<svg width="18" height="18" viewBox="0 0 18 18" fill="none" xmlns="http://www.w3.org/2000/svg">
<mask id="mask0_10448_43188" style="mask-type:alpha" maskUnits="userSpaceOnUse" x="0" y="0" width="18" height="18">
<rect width="18" height="18" fill="#D9D9D9"/>
</mask>
<g mask="url(#mask0_10448_43188)">
<path d="M6.21523 9.53594C6.07148 9.39219 5.99961 9.21406 5.99961 9.00156V4.37031L4.59336 5.77656C4.45586 5.91406 4.28398 5.98281 4.07773 5.98281C3.87148 5.98281 3.69336 5.91406 3.54336 5.77656C3.39336 5.62656 3.31836 5.44844 3.31836 5.24219C3.31836 5.03594 3.39336 4.85781 3.54336 4.70781L6.22461 2.02656C6.29961 1.95156 6.38086 1.89844 6.46836 1.86719C6.55586 1.83594 6.64961 1.82031 6.74961 1.82031C6.84961 1.82031 6.94336 1.83594 7.03086 1.86719C7.11836 1.89844 7.19961 1.95156 7.27461 2.02656L9.97461 4.72656C10.1246 4.87656 10.1965 5.05156 10.1902 5.25156C10.184 5.45156 10.1059 5.62656 9.95586 5.77656C9.80586 5.91406 9.63086 5.98594 9.43086 5.99219C9.23086 5.99844 9.05586 5.92656 8.90586 5.77656L7.49961 4.37031V9.00156C7.49961 9.21406 7.42773 9.39219 7.28398 9.53594C7.14023 9.67969 6.96211 9.75156 6.74961 9.75156C6.53711 9.75156 6.35898 9.67969 6.21523 9.53594ZM10.9684 16.1359C10.8809 16.1047 10.7996 16.0516 10.7246 15.9766L8.02461 13.2766C7.87461 13.1266 7.80273 12.9516 7.80898 12.7516C7.81523 12.5516 7.89336 12.3766 8.04336 12.2266C8.19336 12.0891 8.36836 12.0172 8.56836 12.0109C8.76836 12.0047 8.94336 12.0766 9.09336 12.2266L10.4996 13.6328V9.00156C10.4996 8.78906 10.5715 8.61094 10.7152 8.46719C10.859 8.32344 11.0371 8.25156 11.2496 8.25156C11.4621 8.25156 11.6402 8.32344 11.784 8.46719C11.9277 8.61094 11.9996 8.78906 11.9996 9.00156V13.6328L13.4059 12.2266C13.5434 12.0891 13.7152 12.0203 13.9215 12.0203C14.1277 12.0203 14.3059 12.0891 14.4559 12.2266C14.6059 12.3766 14.6809 12.5547 14.6809 12.7609C14.6809 12.9672 14.6059 13.1453 14.4559 13.2953L11.7746 15.9766C11.6996 16.0516 11.6184 16.1047 11.5309 16.1359C11.4434 16.1672 11.3496 16.1828 11.2496 16.1828C11.1496 16.1828 11.0559 16.1672 10.9684 16.1359Z" fill="#1C1B1F"/>
</g>
</svg>
