<svg width="28" height="28" viewBox="0 0 28 28" fill="none" xmlns="http://www.w3.org/2000/svg">
<mask id="mask0_10301_43587" style="mask-type:alpha" maskUnits="userSpaceOnUse" x="0" y="0" width="28" height="28">
<rect width="28" height="28" fill="#D9D9D9"/>
</mask>
<g mask="url(#mask0_10301_43587)">
<path d="M16.975 21.6988C14.8254 21.6988 13.0047 20.9529 11.5128 19.461C10.0209 17.9691 9.275 16.1484 9.275 13.9988C9.275 11.8492 10.0209 10.0285 11.5128 8.53664C13.0047 7.04477 14.8254 6.29883 16.975 6.29883C19.1246 6.29883 20.9453 7.04477 22.4372 8.53664C23.9291 10.0285 24.675 11.8492 24.675 13.9988C24.675 16.1484 23.9291 17.9691 22.4372 19.461C20.9453 20.9529 19.1246 21.6988 16.975 21.6988ZM7.95156 20.977C6.60406 20.3513 5.52526 19.4129 4.71516 18.1616C3.90505 16.9104 3.5 15.5228 3.5 13.9988C3.5 12.4749 3.90505 11.0873 4.71516 9.83602C5.52526 8.58477 6.60406 7.64633 7.95156 7.0207C8.28844 6.86029 8.59323 6.87232 8.86594 7.0568C9.13865 7.24128 9.275 7.54206 9.275 7.95914C9.275 8.11956 9.22287 8.27596 9.11859 8.42836C9.01432 8.58076 8.88198 8.69706 8.72156 8.77727C7.71094 9.24247 6.90885 9.9443 6.31531 10.8827C5.72177 11.8212 5.425 12.8599 5.425 13.9988C5.425 15.1378 5.72177 16.1765 6.31531 17.1149C6.90885 18.0534 7.71094 18.7552 8.72156 19.2204C8.88198 19.3006 9.01432 19.4129 9.11859 19.5573C9.22287 19.7016 9.275 19.8621 9.275 20.0385C9.275 20.4396 9.13865 20.7363 8.86594 20.9288C8.59323 21.1213 8.28844 21.1374 7.95156 20.977ZM16.975 19.7738C18.5792 19.7738 19.9427 19.2124 21.0656 18.0895C22.1885 16.9665 22.75 15.603 22.75 13.9988C22.75 12.3947 22.1885 11.0311 21.0656 9.9082C19.9427 8.78529 18.5792 8.22383 16.975 8.22383C15.3708 8.22383 14.0073 8.78529 12.8844 9.9082C11.7615 11.0311 11.2 12.3947 11.2 13.9988C11.2 15.603 11.7615 16.9665 12.8844 18.0895C14.0073 19.2124 15.3708 19.7738 16.975 19.7738Z" fill="#1447D4"/>
</g>
</svg>
