<svg preserveAspectRatio="none" width="100%" height="100%" overflow="visible" style="display: block;" viewBox="0 0 22 22" fill="none" xmlns="http://www.w3.org/2000/svg">
<g id="toll">
<mask id="mask0_9975_22874" style="mask-type:alpha" maskUnits="userSpaceOnUse" x="0" y="0" width="22" height="22">
<rect id="Bounding box" width="22" height="22" fill="var(--fill-0, #D9D9D9)"/>
</mask>
<g mask="url(#mask0_9975_22874)">
<path id="toll_2" d="M13.7502 18.333C11.703 18.333 9.96893 17.6226 8.5481 16.2017C7.12726 14.7809 6.41685 13.0469 6.41685 10.9996C6.41685 8.95242 7.12726 7.21839 8.5481 5.79756C9.96893 4.37673 11.703 3.66631 13.7502 3.66631C15.7974 3.66631 17.5314 4.37673 18.9523 5.79756C20.3731 7.21839 21.0835 8.95242 21.0835 10.9996C21.0835 13.0469 20.3731 14.7809 18.9523 16.2017C17.5314 17.6226 15.7974 18.333 13.7502 18.333ZM5.15643 17.6455C3.8731 17.0496 2.84567 16.1559 2.07414 14.9642C1.30261 13.7726 0.916846 12.451 0.916846 10.9996C0.916846 9.54825 1.30261 8.22673 2.07414 7.03506C2.84567 5.84339 3.8731 4.94964 5.15643 4.35381C5.47726 4.20103 5.76754 4.21249 6.02726 4.38818C6.28699 4.56388 6.41685 4.85034 6.41685 5.24756C6.41685 5.40034 6.36719 5.54929 6.26789 5.69443C6.16858 5.83957 6.04254 5.95034 5.88976 6.02673C4.92726 6.46978 4.16337 7.13818 3.5981 8.03193C3.03282 8.92568 2.75018 9.91492 2.75018 10.9996C2.75018 12.0844 3.03282 13.0736 3.5981 13.9674C4.16337 14.8611 4.92726 15.5295 5.88976 15.9726C6.04254 16.0489 6.16858 16.1559 6.26789 16.2934C6.36719 16.4309 6.41685 16.5837 6.41685 16.7517C6.41685 17.1337 6.28699 17.4163 6.02726 17.5996C5.76754 17.783 5.47726 17.7983 5.15643 17.6455ZM13.7502 16.4996C15.278 16.4996 16.5766 15.9649 17.646 14.8955C18.7155 13.826 19.2502 12.5274 19.2502 10.9996C19.2502 9.47186 18.7155 8.17325 17.646 7.10381C16.5766 6.03436 15.278 5.49964 13.7502 5.49964C12.2224 5.49964 10.9238 6.03436 9.85435 7.10381C8.7849 8.17325 8.25018 9.47186 8.25018 10.9996C8.25018 12.5274 8.7849 13.826 9.85435 14.8955C10.9238 15.9649 12.2224 16.4996 13.7502 16.4996Z" fill="var(--fill-0, #1E1D1D)"/>
</g>
</g>
</svg>
