<svg preserveAspectRatio="none" width="100%" height="100%" overflow="visible" style="display: block;" viewBox="0 0 13 13" fill="none" xmlns="http://www.w3.org/2000/svg">
<g id="toll">
<mask id="mask0_9975_22882" style="mask-type:alpha" maskUnits="userSpaceOnUse" x="0" y="0" width="13" height="13">
<rect id="Bounding box" width="13" height="13" fill="var(--fill-0, #D9D9D9)"/>
</mask>
<g mask="url(#mask0_9975_22882)">
<path id="toll_2" d="M8.12515 10.8321C6.91543 10.8321 5.89078 10.4123 5.05119 9.57275C4.21161 8.73317 3.79182 7.70851 3.79182 6.49879C3.79182 5.28907 4.21161 4.26442 5.05119 3.42483C5.89078 2.58525 6.91543 2.16546 8.12515 2.16546C9.33487 2.16546 10.3595 2.58525 11.1991 3.42483C12.0387 4.26442 12.4585 5.28907 12.4585 6.49879C12.4585 7.70851 12.0387 8.73317 11.1991 9.57275C10.3595 10.4123 9.33487 10.8321 8.12515 10.8321ZM3.04703 10.4259C2.28869 10.0738 1.68157 9.54567 1.22567 8.8415C0.769769 8.13733 0.541818 7.35643 0.541818 6.49879C0.541818 5.64115 0.769769 4.86025 1.22567 4.15608C1.68157 3.45192 2.28869 2.92379 3.04703 2.57171C3.23661 2.48143 3.40814 2.4882 3.56161 2.59202C3.71508 2.69584 3.79182 2.86511 3.79182 3.09983C3.79182 3.19011 3.76248 3.27813 3.7038 3.36389C3.64512 3.44966 3.57064 3.51511 3.48036 3.56025C2.91161 3.82205 2.46022 4.21702 2.12619 4.74514C1.79217 5.27327 1.62515 5.85782 1.62515 6.49879C1.62515 7.13976 1.79217 7.72431 2.12619 8.25244C2.46022 8.78056 2.91161 9.17553 3.48036 9.43733C3.57064 9.48247 3.64512 9.54567 3.7038 9.62692C3.76248 9.70817 3.79182 9.79844 3.79182 9.89775C3.79182 10.1234 3.71508 10.2905 3.56161 10.3988C3.40814 10.5071 3.23661 10.5162 3.04703 10.4259ZM8.12515 9.74879C9.02793 9.74879 9.79529 9.43282 10.4272 8.80087C11.0592 8.16893 11.3752 7.40157 11.3752 6.49879C11.3752 5.59601 11.0592 4.82865 10.4272 4.19671C9.79529 3.56476 9.02793 3.24879 8.12515 3.24879C7.22237 3.24879 6.45501 3.56476 5.82307 4.19671C5.19112 4.82865 4.87515 5.59601 4.87515 6.49879C4.87515 7.40157 5.19112 8.16893 5.82307 8.80087C6.45501 9.43282 7.22237 9.74879 8.12515 9.74879Z" fill="var(--fill-0, #464646)"/>
</g>
</g>
</svg>
