<svg width="13" height="13" viewBox="0 0 13 13" fill="none" xmlns="http://www.w3.org/2000/svg">
<mask id="mask0_10064_42735" style="mask-type:alpha" maskUnits="userSpaceOnUse" x="0" y="0" width="13" height="13">
<rect width="13" height="13" fill="#D9D9D9"/>
</mask>
<g mask="url(#mask0_10064_42735)">
<path d="M8.12533 10.8327C6.9156 10.8327 5.89095 10.4129 5.05137 9.57331C4.21178 8.73372 3.79199 7.70907 3.79199 6.49935C3.79199 5.28963 4.21178 4.26497 5.05137 3.42539C5.89095 2.58581 6.9156 2.16602 8.12533 2.16602C9.33505 2.16602 10.3597 2.58581 11.1993 3.42539C12.0389 4.26497 12.4587 5.28963 12.4587 6.49935C12.4587 7.70907 12.0389 8.73372 11.1993 9.57331C10.3597 10.4129 9.33505 10.8327 8.12533 10.8327ZM3.0472 10.4264C2.28887 10.0743 1.68175 9.54622 1.22585 8.84206C0.769944 8.13789 0.541992 7.35699 0.541992 6.49935C0.541992 5.64171 0.769944 4.86081 1.22585 4.15664C1.68175 3.45247 2.28887 2.92435 3.0472 2.57227C3.23678 2.48199 3.40831 2.48876 3.56178 2.59258C3.71526 2.6964 3.79199 2.86567 3.79199 3.10039C3.79199 3.19067 3.76265 3.27869 3.70397 3.36445C3.64529 3.45022 3.57081 3.51567 3.48053 3.56081C2.91178 3.82261 2.46039 4.21758 2.12637 4.7457C1.79234 5.27383 1.62533 5.85838 1.62533 6.49935C1.62533 7.14032 1.79234 7.72487 2.12637 8.25299C2.46039 8.78112 2.91178 9.17608 3.48053 9.43789C3.57081 9.48303 3.64529 9.54622 3.70397 9.62747C3.76265 9.70872 3.79199 9.799 3.79199 9.89831C3.79199 10.124 3.71526 10.291 3.56178 10.3993C3.40831 10.5077 3.23678 10.5167 3.0472 10.4264ZM8.12533 9.74935C9.0281 9.74935 9.79546 9.43338 10.4274 8.80143C11.0594 8.16949 11.3753 7.40213 11.3753 6.49935C11.3753 5.59657 11.0594 4.82921 10.4274 4.19727C9.79546 3.56532 9.0281 3.24935 8.12533 3.24935C7.22255 3.24935 6.45519 3.56532 5.82324 4.19727C5.1913 4.82921 4.87533 5.59657 4.87533 6.49935C4.87533 7.40213 5.1913 8.16949 5.82324 8.80143C6.45519 9.43338 7.22255 9.74935 8.12533 9.74935Z" fill="#464646"/>
</g>
</svg>
