<svg width="48" height="48" viewBox="0 0 48 48" fill="none" xmlns="http://www.w3.org/2000/svg">
<path d="M47.9999 36.8802V9.74518L39.5312 1.27646L31.7655 9.04205L28.8771 6.15362L27.8827 7.14784L31.0624 10.3276V12.3164L23.9999 5.2539L16.9374 12.3164V10.3276L23.9999 3.26509L26.8884 6.15362L27.8827 5.15921L23.9999 1.27646L16.2343 9.04205L8.46872 1.27637L0 9.74509V18.7673H1.40625V14.3051L8.46872 7.24252L11.3572 10.131L12.3515 9.13665L8.46872 5.2539L1.40625 12.3165V10.3276L8.46872 3.26509L15.5312 10.3275V12.3164L13.3458 10.131L12.3515 11.1253L15.5312 14.305V25.6301H1.40625V20.1736H0V46.7237H47.9999V38.2862H46.5937V45.3175H45.1874V42.505H42.3437V35.4737H36.7187V42.505H33.8749V45.3175H32.4686V29.8489H38.828V28.4427H32.4686V27.0364H46.5937V28.4427H40.2342V29.8489H46.5937V36.8802H47.9999ZM11.2812 43.9113H12.7188V45.3176H11.2812V43.9113ZM9.87497 45.3176H7.06247V36.8801H9.87497V45.3176ZM5.65622 45.3176H4.21866V43.9113H5.65622V45.3176ZM26.8124 43.9113H28.25V45.3176H26.8124V43.9113ZM25.4062 45.3176H22.5937V36.8801H25.4062V45.3176ZM21.1874 45.3176H19.7499V43.9113H21.1874V45.3176ZM43.7812 43.9113V45.3176H42.3437V43.9113H43.7812ZM40.9374 36.8801V45.3176H38.1249V36.8801H40.9374ZM35.2811 43.9113H36.7187V45.3176H35.2811V43.9113ZM31.0624 45.3176H29.6562V42.5051H26.8124V35.4738H21.1874V42.5051H18.3437V45.3176H16.9374V38.2863H15.5312V45.3176H14.125V42.5051H11.2812V35.4738H5.65622V42.5051H2.81241V45.3176H1.40625V29.8489H7.76559V28.4427H1.40625V27.0364H15.5312V28.4427H9.17184V29.8489H15.5312V36.8802H16.9374V29.8489H31.0624V45.3176ZM32.4686 25.6302V20.1736H31.0624V25.6302H24.703V27.0364H31.0624V28.4427H16.9374V27.0364H23.2968V25.6302H16.9374V14.3052L23.9999 7.24262L31.0624 14.3052V18.7674H32.4686V14.3051L39.5312 7.24262L42.4196 10.1311L43.414 9.13674L39.5312 5.2539L32.4686 12.3164V10.3275L39.5312 3.26509L46.5937 10.3276V12.3164L44.4083 10.131L43.4139 11.1253L46.5937 14.305V25.6301H32.4686V25.6302Z" fill="#1447D4"/>
<path d="M26.8125 13.9629H21.1875V22.4004H19.7812V23.8066H28.2188V22.4004H26.8125V13.9629ZM25.4062 22.4004H22.5938V19.5879H25.4062V22.4004ZM25.4062 18.1816H22.5938V15.3691H25.4062V18.1816Z" fill="#1447D4"/>
<path d="M5.65625 13.9629V22.4004H4.25V23.8066H12.6875V22.4004H11.2812V13.9629H5.65625ZM9.875 22.4004H7.0625V19.5879H9.875V22.4004ZM9.875 18.1816H7.0625V15.3691H9.875V18.1816Z" fill="#1447D4"/>
<path d="M42.3438 13.9629H36.7188V22.4004H35.3125V23.8066H43.75V22.4004H42.3438V13.9629ZM40.9375 22.4004H38.125V19.5879H40.9375V22.4004ZM40.9375 18.1816H38.125V15.3691H40.9375V18.1816Z" fill="#1447D4"/>
<path d="M43.75 14.666H45.1562V16.0723H43.75V14.666Z" fill="#1447D4"/>
<path d="M12.6875 17.4785H14.0938V18.8848H12.6875V17.4785Z" fill="#1447D4"/>
<path d="M12.6875 14.666H14.0938V16.0723H12.6875V14.666Z" fill="#1447D4"/>
<path d="M28.25 31.2549H29.6562V32.6611H28.25V31.2549Z" fill="#1447D4"/>
<path d="M12.7188 31.2549H14.125V32.6611H12.7188V31.2549Z" fill="#1447D4"/>
<path d="M28.2188 17.4785H29.625V18.8848H28.2188V17.4785Z" fill="#1447D4"/>
<path d="M43.7812 31.2549H45.1875V32.6611H43.7812V31.2549Z" fill="#1447D4"/>
<path d="M28.2188 14.666H29.625V16.0723H28.2188V14.666Z" fill="#1447D4"/>
<path d="M43.75 17.4785H45.1562V18.8848H43.75V17.4785Z" fill="#1447D4"/>
<path d="M21.1875 32.6611H23.2969V34.0674H21.1875V32.6611Z" fill="#1447D4"/>
<path d="M36.7188 32.6611H38.8281V34.0674H36.7188V32.6611Z" fill="#1447D4"/>
<path d="M40.2344 32.6611H42.3438V34.0674H40.2344V32.6611Z" fill="#1447D4"/>
<path d="M5.65625 32.6611H7.76562V34.0674H5.65625V32.6611Z" fill="#1447D4"/>
<path d="M24.7031 32.6611H26.8125V34.0674H24.7031V32.6611Z" fill="#1447D4"/>
<path d="M9.17188 32.6611H11.2812V34.0674H9.17188V32.6611Z" fill="#1447D4"/>
</svg>
