<svg width="18" height="18" viewBox="0 0 18 18" fill="none" xmlns="http://www.w3.org/2000/svg">
<mask id="mask0_9144_3479" style="mask-type:alpha" maskUnits="userSpaceOnUse" x="0" y="0" width="18" height="18">
<rect width="18" height="18" fill="#1447D4"/>
</mask>
<g mask="url(#mask0_9144_3479)">
<path d="M9.5 16.5C9.26389 16.5 9.06597 16.4201 8.90625 16.2604C8.74653 16.1007 8.66667 15.9028 8.66667 15.6667V12.3333C8.66667 12.0972 8.74653 11.8993 8.90625 11.7396C9.06597 11.5799 9.26389 11.5 9.5 11.5C9.73611 11.5 9.93403 11.5799 10.0938 11.7396C10.2535 11.8993 10.3333 12.0972 10.3333 12.3333V13.1667H16.1667C16.4028 13.1667 16.6007 13.2465 16.7604 13.4062C16.9201 13.566 17 13.7639 17 14C17 14.2361 16.9201 14.434 16.7604 14.5938C16.6007 14.7535 16.4028 14.8333 16.1667 14.8333H10.3333V15.6667C10.3333 15.9028 10.2535 16.1007 10.0938 16.2604C9.93403 16.4201 9.73611 16.5 9.5 16.5ZM2.83333 14.8333C2.59722 14.8333 2.39931 14.7535 2.23958 14.5938C2.07986 14.434 2 14.2361 2 14C2 13.7639 2.07986 13.566 2.23958 13.4062C2.39931 13.2465 2.59722 13.1667 2.83333 13.1667H6.16667C6.40278 13.1667 6.60069 13.2465 6.76042 13.4062C6.92014 13.566 7 13.7639 7 14C7 14.2361 6.92014 14.434 6.76042 14.5938C6.60069 14.7535 6.40278 14.8333 6.16667 14.8333H2.83333ZM6.16667 11.5C5.93056 11.5 5.73264 11.4201 5.57292 11.2604C5.41319 11.1007 5.33333 10.9028 5.33333 10.6667V9.83333H2.83333C2.59722 9.83333 2.39931 9.75347 2.23958 9.59375C2.07986 9.43403 2 9.23611 2 9C2 8.76389 2.07986 8.56597 2.23958 8.40625C2.39931 8.24653 2.59722 8.16667 2.83333 8.16667H5.33333V7.33333C5.33333 7.09722 5.41319 6.89931 5.57292 6.73958C5.73264 6.57986 5.93056 6.5 6.16667 6.5C6.40278 6.5 6.60069 6.57986 6.76042 6.73958C6.92014 6.89931 7 7.09722 7 7.33333V10.6667C7 10.9028 6.92014 11.1007 6.76042 11.2604C6.60069 11.4201 6.40278 11.5 6.16667 11.5ZM9.5 9.83333C9.26389 9.83333 9.06597 9.75347 8.90625 9.59375C8.74653 9.43403 8.66667 9.23611 8.66667 9C8.66667 8.76389 8.74653 8.56597 8.90625 8.40625C9.06597 8.24653 9.26389 8.16667 9.5 8.16667H16.1667C16.4028 8.16667 16.6007 8.24653 16.7604 8.40625C16.9201 8.56597 17 8.76389 17 9C17 9.23611 16.9201 9.43403 16.7604 9.59375C16.6007 9.75347 16.4028 9.83333 16.1667 9.83333H9.5ZM12.8333 6.5C12.5972 6.5 12.3993 6.42014 12.2396 6.26042C12.0799 6.10069 12 5.90278 12 5.66667V2.33333C12 2.09722 12.0799 1.89931 12.2396 1.73958C12.3993 1.57986 12.5972 1.5 12.8333 1.5C13.0694 1.5 13.2674 1.57986 13.4271 1.73958C13.5868 1.89931 13.6667 2.09722 13.6667 2.33333V3.16667H16.1667C16.4028 3.16667 16.6007 3.24653 16.7604 3.40625C16.9201 3.56597 17 3.76389 17 4C17 4.23611 16.9201 4.43403 16.7604 4.59375C16.6007 4.75347 16.4028 4.83333 16.1667 4.83333H13.6667V5.66667C13.6667 5.90278 13.5868 6.10069 13.4271 6.26042C13.2674 6.42014 13.0694 6.5 12.8333 6.5ZM2.83333 4.83333C2.59722 4.83333 2.39931 4.75347 2.23958 4.59375C2.07986 4.43403 2 4.23611 2 4C2 3.76389 2.07986 3.56597 2.23958 3.40625C2.39931 3.24653 2.59722 3.16667 2.83333 3.16667H9.5C9.73611 3.16667 9.93403 3.24653 10.0938 3.40625C10.2535 3.56597 10.3333 3.76389 10.3333 4C10.3333 4.23611 10.2535 4.43403 10.0938 4.59375C9.93403 4.75347 9.73611 4.83333 9.5 4.83333H2.83333Z" fill="#1447D4"/>
</g>
</svg>
