<svg width="54" height="54" viewBox="0 0 54 54" fill="none" xmlns="http://www.w3.org/2000/svg">
<circle opacity="0.05" cx="27" cy="27" r="27" fill="#1447D4"/>
<mask id="mask0_10056_41509" style="mask-type:alpha" maskUnits="userSpaceOnUse" x="14" y="14" width="26" height="26">
<rect x="14" y="14" width="26" height="26" fill="#D9D9D9"/>
</mask>
<g mask="url(#mask0_10056_41509)">
<path d="M20.4997 35.6659C19.9038 35.6659 19.3938 35.4537 18.9695 35.0294C18.5452 34.6051 18.333 34.0951 18.333 33.4992V31.3326C18.333 31.0256 18.4368 30.7683 18.6445 30.5607C18.8521 30.353 19.1094 30.2492 19.4163 30.2492C19.7233 30.2492 19.9806 30.353 20.1882 30.5607C20.3959 30.7683 20.4997 31.0256 20.4997 31.3326V33.4992H33.4997V31.3326C33.4997 31.0256 33.6035 30.7683 33.8111 30.5607C34.0188 30.353 34.2761 30.2492 34.583 30.2492C34.89 30.2492 35.1472 30.353 35.3549 30.5607C35.5625 30.7683 35.6663 31.0256 35.6663 31.3326V33.4992C35.6663 34.0951 35.4542 34.6051 35.0299 35.0294C34.6056 35.4537 34.0955 35.6659 33.4997 35.6659H20.4997ZM25.9163 22.5034L23.8851 24.5346C23.6684 24.7513 23.4111 24.8551 23.1132 24.8461C22.8153 24.8371 22.558 24.7242 22.3413 24.5076C22.1427 24.2909 22.0389 24.0381 22.0299 23.7492C22.0209 23.4603 22.1247 23.2076 22.3413 22.9909L26.2413 19.0909C26.3497 18.9826 26.467 18.9058 26.5934 18.8607C26.7198 18.8155 26.8552 18.793 26.9997 18.793C27.1441 18.793 27.2795 18.8155 27.4059 18.8607C27.5323 18.9058 27.6497 18.9826 27.758 19.0909L31.658 22.9909C31.8747 23.2076 31.9785 23.4603 31.9695 23.7492C31.9604 24.0381 31.8566 24.2909 31.658 24.5076C31.4413 24.7242 31.1841 24.8371 30.8861 24.8461C30.5882 24.8551 30.3309 24.7513 30.1143 24.5346L28.083 22.5034V30.2492C28.083 30.5562 27.9792 30.8135 27.7716 31.0211C27.5639 31.2287 27.3066 31.3326 26.9997 31.3326C26.6927 31.3326 26.4354 31.2287 26.2278 31.0211C26.0202 30.8135 25.9163 30.5562 25.9163 30.2492V22.5034Z" fill="#1447D4"/>
</g>
</svg>
