<svg width="17" height="17" viewBox="0 0 17 17" fill="none" xmlns="http://www.w3.org/2000/svg">
<mask id="mask0_9226_19955" style="mask-type:alpha" maskUnits="userSpaceOnUse" x="0" y="0" width="17" height="17">
<rect width="17" height="17" fill="#D9D9D9"/>
</mask>
<g mask="url(#mask0_9226_19955)">
<path d="M9.20768 8.21667V5.66667C9.20768 5.46598 9.1398 5.29775 9.00404 5.16198C8.86827 5.02622 8.70004 4.95834 8.49935 4.95834C8.29866 4.95834 8.13043 5.02622 7.99466 5.16198C7.8589 5.29775 7.79102 5.46598 7.79102 5.66667V8.4823C7.79102 8.57674 7.80872 8.66823 7.84414 8.75678C7.87956 8.84532 7.93268 8.92501 8.00352 8.99584L10.341 11.3333C10.4709 11.4632 10.6362 11.5281 10.8368 11.5281C11.0375 11.5281 11.2028 11.4632 11.3327 11.3333C11.4625 11.2035 11.5275 11.0382 11.5275 10.8375C11.5275 10.6368 11.4625 10.4715 11.3327 10.3417L9.20768 8.21667ZM8.49935 15.5833C7.51949 15.5833 6.59865 15.3974 5.73685 15.0255C4.87504 14.6537 4.12539 14.149 3.48789 13.5115C2.85039 12.874 2.3457 12.1243 1.97383 11.2625C1.60195 10.4007 1.41602 9.47987 1.41602 8.50001C1.41602 7.52014 1.60195 6.59931 1.97383 5.73751C2.3457 4.8757 2.85039 4.12605 3.48789 3.48855C4.12539 2.85105 4.87504 2.34636 5.73685 1.97448C6.59865 1.60261 7.51949 1.41667 8.49935 1.41667C9.47921 1.41667 10.4 1.60261 11.2619 1.97448C12.1237 2.34636 12.8733 2.85105 13.5108 3.48855C14.1483 4.12605 14.653 4.8757 15.0249 5.73751C15.3967 6.59931 15.5827 7.52014 15.5827 8.50001C15.5827 9.47987 15.3967 10.4007 15.0249 11.2625C14.653 12.1243 14.1483 12.874 13.5108 13.5115C12.8733 14.149 12.1237 14.6537 11.2619 15.0255C10.4 15.3974 9.47921 15.5833 8.49935 15.5833ZM8.49935 14.1667C10.0695 14.1667 11.4065 13.6148 12.5103 12.5109C13.6141 11.4071 14.166 10.0701 14.166 8.50001C14.166 6.92987 13.6141 5.59289 12.5103 4.48907C11.4065 3.38525 10.0695 2.83334 8.49935 2.83334C6.92921 2.83334 5.59223 3.38525 4.48841 4.48907C3.38459 5.59289 2.83268 6.92987 2.83268 8.50001C2.83268 10.0701 3.38459 11.4071 4.48841 12.5109C5.59223 13.6148 6.92921 14.1667 8.49935 14.1667Z" fill="#04247B"/>
</g>
</svg>
