<svg preserveAspectRatio="none" width="100%" height="100%" overflow="visible" style="display: block;" viewBox="0 0 18 18" fill="none" xmlns="http://www.w3.org/2000/svg">
<g id="verified_user">
<mask id="mask0_9966_22268" style="mask-type:alpha" maskUnits="userSpaceOnUse" x="0" y="0" width="18" height="18">
<rect id="Bounding box" width="18" height="18" fill="var(--fill-0, #D9D9D9)"/>
</mask>
<g mask="url(#mask0_9966_22268)">
<path id="verified_user_2" d="M8.21265 9.52499L7.16265 8.47499C7.01265 8.32499 6.83765 8.24999 6.63765 8.24999C6.43765 8.24999 6.26265 8.32499 6.11265 8.47499C5.96265 8.62499 5.88765 8.80312 5.88765 9.00937C5.88765 9.21562 5.96265 9.39374 6.11265 9.54374L7.68765 11.1375C7.83765 11.2875 8.01265 11.3625 8.21265 11.3625C8.41265 11.3625 8.58765 11.2875 8.73765 11.1375L11.9251 7.94999C12.0751 7.79999 12.1501 7.62187 12.1501 7.41562C12.1501 7.20937 12.0751 7.03124 11.9251 6.88124C11.7751 6.73124 11.597 6.65624 11.3908 6.65624C11.1845 6.65624 11.0064 6.73124 10.8564 6.88124L8.21265 9.52499ZM9.00015 16.425C8.91265 16.425 8.8314 16.4187 8.7564 16.4062C8.6814 16.3937 8.6064 16.375 8.5314 16.35C6.8439 15.7875 5.50015 14.7469 4.50015 13.2281C3.50015 11.7094 3.00015 10.075 3.00015 8.32499V4.78124C3.00015 4.46874 3.09077 4.18749 3.27202 3.93749C3.45327 3.68749 3.68765 3.50624 3.97515 3.39374L8.47515 1.70624C8.65015 1.64374 8.82515 1.61249 9.00015 1.61249C9.17515 1.61249 9.35015 1.64374 9.52515 1.70624L14.0251 3.39374C14.3126 3.50624 14.547 3.68749 14.7283 3.93749C14.9095 4.18749 15.0001 4.46874 15.0001 4.78124V8.32499C15.0001 10.075 14.5001 11.7094 13.5001 13.2281C12.5001 14.7469 11.1564 15.7875 9.4689 16.35C9.3939 16.375 9.3189 16.3937 9.2439 16.4062C9.1689 16.4187 9.08765 16.425 9.00015 16.425Z" fill="var(--fill-0, #1447D4)"/>
</g>
</g>
</svg>
