<svg width="48" height="48" viewBox="0 0 48 48" fill="none" xmlns="http://www.w3.org/2000/svg">
<g clip-path="url(#clip0_10051_39630)">
<path d="M45.8906 43.7812H43.6875V28.3125H47.2969V24.0938H42.9844V6.97097L45.7969 5.94731V1.45772L37.3595 4.52869V1.40625H38.7657V0H28.922V1.40625H30.3282V7.08787L27.2839 8.19591L27.7648 9.51741L44.3906 3.46613V4.96266L23.2972 12.64V11.1435L26.443 9.99853L25.9621 8.67703L21.8909 10.1588V14.6483L24.7034 13.6247V19.5234H0.796875V20.9297H2.20312V24.0938H0.703125V28.3125H4.3125V43.7812H2.10938C0.946219 43.7812 0 44.7275 0 45.8905V48H42.375V46.5938H1.40625V45.8905C1.40625 45.5029 1.72172 45.1874 2.10938 45.1874H45.8906C46.2783 45.1874 46.5938 45.5028 46.5938 45.8905V46.5938H43.7812V48H48V45.8905C48 44.7275 47.0538 43.7812 45.8906 43.7812ZM31.7345 1.40625H35.9532V5.04056L31.7345 6.57609V1.40625ZM42.2812 43.7812H26.1097V28.3125H42.2812V43.7812ZM41.5781 7.48275V24.0938H26.1097V13.1128L41.5781 7.48275ZM24.7034 24.0938H23.2972V20.9297H24.7034V24.0938ZM6.42188 24.0938V20.9297H7.82812V24.0938H6.42188ZM9.23428 20.9297H10.6405V24.0938H9.23428V20.9297ZM12.0468 20.9297H13.453V24.0938H12.0468V20.9297ZM14.8592 20.9297H16.266V24.0938H14.8592V20.9297ZM17.6722 20.9297H19.0785V24.0938H17.6722V20.9297ZM20.4847 20.9297H21.891V24.0938H20.4847V20.9297ZM3.60938 20.9297H5.01562V24.0938H3.60938V20.9297ZM2.10938 25.5H45.8906V26.9062H2.10938V25.5ZM5.71875 28.3125H24.7034V43.7812H15.211V35.3438C15.211 33.4053 13.634 31.8281 11.6954 31.8281C9.75684 31.8281 8.17978 33.4052 8.17978 35.3438V43.7812H5.71875V28.3125ZM13.8048 43.7812H9.58603V35.3438C9.58603 34.1807 10.5323 33.2344 11.6954 33.2344C12.8585 33.2344 13.8048 34.1806 13.8048 35.3438V43.7812Z" fill="#1447D4"/>
<path d="M22.2422 35.3438C22.2422 33.7929 20.9805 32.5312 19.4297 32.5312C17.8789 32.5312 16.6172 33.7929 16.6172 35.3438V40.2655H22.2422V35.3438ZM20.8359 38.8592H18.0234V35.3438C18.0234 34.5683 18.6543 33.9375 19.4297 33.9375C20.2051 33.9375 20.8359 34.5683 20.8359 35.3438V38.8592Z" fill="#1447D4"/>
<path d="M38.0625 21.1103V19.704H36.6562V16.8916C36.6562 15.3408 35.3946 14.0791 33.8438 14.0791C32.2929 14.0791 31.0312 15.3408 31.0312 16.8916V19.704H29.625V21.1103H38.0625ZM32.4375 16.8916C32.4375 16.1162 33.0683 15.4854 33.8438 15.4854C34.6192 15.4854 35.25 16.1162 35.25 16.8916V19.704H32.4375V16.8916Z" fill="#1447D4"/>
<path d="M38.0625 39.5624V38.1562H36.6562V35.3438C36.6562 33.7929 35.3946 32.5312 33.8438 32.5312C32.2929 32.5312 31.0312 33.7929 31.0312 35.3438V38.1562H29.625V39.5624H38.0625ZM32.4375 35.3438C32.4375 34.5683 33.0683 33.9375 33.8438 33.9375C34.6192 33.9375 35.25 34.5683 35.25 35.3438V38.1562H32.4375V35.3438Z" fill="#1447D4"/>
<path d="M38.7656 12.8066H40.1719V14.2129H38.7656V12.8066Z" fill="#1447D4"/>
<path d="M38.7656 9.99414H40.1719V11.4004H38.7656V9.99414Z" fill="#1447D4"/>
</g>
<defs>
<clipPath id="clip0_10051_39630">
<rect width="48" height="48" fill="white"/>
</clipPath>
</defs>
</svg>
