<svg width="16" height="16" viewBox="0 0 16 16" fill="none" xmlns="http://www.w3.org/2000/svg">
<mask id="mask0_10090_27039" style="mask-type:alpha" maskUnits="userSpaceOnUse" x="0" y="0" width="16" height="16">
<rect width="16" height="16" fill="#D9D9D9"/>
</mask>
<g mask="url(#mask0_10090_27039)">
<path d="M7.99985 10.666C8.83319 10.666 9.54152 10.3743 10.1249 9.79102C10.7082 9.20768 10.9999 8.49935 10.9999 7.66602C10.9999 6.83268 10.7082 6.12435 10.1249 5.54102C9.54152 4.95768 8.83319 4.66602 7.99985 4.66602C7.16652 4.66602 6.45819 4.95768 5.87485 5.54102C5.29152 6.12435 4.99985 6.83268 4.99985 7.66602C4.99985 8.49935 5.29152 9.20768 5.87485 9.79102C6.45819 10.3743 7.16652 10.666 7.99985 10.666ZM7.99985 9.46602C7.49985 9.46602 7.07485 9.29102 6.72485 8.94102C6.37485 8.59102 6.19985 8.16602 6.19985 7.66602C6.19985 7.16602 6.37485 6.74102 6.72485 6.39102C7.07485 6.04102 7.49985 5.86602 7.99985 5.86602C8.49985 5.86602 8.92485 6.04102 9.27485 6.39102C9.62485 6.74102 9.79985 7.16602 9.79985 7.66602C9.79985 8.16602 9.62485 8.59102 9.27485 8.94102C8.92485 9.29102 8.49985 9.46602 7.99985 9.46602ZM7.99985 12.666C6.51096 12.666 5.15263 12.266 3.92485 11.466C2.69708 10.666 1.72763 9.61046 1.01652 8.29935C0.960965 8.19935 0.919298 8.09657 0.89152 7.99102C0.863742 7.88546 0.849854 7.77713 0.849854 7.66602C0.849854 7.5549 0.863742 7.44657 0.89152 7.34102C0.919298 7.23546 0.960965 7.13268 1.01652 7.03268C1.72763 5.72157 2.69708 4.66602 3.92485 3.86602C5.15263 3.06602 6.51096 2.66602 7.99985 2.66602C9.48874 2.66602 10.8471 3.06602 12.0749 3.86602C13.3026 4.66602 14.2721 5.72157 14.9832 7.03268C15.0387 7.13268 15.0804 7.23546 15.1082 7.34102C15.136 7.44657 15.1499 7.5549 15.1499 7.66602C15.1499 7.77713 15.136 7.88546 15.1082 7.99102C15.0804 8.09657 15.0387 8.19935 14.9832 8.29935C14.2721 9.61046 13.3026 10.666 12.0749 11.466C10.8471 12.266 9.48874 12.666 7.99985 12.666ZM7.99985 11.3327C9.25541 11.3327 10.4082 11.0021 11.4582 10.341C12.5082 9.6799 13.311 8.78824 13.8665 7.66602C13.311 6.54379 12.5082 5.65213 11.4582 4.99102C10.4082 4.3299 9.25541 3.99935 7.99985 3.99935C6.7443 3.99935 5.59152 4.3299 4.54152 4.99102C3.49152 5.65213 2.68874 6.54379 2.13319 7.66602C2.68874 8.78824 3.49152 9.6799 4.54152 10.341C5.59152 11.0021 6.7443 11.3327 7.99985 11.3327Z" fill="#1E1D1D"/>
</g>
</svg>
