<svg preserveAspectRatio="none" width="100%" height="100%" overflow="visible" style="display: block;" viewBox="0 0 14 14" fill="none" xmlns="http://www.w3.org/2000/svg">
<g id="visibility">
<mask id="mask0_9970_22475" style="mask-type:alpha" maskUnits="userSpaceOnUse" x="0" y="0" width="14" height="14">
<rect id="Bounding box" width="14" height="14" fill="var(--fill-0, #D9D9D9)"/>
</mask>
<g mask="url(#mask0_9970_22475)">
<path id="visibility_2" d="M6.99985 9.33333C7.72902 9.33333 8.34881 9.07812 8.85922 8.56771C9.36964 8.05729 9.62485 7.4375 9.62485 6.70833C9.62485 5.97917 9.36964 5.35937 8.85922 4.84896C8.34881 4.33854 7.72902 4.08333 6.99985 4.08333C6.27068 4.08333 5.65089 4.33854 5.14047 4.84896C4.63006 5.35937 4.37485 5.97917 4.37485 6.70833C4.37485 7.4375 4.63006 8.05729 5.14047 8.56771C5.65089 9.07812 6.27068 9.33333 6.99985 9.33333ZM6.99985 8.28333C6.56235 8.28333 6.19047 8.13021 5.88422 7.82396C5.57797 7.51771 5.42485 7.14583 5.42485 6.70833C5.42485 6.27083 5.57797 5.89896 5.88422 5.59271C6.19047 5.28646 6.56235 5.13333 6.99985 5.13333C7.43735 5.13333 7.80922 5.28646 8.11547 5.59271C8.42172 5.89896 8.57485 6.27083 8.57485 6.70833C8.57485 7.14583 8.42172 7.51771 8.11547 7.82396C7.80922 8.13021 7.43735 8.28333 6.99985 8.28333ZM6.99985 11.0833C5.69707 11.0833 4.50853 10.7333 3.43422 10.0333C2.35992 9.33333 1.51165 8.40972 0.889431 7.2625C0.84082 7.175 0.804362 7.08507 0.780056 6.99271C0.755751 6.90035 0.743598 6.80556 0.743598 6.70833C0.743598 6.61111 0.755751 6.51632 0.780056 6.42396C0.804362 6.3316 0.84082 6.24167 0.889431 6.15417C1.51165 5.00694 2.35992 4.08333 3.43422 3.38333C4.50853 2.68333 5.69707 2.33333 6.99985 2.33333C8.30263 2.33333 9.49117 2.68333 10.5655 3.38333C11.6398 4.08333 12.488 5.00694 13.1103 6.15417C13.1589 6.24167 13.1953 6.3316 13.2196 6.42396C13.2439 6.51632 13.2561 6.61111 13.2561 6.70833C13.2561 6.80556 13.2439 6.90035 13.2196 6.99271C13.1953 7.08507 13.1589 7.175 13.1103 7.2625C12.488 8.40972 11.6398 9.33333 10.5655 10.0333C9.49117 10.7333 8.30263 11.0833 6.99985 11.0833ZM6.99985 9.91667C8.09846 9.91667 9.10714 9.62743 10.0259 9.04896C10.9446 8.47049 11.6471 7.69028 12.1332 6.70833C11.6471 5.72639 10.9446 4.94618 10.0259 4.36771C9.10714 3.78924 8.09846 3.5 6.99985 3.5C5.90124 3.5 4.89256 3.78924 3.97381 4.36771C3.05506 4.94618 2.35263 5.72639 1.86651 6.70833C2.35263 7.69028 3.05506 8.47049 3.97381 9.04896C4.89256 9.62743 5.90124 9.91667 6.99985 9.91667Z" fill="var(--fill-0, #707070)"/>
</g>
</g>
</svg>
