<svg width="17" height="17" viewBox="0 0 17 17" fill="none" xmlns="http://www.w3.org/2000/svg">
<path d="M13.4938 3.47779C12.8443 2.82195 12.0708 2.30193 11.2183 1.94805C10.3658 1.59416 9.45142 1.41348 8.5284 1.41654C4.6609 1.41654 1.50882 4.56863 1.50882 8.43613C1.50882 9.67571 1.83465 10.8799 2.44382 11.9424L1.45215 15.5832L5.1709 14.6057C6.19798 15.1653 7.35257 15.4628 8.5284 15.4628C12.3959 15.4628 15.548 12.3107 15.548 8.44321C15.548 6.56613 14.8184 4.80238 13.4938 3.47779ZM8.5284 14.2728C7.48007 14.2728 6.45298 13.9895 5.5534 13.4582L5.3409 13.3307L3.1309 13.9115L3.71882 11.7582L3.57715 11.5386C2.99458 10.6086 2.6853 9.53353 2.68465 8.43613C2.68465 5.22029 5.30548 2.59946 8.52132 2.59946C10.0796 2.59946 11.5459 3.20863 12.6438 4.31363C13.1875 4.8547 13.6184 5.49834 13.9115 6.20723C14.2045 6.91612 14.3539 7.67614 14.3509 8.44321C14.3651 11.659 11.7442 14.2728 8.5284 14.2728ZM11.7301 9.90946C11.553 9.82446 10.6888 9.39946 10.533 9.33571C10.3701 9.27904 10.2567 9.25071 10.1363 9.42071C10.0159 9.59779 9.68298 9.99446 9.58382 10.1078C9.48465 10.2282 9.3784 10.2424 9.20132 10.1503C9.02423 10.0653 8.45757 9.87404 7.79173 9.27904C7.26757 8.81154 6.92048 8.23779 6.81423 8.06071C6.71507 7.88363 6.80007 7.79154 6.89215 7.69946C6.97007 7.62154 7.06923 7.49404 7.15423 7.39488C7.23923 7.29571 7.27465 7.21779 7.33132 7.10446C7.38798 6.98404 7.35965 6.88488 7.31715 6.79988C7.27465 6.71488 6.92048 5.85071 6.77882 5.49654C6.63715 5.15654 6.4884 5.19904 6.38215 5.19196H6.04215C5.92173 5.19196 5.73757 5.23446 5.57465 5.41154C5.41882 5.58863 4.96548 6.01363 4.96548 6.87779C4.96548 7.74196 5.5959 8.57779 5.6809 8.69113C5.7659 8.81154 6.92048 10.5824 8.67715 11.3403C9.09507 11.5245 9.4209 11.6307 9.6759 11.7086C10.0938 11.8432 10.4763 11.822 10.7809 11.7795C11.1209 11.7299 11.8221 11.3545 11.9638 10.9436C12.1126 10.5328 12.1126 10.1857 12.063 10.1078C12.0134 10.0299 11.9071 9.99446 11.7301 9.90946Z" fill="#1E1D1D"/>
</svg>
