<svg width="24" height="24" viewBox="0 0 24 24" fill="none" xmlns="http://www.w3.org/2000/svg">
<circle cx="12" cy="12" r="12" fill="#1447D4"/>
<mask id="mask0_10051_39619" style="mask-type:alpha" maskUnits="userSpaceOnUse" x="4" y="4" width="16" height="16">
<rect x="4.5" y="4.5" width="15" height="15" fill="#D9D9D9"/>
</mask>
<g mask="url(#mask0_10051_39619)">
<path d="M10.4691 13.9688L15.7659 8.67188C15.8909 8.54688 16.0368 8.48438 16.2034 8.48438C16.3701 8.48438 16.5159 8.54688 16.6409 8.67188C16.7659 8.79688 16.8284 8.94531 16.8284 9.11719C16.8284 9.28906 16.7659 9.4375 16.6409 9.5625L10.9066 15.3125C10.7816 15.4375 10.6357 15.5 10.4691 15.5C10.3024 15.5 10.1566 15.4375 10.0316 15.3125L7.34406 12.625C7.21906 12.5 7.15917 12.3516 7.16437 12.1797C7.16958 12.0078 7.23469 11.8594 7.35969 11.7344C7.48469 11.6094 7.63313 11.5469 7.805 11.5469C7.97688 11.5469 8.12531 11.6094 8.25031 11.7344L10.4691 13.9688Z" fill="white"/>
</g>
</svg>
