<svg width="52" height="52" viewBox="0 0 52 52" fill="none" xmlns="http://www.w3.org/2000/svg">
<g filter="url(#filter0_d_9156_3681)">
<rect x="6" y="5" width="40" height="40" rx="4" fill="white"/>
</g>
<mask id="mask0_9156_3681" style="mask-type:alpha" maskUnits="userSpaceOnUse" x="14" y="13" width="24" height="24">
<rect x="14" y="13" width="24" height="24" fill="#D9D9D9"/>
</mask>
<g mask="url(#mask0_9156_3681)">
<path d="M24.5858 24.9999L21.0503 21.4644C20.8499 21.2641 20.7497 21.0284 20.7497 20.7573C20.7497 20.4862 20.8499 20.2505 21.0503 20.0502C21.2506 19.8498 21.4863 19.7497 21.7574 19.7497C22.0284 19.7497 22.2641 19.8498 22.4645 20.0502L26 23.5857L29.5355 20.0502C29.7359 19.8498 29.9716 19.7497 30.2426 19.7497C30.5137 19.7497 30.7494 19.8498 30.9497 20.0502C31.1501 20.2505 31.2503 20.4862 31.2503 20.7573C31.2503 21.0284 31.1501 21.2641 30.9497 21.4644L27.4142 24.9999L30.9497 28.5355C31.1501 28.7358 31.2503 28.9715 31.2503 29.2426C31.2503 29.5136 31.1501 29.7493 30.9497 29.9497C30.7494 30.15 30.5137 30.2502 30.2426 30.2502C29.9716 30.2502 29.7359 30.15 29.5355 29.9497L26 26.4142L22.4645 29.9497C22.2641 30.15 22.0284 30.2502 21.7574 30.2502C21.4863 30.2502 21.2506 30.15 21.0503 29.9497C20.8499 29.7493 20.7497 29.5136 20.7497 29.2426C20.7497 28.9715 20.8499 28.7358 21.0503 28.5355L24.5858 24.9999Z" fill="#1447D4"/>
</g>
<defs>
<filter id="filter0_d_9156_3681" x="0" y="0" width="52" height="52" filterUnits="userSpaceOnUse" color-interpolation-filters="sRGB">
<feFlood flood-opacity="0" result="BackgroundImageFix"/>
<feColorMatrix in="SourceAlpha" type="matrix" values="0 0 0 0 0 0 0 0 0 0 0 0 0 0 0 0 0 0 127 0" result="hardAlpha"/>
<feOffset dy="1"/>
<feGaussianBlur stdDeviation="3"/>
<feComposite in2="hardAlpha" operator="out"/>
<feColorMatrix type="matrix" values="0 0 0 0 0 0 0 0 0 0 0 0 0 0 0 0 0 0 0.08 0"/>
<feBlend mode="normal" in2="BackgroundImageFix" result="effect1_dropShadow_9156_3681"/>
<feBlend mode="normal" in="SourceGraphic" in2="effect1_dropShadow_9156_3681" result="shape"/>
</filter>
</defs>
</svg>
