<svg width="46" height="46" viewBox="0 0 46 46" fill="none" xmlns="http://www.w3.org/2000/svg">
<rect width="46" height="46" rx="6" fill="#F9F9F8"/>
<mask id="mask0_9211_30831" style="mask-type:alpha" maskUnits="userSpaceOnUse" x="11" y="11" width="24" height="24">
<rect x="11" y="11" width="24" height="24" fill="#D9D9D9"/>
</mask>
<g mask="url(#mask0_9211_30831)">
<path d="M23 33C21.6167 33 20.3167 32.7375 19.1 32.2125C17.8833 31.6875 16.825 30.975 15.925 30.075C15.025 29.175 14.3125 28.1167 13.7875 26.9C13.2625 25.6833 13 24.3833 13 23C13 21.6167 13.2625 20.3167 13.7875 19.1C14.3125 17.8833 15.025 16.825 15.925 15.925C16.825 15.025 17.8833 14.3125 19.1 13.7875C20.3167 13.2625 21.6167 13 23 13C24.3833 13 25.6833 13.2625 26.9 13.7875C28.1167 14.3125 29.175 15.025 30.075 15.925C30.975 16.825 31.6875 17.8833 32.2125 19.1C32.7375 20.3167 33 21.6167 33 23C33 24.3833 32.7375 25.6833 32.2125 26.9C31.6875 28.1167 30.975 29.175 30.075 30.075C29.175 30.975 28.1167 31.6875 26.9 32.2125C25.6833 32.7375 24.3833 33 23 33ZM23 31C25.2333 31 27.125 30.225 28.675 28.675C30.225 27.125 31 25.2333 31 23C31 22.8833 30.9958 22.7625 30.9875 22.6375C30.9792 22.5125 30.975 22.4083 30.975 22.325C30.8917 22.8083 30.6667 23.2083 30.3 23.525C29.9333 23.8417 29.5 24 29 24H27C26.45 24 25.9792 23.8042 25.5875 23.4125C25.1958 23.0208 25 22.55 25 22V21H21V19C21 18.45 21.1958 17.9792 21.5875 17.5875C21.9792 17.1958 22.45 17 23 17H24C24 16.6167 24.1042 16.2792 24.3125 15.9875C24.5208 15.6958 24.775 15.4583 25.075 15.275C24.7417 15.1917 24.4042 15.125 24.0625 15.075C23.7208 15.025 23.3667 15 23 15C20.7667 15 18.875 15.775 17.325 17.325C15.775 18.875 15 20.7667 15 23H20C21.1 23 22.0417 23.3917 22.825 24.175C23.6083 24.9583 24 25.9 24 27V28H21V30.75C21.3333 30.8333 21.6625 30.8958 21.9875 30.9375C22.3125 30.9792 22.65 31 23 31Z" fill="#464646"/>
</g>
</svg>
